{
.appVersion = "1215";
DisplayStrings = (
"/nyo-khmer/uMark-khmer.below2/ka-khmer.below"
);
classes = (
{
code = " ro-khmer\012vo-khmer ";
name = KhmerHalfBowl;
},
{
code = " ka-khmer\012kha-khmer\012ko-khmer\012ngo-khmer\012ca-khmer\012cha-khmer\012co-khmer\012da-khmer\012ttha-khmer\012do-khmer\012ta-khmer\012tha-khmer\012to-khmer\012tho-khmer\012no-khmer\012ba-khmer\012pha-khmer\012po-khmer\012pho-khmer\012mo-khmer\012ro-khmer\012vo-khmer\012sha-khmer\012sso-khmer\012qa-khmer ";
name = KhmerOneBowl;
},
{
code = "kho-khmer\012nyo-khmer\012nyo-khmer.less\012ttho-khmer\012yo-khmer\012lo-khmer\012sa-khmer\012ha-khmer\012la-khmer ";
name = KhmerTwoBowls;
},
{
code = " cho-khmer\012nno-khmer ";
name = KhmerThreeBowls;
},
{
code = " ka-khmer.below\012kha-khmer.below\012ko-khmer.below\012ngo-khmer.below\012ca-khmer.below\012cha-khmer.below\012co-khmer.below\012nyo-khmer.below\012nyo-khmer.below.full\012da-khmer.below\012ttha-khmer.below\012do-khmer.below\012nno-khmer.below\012ta-khmer.below\012tha-khmer.below\012to-khmer.below\012tho-khmer.below\012no-khmer.below\012pha-khmer.below\012po-khmer.below\012pho-khmer.below\012mo-khmer.below\012lo-khmer.below\012vo-khmer.below\012sha-khmer.below\012ha-khmer.below\012qa-khmer.below\012 ";
name = KhmerBelowBaseCoengs;
},
{
code = "kho-khmer.post\012cho-khmer.post\012ttho-khmer.post\012ba-khmer.post\012yo-khmer.post\012sso-khmer.post\012sa-khmer.post ";
name = KhmerPostBaseCoengs;
},
{
code = " kho-khmer.post2\012cho-khmer.post2\012ttho-khmer.post2\012ba-khmer.post2\012yo-khmer.post2\012sso-khmer.post2\012sa-khmer.post2 ";
name = KhmerPostBaseCoengsLow;
},
{
code = " uMark-khmer\012uuMark-khmer\012uaMark-khmer ";
name = KhmerBelowBaseVowels;
},
{
code = "uMark-khmer.ro\012uuMark-khmer.ro\012uaMark-khmer.ro";
name = KhmerBelowBaseVowelsNarrow;
},
{
code = " uMark-khmer.below2\012uuMark-khmer.below2\012uaMark-khmer.below2 ";
name = KhmerBelowBaseVowelsLow;
},
{

glyphs = (
{
glyphname = "ka-khmer";
lastChange = "2019-02-20 09:48:22 +0000";
layers = (
{
anchors = (
{
name = bottom;
position = "{365, 0}";
},
{
name = bottomright;
position = "{590, 0}";
},
{
name = top;
position = "{730, 660}";
},
{
name = topcenter;
position = "{365, 660}";
}
);
layerId = "C00489B0-D6FE-4186-8C18-D0EE90D80B61";
paths = (
{
closed = 1;
nodes = (
"204 0 OFFCURVE",
"218 7 OFFCURVE",
"218 22 CURVE SMOOTH",
"218 267 LINE SMOOTH",
"218 338 OFFCURVE",
"245 380 OFFCURVE",
"365 380 CURVE SMOOTH",
"485 380 OFFCURVE",
"512 338 OFFCURVE",
"512 267 CURVE SMOOTH",
"512 22 LINE SMOOTH",
"512 7 OFFCURVE",
"526 0 OFFCURVE",
"552 0 CURVE SMOOTH",
"577 0 OFFCURVE",
"590 7 OFFCURVE",
"590 22 CURVE SMOOTH",
"590 285 LINE SMOOTH",
"590 390 OFFCURVE",
"510 451 OFFCURVE",
"365 451 CURVE SMOOTH",
"220 451 OFFCURVE",
"140 390 OFFCURVE",
"140 285 CURVE SMOOTH",
"140 22 LINE SMOOTH",
"140 7 OFFCURVE",
"154 0 OFFCURVE",
"179 0 CURVE SMOOTH"
);
},
{
closed = 1;
nodes = (
"152 430 OFFCURVE",
"180 455 OFFCURVE",
"180 470 CURVE SMOOTH",
"180 475 OFFCURVE",
"178 479 OFFCURVE",
"172 485 CURVE",
"149 510 LINE",
"142 517 OFFCURVE",
"139 523 OFFCURVE",
"139 528 CURVE SMOOTH",
"139 539 OFFCURVE",
"191 586 OFFCURVE",
"206 586 CURVE SMOOTH",
"221 586 OFFCURVE",
"324 503 OFFCURVE",
"364 503 CURVE SMOOTH",
"395 503 OFFCURVE",
"485 586 OFFCURVE",
"498 586 CURVE SMOOTH",
"511 586 OFFCURVE",
"567 541 OFFCURVE",
"596 525 CURVE",
"604 521 OFFCURVE",
"610 518 OFFCURVE",
"617 518 CURVE SMOOTH",
"638 518 OFFCURVE",
"657 545 OFFCURVE",
"657 562 CURVE SMOOTH",
"657 569 OFFCURVE",
"653 576 OFFCURVE",
"646 582 CURVE SMOOTH",
"597 624 OFFCURVE",
"525 663 OFFCURVE",
"504 663 CURVE SMOOTH",
"478 663 OFFCURVE",
"381 580 OFFCURVE",
"366 580 CURVE SMOOTH",
"351 580 OFFCURVE",
"242 663 OFFCURVE",
"218 663 CURVE SMOOTH",
"176 663 OFFCURVE",
"56 554 OFFCURVE",
"56 518 CURVE SMOOTH",
"56 504 OFFCURVE",
"81 467 OFFCURVE",
"115 438 CURVE SMOOTH",
"122 432 OFFCURVE",
"127 430 OFFCURVE",
"137 430 CURVE SMOOTH"
);
}
);
width = 730;
},
{
anchors = (
{
name = bottom;
position = "{369, 0}";
},
{
name = bottomright;
position = "{618, 0}";
},
{
name = top;
position = "{740, 660}";
},
{
name = topcenter;
position = "{370, 660}";
}
);
layerId = "A071A550-EFB7-4955-8F98-3DB7A21E0E0F";
paths = (
{
closed = 1;
nodes = (
"231 0 OFFCURVE",
"252 11 OFFCURVE",
"252 40 CURVE SMOOTH",
"252 280 LINE SMOOTH",
"252 330 OFFCURVE",
"273 362 OFFCURVE",
"369 362 CURVE SMOOTH",
"462 362 OFFCURVE",
"488 335 OFFCURVE",
"488 280 CURVE SMOOTH",
"488 40 LINE SMOOTH",
"488 11 OFFCURVE",
"509 0 OFFCURVE",
"555 0 CURVE SMOOTH",
"599 0 OFFCURVE",
"618 13 OFFCURVE",
"618 40 CURVE SMOOTH",
"618 276 LINE SMOOTH",
"618 381 OFFCURVE",
"559 451 OFFCURVE",
"374 451 CURVE SMOOTH",
"202 451 OFFCURVE",
"122 381 OFFCURVE",
"122 276 CURVE SMOOTH",
"122 40 LINE SMOOTH",
"122 11 OFFCURVE",
"143 0 OFFCURVE",
"186 0 CURVE SMOOTH"
);
},
{
closed = 1;
nodes = (
"149 398 OFFCURVE",
"199 435 OFFCURVE",
"199 462 CURVE SMOOTH",
"199 469 OFFCURVE",
"196 474 OFFCURVE",
"190 482 CURVE",
"161 511 LINE SMOOTH",
"154 518 OFFCURVE",
"151 523 OFFCURVE",
"151 526 CURVE SMOOTH",
"151 534 OFFCURVE",
"174 555 OFFCURVE",
"185 555 CURVE SMOOTH",
"198 555 OFFCURVE",
"304 484 OFFCURVE",
"337 484 CURVE SMOOTH",
"368 484 OFFCURVE",
"449 551 OFFCURVE",
"462 551 CURVE SMOOTH",
"475 551 OFFCURVE",
"513 518 OFFCURVE",
"561 490 CURVE SMOOTH",
"568 486 OFFCURVE",
"580 483 OFFCURVE",
"590 483 CURVE SMOOTH",
"628 483 OFFCURVE",
"673 522 OFFCURVE",
"673 551 CURVE SMOOTH",
"673 562 OFFCURVE",
"669 567 OFFCURVE",
"647 583 CURVE SMOOTH",
"556 648 OFFCURVE",
"517 663 OFFCURVE",
"496 663 CURVE SMOOTH",
"467 663 OFFCURVE",
"390 595 OFFCURVE",
"366 595 CURVE SMOOTH",
"339 595 OFFCURVE",
"242 663 OFFCURVE",
"218 663 CURVE SMOOTH",
"179 663 OFFCURVE",
"26 543 OFFCURVE",
"26 498 CURVE SMOOTH",
"26 484 OFFCURVE",
"43 462 OFFCURVE",
"88 415 CURVE SMOOTH",
"95 408 OFFCURVE",
"109 398 OFFCURVE",
"119 398 CURVE SMOOTH"
);
}
);
width = 740;
},
{
anchors = (
{
name = bottom;
position = "{361, 0}";
},
{
name = bottomright;
position = "{566, 0}";
},
{
name = top;
position = "{721, 660}";
},
{
name = topcenter;
position = "{361, 660}";
}
);
layerId = "EF9CD0BC-E2A6-4ABC-B2EB-28760EBC66CA";
paths = (
{
closed = 1;
nodes = (
"187 0 OFFCURVE",
"194 5 OFFCURVE",
"194 20 CURVE SMOOTH",
"194 271 LINE SMOOTH",
"194 354 OFFCURVE",
"233 412 OFFCURVE",
"361 412 CURVE SMOOTH",
"493 412 OFFCURVE",
"527 352 OFFCURVE",
"527 271 CURVE SMOOTH",
"527 20 LINE SMOOTH",
"527 5 OFFCURVE",
"534 0 OFFCURVE",
"547 0 CURVE SMOOTH",
"559 0 OFFCURVE",
"566 5 OFFCURVE",
"566 20 CURVE SMOOTH",
"566 285 LINE SMOOTH",
"566 389 OFFCURVE",
"498 451 OFFCURVE",
"364 451 CURVE SMOOTH",
"230 451 OFFCURVE",
"155 390 OFFCURVE",
"155 285 CURVE SMOOTH",
"155 20 LINE SMOOTH",
"155 5 OFFCURVE",
"162 0 OFFCURVE",
"175 0 CURVE SMOOTH"
);
},
{
closed = 1;
nodes = (
"174 436 OFFCURVE",
"186 447 OFFCURVE",
"186 458 CURVE SMOOTH",
"186 462 OFFCURVE",
"184 465 OFFCURVE",
"179 470 CURVE SMOOTH",
"132 516 LINE SMOOTH",
"124 524 OFFCURVE",
"119 531 OFFCURVE",
"119 534 CURVE SMOOTH",
"119 547 OFFCURVE",
"194 620 OFFCURVE",
"209 620 CURVE SMOOTH",
"224 620 OFFCURVE",
"329 539 OFFCURVE",
"360 539 CURVE SMOOTH",
"383 539 OFFCURVE",
"482 620 OFFCURVE",
"495 620 CURVE SMOOTH",
"508 620 OFFCURVE",
"559 577 OFFCURVE",
"597 553 CURVE SMOOTH",
"605 548 OFFCURVE",
"610 546 OFFCURVE",
"615 546 CURVE SMOOTH",
"624 546 OFFCURVE",
"635 560 OFFCURVE",
"635 569 CURVE SMOOTH",
"635 574 OFFCURVE",
"634 576 OFFCURVE",
"627 582 CURVE",
"576 621 OFFCURVE",
"510 663 OFFCURVE",
"497 663 CURVE SMOOTH",
"477 663 OFFCURVE",
"376 580 OFFCURVE",
"361 580 CURVE SMOOTH",
"346 580 OFFCURVE",
"230 663 OFFCURVE",
"213 663 CURVE SMOOTH",
"184 663 OFFCURVE",
"75 560 OFFCURVE",
"75 530 CURVE SMOOTH",
"75 516 OFFCURVE",
"103 485 OFFCURVE",
"147 444 CURVE",
"154 438 OFFCURVE",
"159 436 OFFCURVE",
"163 436 CURVE SMOOTH"
);
}
);
width = 721;
}
);
note = uni1780;
unicode = 1780;
},
{
glyphname = "kha-khmer";
lastChange = "2018-12-17 08:25:10 +0000";
layers = (
{
anchors = (
{
name = bottom;
position = "{365, 0}";
},
{
name = bottomright;
position = "{590, 0}";
},
{
name = top;
position = "{730, 660}";
},
{
name = topcenter;
position = "{365, 660}";
}
);
layerId = "C00489B0-D6FE-4186-8C18-D0EE90D80B61";
paths = (
{
closed = 1;
nodes = (
"510 0 OFFCURVE",
"590 61 OFFCURVE",
"590 166 CURVE SMOOTH",
"590 256 LINE SMOOTH",
"590 272 OFFCURVE",
"577 279 OFFCURVE",
"551 279 CURVE SMOOTH",
"526 279 OFFCURVE",
"512 272 OFFCURVE",
"512 256 CURVE SMOOTH",
"512 184 LINE SMOOTH",
"512 112 OFFCURVE",
"485 70 OFFCURVE",
"362 70 CURVE SMOOTH",
"252 70 OFFCURVE",
"215 94 OFFCURVE",
"215 136 CURVE SMOOTH",
"215 239 OFFCURVE",
"600 290 OFFCURVE",
"600 494 CURVE SMOOTH",
"600 599 OFFCURVE",
"526 663 OFFCURVE",
"365 663 CURVE SMOOTH",
"183 663 OFFCURVE",
"130 585 OFFCURVE",
"130 494 CURVE SMOOTH",
"130 406 OFFCURVE",
"185 371 OFFCURVE",
"248 371 CURVE SMOOTH",
"286 371 OFFCURVE",
"306 392 OFFCURVE",
"306 426 CURVE SMOOTH",
"306 439 OFFCURVE",
"302 446 OFFCURVE",
"296 446 CURVE SMOOTH",
"290 446 OFFCURVE",
"285 439 OFFCURVE",
"257 439 CURVE SMOOTH",
"227 439 OFFCURVE",
"204 458 OFFCURVE",
"204 494 CURVE SMOOTH",
"204 561 OFFCURVE",
"245 592 OFFCURVE",
"365 592 CURVE SMOOTH",
"487 592 OFFCURVE",
"518 558 OFFCURVE",
"518 493 CURVE SMOOTH",
"518 333 OFFCURVE",
"134 299 OFFCURVE",
"134 136 CURVE SMOOTH",
"134 50 OFFCURVE",
"188 0 OFFCURVE",
"362 0 CURVE SMOOTH"
);
}
);
width = 730;
},
{
anchors = (
{
name = bottom;
position = "{369, 0}";
},
{
name = bottomright;
position = "{618, 0}";
},
{
name = top;
position = "{740, 660}";
},
{
name = topcenter;
position = "{370, 660}";
}
);
layerId = "A071A550-EFB7-4955-8F98-3DB7A21E0E0F";
paths = (
{
closed = 1;
nodes = (
"541 0 OFFCURVE",
"618 61 OFFCURVE",
"618 166 CURVE SMOOTH",
"618 220 LINE SMOOTH",
"618 248 OFFCURVE",
"596 259 OFFCURVE",
"554 259 CURVE SMOOTH",
"509 259 OFFCURVE",
"488 248 OFFCURVE",
"488 220 CURVE SMOOTH",
"488 185 LINE SMOOTH",
"488 106 OFFCURVE",
"476 89 OFFCURVE",
"368 89 CURVE SMOOTH",
"276 89 OFFCURVE",
"245 103 OFFCURVE",
"245 149 CURVE SMOOTH",
"245 274 OFFCURVE",
"631 266 OFFCURVE",
"631 495 CURVE SMOOTH",
"631 600 OFFCURVE",
"568 663 OFFCURVE",
"371 663 CURVE SMOOTH",
"165 663 OFFCURVE",
"110 587 OFFCURVE",
"110 496 CURVE SMOOTH",
"110 414 OFFCURVE",
"158 365 OFFCURVE",
"221 365 CURVE SMOOTH",
"266 365 OFFCURVE",
"301 392 OFFCURVE",
"301 441 CURVE SMOOTH",
"301 458 OFFCURVE",
"297 463 OFFCURVE",
"291 463 CURVE SMOOTH",
"285 463 OFFCURVE",
"277 462 OFFCURVE",
"268 462 CURVE SMOOTH",
"246 462 OFFCURVE",
"226 473 OFFCURVE",
"226 500 CURVE SMOOTH",
"226 550 OFFCURVE",
"251 574 OFFCURVE",
"371 574 CURVE SMOOTH",
"475 574 OFFCURVE",
"498 539 OFFCURVE",
"498 495 CURVE SMOOTH",
"498 349 OFFCURVE",
"114 364 OFFCURVE",
"114 153 CURVE SMOOTH",
"114 50 OFFCURVE",
"179 0 OFFCURVE",
"368 0 CURVE SMOOTH"
);
}
);
width = 740;
},
{
anchors = (
{
name = bottom;
position = "{361, 0}";
},
{
name = bottomright;
position = "{566, 0}";
},
{
name = top;
position = "{721, 660}";
},
{
name = topcenter;
position = "{361, 660}";
}
);
layerId = "EF9CD0BC-E2A6-4ABC-B2EB-28760EBC66CA";
paths = (
{
closed = 1;
nodes = (
"495 0 OFFCURVE",
"566 61 OFFCURVE",
"566 166 CURVE SMOOTH",
"566 259 LINE SMOOTH",
"566 274 OFFCURVE",
"559 279 OFFCURVE",
"546 279 CURVE SMOOTH",
"534 279 OFFCURVE",
"527 274 OFFCURVE",
"527 259 CURVE SMOOTH",
"527 180 LINE SMOOTH",
"527 99 OFFCURVE",
"493 39 OFFCURVE",
"357 39 CURVE SMOOTH",
"232 39 OFFCURVE",
"192 70 OFFCURVE",
"192 129 CURVE SMOOTH",
"192 282 OFFCURVE",
"574 293 OFFCURVE",
"574 494 CURVE SMOOTH",
"574 599 OFFCURVE",
"502 663 OFFCURVE",
"360 663 CURVE SMOOTH",
"208 663 OFFCURVE",
"146 585 OFFCURVE",
"146 494 CURVE SMOOTH",
"146 419 OFFCURVE",
"191 384 OFFCURVE",
"254 384 CURVE SMOOTH",
"286 384 OFFCURVE",
"301 397 OFFCURVE",
"301 418 CURVE SMOOTH",
"301 427 OFFCURVE",
"297 433 OFFCURVE",
"291 433 CURVE SMOOTH",
"285 433 OFFCURVE",
"279 424 OFFCURVE",
"255 424 CURVE SMOOTH",
"207 424 OFFCURVE",
"188 453 OFFCURVE",
"188 494 CURVE SMOOTH",
"188 578 OFFCURVE",
"240 624 OFFCURVE",
"360 624 CURVE SMOOTH",
"482 624 OFFCURVE",
"532 576 OFFCURVE",
"532 493 CURVE SMOOTH",
"532 322 OFFCURVE",
"150 307 OFFCURVE",
"150 129 CURVE SMOOTH",
"150 51 OFFCURVE",
"193 0 OFFCURVE",
"357 0 CURVE SMOOTH"
);
}
);
width = 721;
}
);
note = uni1781;
unicode = 1781;
},
{
glyphname = "ko-khmer";
lastChange = "2018-12-17 08:25:10 +0000";
layers = (
{
anchors = (
{
name = bottom;
position = "{365, 0}";
},
{
name = bottomright;
position = "{590, 0}";
},
{
name = top;
position = "{730, 660}";
},
{
name = topcenter;
position = "{365, 660}";
}
);
layerId = "C00489B0-D6FE-4186-8C18-D0EE90D80B61";
paths = (
{
closed = 1;
nodes = (
"199 0 OFFCURVE",
"212 4 OFFCURVE",
"216 15 CURVE",
"301 149 OFFCURVE",
"326 173 OFFCURVE",
"373 173 CURVE SMOOTH",
"391 173 OFFCURVE",
"408 180 OFFCURVE",
"408 208 CURVE SMOOTH",
"408 236 OFFCURVE",
"395 247 OFFCURVE",
"370 247 CURVE SMOOTH",
"312 247 OFFCURVE",
"271 215 OFFCURVE",
"218 125 CURVE",
"218 267 LINE SMOOTH",
"218 338 OFFCURVE",
"245 380 OFFCURVE",
"365 380 CURVE SMOOTH",
"485 380 OFFCURVE",
"512 338 OFFCURVE",
"512 267 CURVE SMOOTH",
"512 22 LINE SMOOTH",
"512 7 OFFCURVE",
"526 0 OFFCURVE",
"552 0 CURVE SMOOTH",
"577 0 OFFCURVE",
"590 7 OFFCURVE",
"590 22 CURVE SMOOTH",
"590 285 LINE SMOOTH",
"590 390 OFFCURVE",
"510 451 OFFCURVE",
"365 451 CURVE SMOOTH",
"220 451 OFFCURVE",
"140 390 OFFCURVE",
"140 285 CURVE SMOOTH",
"140 22 LINE SMOOTH",
"140 7 OFFCURVE",
"154 0 OFFCURVE",
"179 0 CURVE SMOOTH"
);
},
{
closed = 1;
nodes = (
"152 430 OFFCURVE",
"180 455 OFFCURVE",
"180 470 CURVE SMOOTH",
"180 475 OFFCURVE",
"178 479 OFFCURVE",
"172 485 CURVE",
"149 510 LINE",
"142 517 OFFCURVE",
"139 523 OFFCURVE",
"139 528 CURVE SMOOTH",
"139 539 OFFCURVE",
"191 586 OFFCURVE",
"206 586 CURVE SMOOTH",
"221 586 OFFCURVE",
"324 503 OFFCURVE",
"364 503 CURVE SMOOTH",
"395 503 OFFCURVE",
"485 586 OFFCURVE",
"498 586 CURVE SMOOTH",
"511 586 OFFCURVE",
"567 541 OFFCURVE",
"596 525 CURVE",
"604 521 OFFCURVE",
"610 518 OFFCURVE",
"617 518 CURVE SMOOTH",
"638 518 OFFCURVE",
"657 545 OFFCURVE",
"657 562 CURVE SMOOTH",
"657 569 OFFCURVE",
"653 576 OFFCURVE",
"646 582 CURVE SMOOTH",
"597 624 OFFCURVE",
"525 663 OFFCURVE",
"504 663 CURVE SMOOTH",
"478 663 OFFCURVE",
"381 580 OFFCURVE",
"366 580 CURVE SMOOTH",
"351 580 OFFCURVE",
"242 663 OFFCURVE",
"218 663 CURVE SMOOTH",
"176 663 OFFCURVE",
"56 554 OFFCURVE",
"56 518 CURVE SMOOTH",
"56 504 OFFCURVE",
"81 467 OFFCURVE",
"115 438 CURVE SMOOTH",
"122 432 OFFCURVE",
"127 430 OFFCURVE",
"137 430 CURVE SMOOTH"
);
}
);
width = 730;
},
{
anchors = (
{
name = bottom;
position = "{369, 0}";
},
{
name = bottomright;
position = "{618, 0}";
},
{
name = top;
position = "{740, 660}";
},
{
name = topcenter;
position = "{370, 660}";
}
);
layerId = "A071A550-EFB7-4955-8F98-3DB7A21E0E0F";
paths = (
{
closed = 1;
nodes = (
"224 0 OFFCURVE",
"240 8 OFFCURVE",
"255 36 CURVE",
"302 152 OFFCURVE",
"321 156 OFFCURVE",
"376 156 CURVE SMOOTH",
"410 156 OFFCURVE",
"427 174 OFFCURVE",
"427 212 CURVE SMOOTH",
"427 255 OFFCURVE",
"408 272 OFFCURVE",
"368 272 CURVE SMOOTH",
"322 272 OFFCURVE",
"287 246 OFFCURVE",
"252 167 CURVE",
"252 280 LINE SMOOTH",
"252 333 OFFCURVE",
"275 362 OFFCURVE",
"371 362 CURVE SMOOTH",
"464 362 OFFCURVE",
"488 334 OFFCURVE",
"488 280 CURVE SMOOTH",
"488 40 LINE SMOOTH",
"488 11 OFFCURVE",
"509 0 OFFCURVE",
"555 0 CURVE SMOOTH",
"599 0 OFFCURVE",
"618 13 OFFCURVE",
"618 40 CURVE SMOOTH",
"618 276 LINE SMOOTH",
"618 381 OFFCURVE",
"559 451 OFFCURVE",
"374 451 CURVE SMOOTH",
"202 451 OFFCURVE",
"122 381 OFFCURVE",
"122 276 CURVE SMOOTH",
"122 40 LINE SMOOTH",
"122 11 OFFCURVE",
"143 0 OFFCURVE",
"186 0 CURVE SMOOTH"
);
},
{
closed = 1;
nodes = (
"149 398 OFFCURVE",
"199 435 OFFCURVE",
"199 462 CURVE SMOOTH",
"199 469 OFFCURVE",
"196 474 OFFCURVE",
"190 482 CURVE",
"161 511 LINE SMOOTH",
"154 518 OFFCURVE",
"151 523 OFFCURVE",
"151 526 CURVE SMOOTH",
"151 534 OFFCURVE",
"174 555 OFFCURVE",
"185 555 CURVE SMOOTH",
"198 555 OFFCURVE",
"304 484 OFFCURVE",
"337 484 CURVE SMOOTH",
"368 484 OFFCURVE",
"449 551 OFFCURVE",
"462 551 CURVE SMOOTH",
"475 551 OFFCURVE",
"513 518 OFFCURVE",
"561 490 CURVE SMOOTH",
"568 486 OFFCURVE",
"580 483 OFFCURVE",
"590 483 CURVE SMOOTH",
"628 483 OFFCURVE",
"673 522 OFFCURVE",
"673 551 CURVE SMOOTH",
"673 562 OFFCURVE",
"669 567 OFFCURVE",
"647 583 CURVE SMOOTH",
"556 648 OFFCURVE",
"517 663 OFFCURVE",
"496 663 CURVE SMOOTH",
"467 663 OFFCURVE",
"390 595 OFFCURVE",
"366 595 CURVE SMOOTH",
"339 595 OFFCURVE",
"242 663 OFFCURVE",
"218 663 CURVE SMOOTH",
"179 663 OFFCURVE",
"26 543 OFFCURVE",
"26 498 CURVE SMOOTH",
"26 484 OFFCURVE",
"43 462 OFFCURVE",
"88 415 CURVE SMOOTH",
"95 408 OFFCURVE",
"109 398 OFFCURVE",
"119 398 CURVE SMOOTH"
);
}
);
width = 740;
},
{
anchors = (
{
name = bottom;
position = "{361, 0}";
},
{
name = bottomright;
position = "{566, 0}";
},
{
name = top;
position = "{721, 660}";
},
{
name = topcenter;
position = "{361, 660}";
}
);
layerId = "EF9CD0BC-E2A6-4ABC-B2EB-28760EBC66CA";
paths = (
{
closed = 1;
nodes = (
"185 0 OFFCURVE",
"190 4 OFFCURVE",
"194 10 CURVE SMOOTH",
"291 164 OFFCURVE",
"321 189 OFFCURVE",
"368 189 CURVE SMOOTH",
"384 189 OFFCURVE",
"389 197 OFFCURVE",
"389 211 CURVE SMOOTH",
"389 224 OFFCURVE",
"384 231 OFFCURVE",
"365 231 CURVE SMOOTH",
"311 231 OFFCURVE",
"265 188 OFFCURVE",
"194 65 CURVE",
"194 271 LINE SMOOTH",
"194 354 OFFCURVE",
"233 412 OFFCURVE",
"361 412 CURVE SMOOTH",
"493 412 OFFCURVE",
"527 352 OFFCURVE",
"527 271 CURVE SMOOTH",
"527 20 LINE SMOOTH",
"527 5 OFFCURVE",
"534 0 OFFCURVE",
"547 0 CURVE SMOOTH",
"559 0 OFFCURVE",
"566 5 OFFCURVE",
"566 20 CURVE SMOOTH",
"566 285 LINE SMOOTH",
"566 390 OFFCURVE",
"498 451 OFFCURVE",
"364 451 CURVE SMOOTH",
"230 451 OFFCURVE",
"155 390 OFFCURVE",
"155 285 CURVE SMOOTH",
"155 20 LINE SMOOTH",
"155 5 OFFCURVE",
"162 0 OFFCURVE",
"175 0 CURVE SMOOTH"
);
},
{
closed = 1;
nodes = (
"174 436 OFFCURVE",
"186 447 OFFCURVE",
"186 458 CURVE SMOOTH",
"186 462 OFFCURVE",
"184 465 OFFCURVE",
"179 470 CURVE SMOOTH",
"132 516 LINE SMOOTH",
"124 524 OFFCURVE",
"119 531 OFFCURVE",
"119 534 CURVE SMOOTH",
"119 547 OFFCURVE",
"194 620 OFFCURVE",
"209 620 CURVE SMOOTH",
"224 620 OFFCURVE",
"329 539 OFFCURVE",
"360 539 CURVE SMOOTH",
"383 539 OFFCURVE",
"482 620 OFFCURVE",
"495 620 CURVE SMOOTH",
"508 620 OFFCURVE",
"559 577 OFFCURVE",
"597 553 CURVE SMOOTH",
"605 548 OFFCURVE",
"610 546 OFFCURVE",
"615 546 CURVE SMOOTH",
"624 546 OFFCURVE",
"635 560 OFFCURVE",
"635 569 CURVE SMOOTH",
"635 574 OFFCURVE",
"634 576 OFFCURVE",
"627 582 CURVE",
"576 621 OFFCURVE",
"510 663 OFFCURVE",
"497 663 CURVE SMOOTH",
"477 663 OFFCURVE",
"376 580 OFFCURVE",
"361 580 CURVE SMOOTH",
"346 580 OFFCURVE",
"230 663 OFFCURVE",
"213 663 CURVE SMOOTH",
"184 663 OFFCURVE",
"75 560 OFFCURVE",
"75 530 CURVE SMOOTH",
"75 516 OFFCURVE",
"103 485 OFFCURVE",
"147 444 CURVE",
"154 438 OFFCURVE",
"159 436 OFFCURVE",
"163 436 CURVE SMOOTH"
);
}
);
width = 721;
}
);
note = uni1782;
unicode = 1782;
},
{
glyphname = "kho-khmer";
lastChange = "2018-12-17 08:25:10 +0000";
layers = (
{
anchors = (
{
name = bottom;
position = "{738, 0}";
},
{
name = bottomright;
position = "{963, 0}";
},
{
name = top;
position = "{1103, 660}";
},
{
name = topcenter;
position = "{738, 660}";
}
);
layerId = "C00489B0-D6FE-4186-8C18-D0EE90D80B61";
paths = (
{
closed = 1;
nodes = (
"451 0 OFFCURVE",
"516 21 OFFCURVE",
"551 67 CURVE",
"585 21 OFFCURVE",
"652 0 OFFCURVE",
"738 0 CURVE SMOOTH",
"883 0 OFFCURVE",
"963 61 OFFCURVE",
"963 166 CURVE SMOOTH",
"963 424 LINE SMOOTH",
"963 468 OFFCURVE",
"947 485 OFFCURVE",
"870 528 CURVE SMOOTH",
"861 533 OFFCURVE",
"858 537 OFFCURVE",
"858 541 CURVE SMOOTH",
"858 551 OFFCURVE",
"889 590 OFFCURVE",
"903 590 CURVE SMOOTH",
"926 590 OFFCURVE",
"992 554 OFFCURVE",
"1013 554 CURVE SMOOTH",
"1035 554 OFFCURVE",
"1058 586 OFFCURVE",
"1058 598 CURVE SMOOTH",
"1058 605 OFFCURVE",
"1054 610 OFFCURVE",
"1045 615 CURVE SMOOTH",
"995 642 OFFCURVE",
"929 663 OFFCURVE",
"912 663 CURVE SMOOTH",
"870 663 OFFCURVE",
"777 551 OFFCURVE",
"777 521 CURVE SMOOTH",
"777 509 OFFCURVE",
"785 502 OFFCURVE",
"799 494 CURVE",
"878 445 OFFCURVE",
"885 437 OFFCURVE",
"885 408 CURVE SMOOTH",
"885 184 LINE SMOOTH",
"885 112 OFFCURVE",
"857 70 OFFCURVE",
"738 70 CURVE SMOOTH",
"618 70 OFFCURVE",
"590 112 OFFCURVE",
"590 184 CURVE SMOOTH",
"590 424 LINE SMOOTH",
"590 468 OFFCURVE",
"575 485 OFFCURVE",
"498 528 CURVE SMOOTH",
"489 533 OFFCURVE",
"485 537 OFFCURVE",
"485 541 CURVE SMOOTH",
"485 551 OFFCURVE",
"517 590 OFFCURVE",
"530 590 CURVE SMOOTH",
"554 590 OFFCURVE",
"619 554 OFFCURVE",
"640 554 CURVE SMOOTH",
"662 554 OFFCURVE",
"685 586 OFFCURVE",
"685 598 CURVE SMOOTH",
"685 605 OFFCURVE",
"681 610 OFFCURVE",
"672 615 CURVE SMOOTH",
"623 642 OFFCURVE",
"556 663 OFFCURVE",
"539 663 CURVE SMOOTH",
"498 663 OFFCURVE",
"404 551 OFFCURVE",
"404 521 CURVE SMOOTH",
"404 509 OFFCURVE",
"413 502 OFFCURVE",
"426 494 CURVE SMOOTH",
"506 445 OFFCURVE",
"512 437 OFFCURVE",
"512 408 CURVE SMOOTH",
"512 184 LINE SMOOTH",
"512 112 OFFCURVE",
"485 70 OFFCURVE",
"365 70 CURVE SMOOTH",
"245 70 OFFCURVE",
"218 112 OFFCURVE",
"218 184 CURVE SMOOTH",
"218 545 LINE SMOOTH",
"218 633 OFFCURVE",
"185 663 OFFCURVE",
"115 663 CURVE SMOOTH",
"42 663 OFFCURVE",
"-12 608 OFFCURVE",
"-12 535 CURVE SMOOTH",
"-12 477 OFFCURVE",
"31 435 OFFCURVE",
"87 435 CURVE SMOOTH",
"110 435 OFFCURVE",
"122 445 OFFCURVE",
"122 481 CURVE SMOOTH",
"122 496 OFFCURVE",
"114 500 OFFCURVE",
"101 500 CURVE SMOOTH",
"79 500 OFFCURVE",
"60 512 OFFCURVE",
"60 542 CURVE SMOOTH",
"60 576 OFFCURVE",
"78 598 OFFCURVE",
"106 598 CURVE SMOOTH",
"126 598 OFFCURVE",
"140 592 OFFCURVE",
"140 548 CURVE SMOOTH",
"140 166 LINE SMOOTH",
"140 61 OFFCURVE",
"220 0 OFFCURVE",
"365 0 CURVE SMOOTH"
);
}
);
width = 1103;
},
{
anchors = (
{
name = bottom;
position = "{735, 0}";
},
{
name = bottomright;
position = "{984, 0}";
},
{
name = top;
position = "{1109, 660}";
},
{
name = topcenter;
position = "{736, 660}";
}
);
layerId = "A071A550-EFB7-4955-8F98-3DB7A21E0E0F";
paths = (
{
closed = 1;
nodes = (
"448 0 OFFCURVE",
"511 16 OFFCURVE",
"551 53 CURVE",
"586 16 OFFCURVE",
"647 0 OFFCURVE",
"738 0 CURVE SMOOTH",
"910 0 OFFCURVE",
"984 70 OFFCURVE",
"984 175 CURVE SMOOTH",
"984 371 LINE SMOOTH",
"984 454 OFFCURVE",
"974 470 OFFCURVE",
"873 526 CURVE",
"869 528 OFFCURVE",
"867 531 OFFCURVE",
"867 533 CURVE SMOOTH",
"867 539 OFFCURVE",
"876 552 OFFCURVE",
"883 552 CURVE SMOOTH",
"896 552 OFFCURVE",
"973 512 OFFCURVE",
"992 512 CURVE SMOOTH",
"1019 512 OFFCURVE",
"1061 571 OFFCURVE",
"1061 589 CURVE SMOOTH",
"1061 599 OFFCURVE",
"1057 607 OFFCURVE",
"1047 613 CURVE",
"1025 628 OFFCURVE",
"926 663 OFFCURVE",
"899 663 CURVE SMOOTH",
"856 663 OFFCURVE",
"762 534 OFFCURVE",
"762 494 CURVE SMOOTH",
"762 485 OFFCURVE",
"765 472 OFFCURVE",
"813 443 CURVE SMOOTH",
"854 417 OFFCURVE",
"854 404 OFFCURVE",
"854 354 CURVE SMOOTH",
"854 170 LINE SMOOTH",
"854 121 OFFCURVE",
"833 89 OFFCURVE",
"736 89 CURVE SMOOTH",
"643 89 OFFCURVE",
"618 116 OFFCURVE",
"618 170 CURVE SMOOTH",
"618 371 LINE SMOOTH",
"618 454 OFFCURVE",
"608 470 OFFCURVE",
"507 526 CURVE",
"503 528 OFFCURVE",
"501 531 OFFCURVE",
"501 533 CURVE SMOOTH",
"501 539 OFFCURVE",
"510 552 OFFCURVE",
"517 552 CURVE SMOOTH",
"530 552 OFFCURVE",
"607 512 OFFCURVE",
"626 512 CURVE SMOOTH",
"653 512 OFFCURVE",
"695 571 OFFCURVE",
"695 589 CURVE SMOOTH",
"695 599 OFFCURVE",
"691 607 OFFCURVE",
"681 613 CURVE",
"659 628 OFFCURVE",
"560 663 OFFCURVE",
"533 663 CURVE SMOOTH",
"490 663 OFFCURVE",
"396 534 OFFCURVE",
"396 494 CURVE SMOOTH",
"396 485 OFFCURVE",
"399 472 OFFCURVE",
"447 443 CURVE SMOOTH",
"488 417 OFFCURVE",
"488 404 OFFCURVE",
"488 354 CURVE SMOOTH",
"488 170 LINE SMOOTH",
"488 121 OFFCURVE",
"467 89 OFFCURVE",
"371 89 CURVE SMOOTH",
"278 89 OFFCURVE",
"252 116 OFFCURVE",
"252 170 CURVE SMOOTH",
"252 555 LINE SMOOTH",
"252 628 OFFCURVE",
"208 663 OFFCURVE",
"137 663 CURVE SMOOTH",
"59 663 OFFCURVE",
"4 620 OFFCURVE",
"4 524 CURVE SMOOTH",
"4 445 OFFCURVE",
"41 412 OFFCURVE",
"74 412 CURVE SMOOTH",
"100 412 OFFCURVE",
"115 437 OFFCURVE",
"115 473 CURVE SMOOTH",
"115 486 OFFCURVE",
"112 488 OFFCURVE",
"105 490 CURVE SMOOTH",
"97 492 OFFCURVE",
"91 496 OFFCURVE",
"91 536 CURVE SMOOTH",
"91 578 OFFCURVE",
"97 588 OFFCURVE",
"111 588 CURVE SMOOTH",
"120 588 OFFCURVE",
"122 585 OFFCURVE",
"122 576 CURVE SMOOTH",
"122 175 LINE SMOOTH",
"122 70 OFFCURVE",
"181 0 OFFCURVE",
"366 0 CURVE SMOOTH"
);
}
);
width = 1109;
},
{
anchors = (
{
name = bottom;
position = "{734, 0}";
},
{
name = bottomright;
position = "{943, 0}";
},
{
name = top;
position = "{1098, 660}";
},
{
name = topcenter;
position = "{734, 660}";
}
);
layerId = "EF9CD0BC-E2A6-4ABC-B2EB-28760EBC66CA";
paths = (
{
closed = 1;
nodes = (
"458 0 OFFCURVE",
"522 31 OFFCURVE",
"551 87 CURVE",
"577 31 OFFCURVE",
"638 0 OFFCURVE",
"734 0 CURVE SMOOTH",
"868 0 OFFCURVE",
"943 61 OFFCURVE",
"943 166 CURVE SMOOTH",
"943 421 LINE SMOOTH",
"943 463 OFFCURVE",
"924 483 OFFCURVE",
"859 523 CURVE SMOOTH",
"845 532 OFFCURVE",
"844 534 OFFCURVE",
"844 538 CURVE SMOOTH",
"844 551 OFFCURVE",
"901 620 OFFCURVE",
"916 620 CURVE SMOOTH",
"943 620 OFFCURVE",
"999 585 OFFCURVE",
"1016 585 CURVE SMOOTH",
"1025 585 OFFCURVE",
"1038 599 OFFCURVE",
"1038 610 CURVE SMOOTH",
"1038 615 OFFCURVE",
"1036 618 OFFCURVE",
"1028 622 CURVE",
"942 659 OFFCURVE",
"929 663 OFFCURVE",
"918 663 CURVE SMOOTH",
"889 663 OFFCURVE",
"799 560 OFFCURVE",
"799 530 CURVE SMOOTH",
"799 521 OFFCURVE",
"803 513 OFFCURVE",
"826 498 CURVE SMOOTH",
"894 452 OFFCURVE",
"904 445 OFFCURVE",
"904 410 CURVE SMOOTH",
"904 180 LINE SMOOTH",
"904 97 OFFCURVE",
"865 39 OFFCURVE",
"737 39 CURVE SMOOTH",
"605 39 OFFCURVE",
"571 99 OFFCURVE",
"571 180 CURVE SMOOTH",
"571 421 LINE SMOOTH",
"571 463 OFFCURVE",
"552 483 OFFCURVE",
"487 523 CURVE SMOOTH",
"473 532 OFFCURVE",
"472 534 OFFCURVE",
"472 538 CURVE SMOOTH",
"472 551 OFFCURVE",
"529 620 OFFCURVE",
"544 620 CURVE SMOOTH",
"572 620 OFFCURVE",
"626 585 OFFCURVE",
"644 585 CURVE SMOOTH",
"653 585 OFFCURVE",
"666 599 OFFCURVE",
"666 610 CURVE SMOOTH",
"666 615 OFFCURVE",
"664 618 OFFCURVE",
"656 622 CURVE",
"570 659 OFFCURVE",
"557 663 OFFCURVE",
"546 663 CURVE SMOOTH",
"517 663 OFFCURVE",
"427 560 OFFCURVE",
"427 530 CURVE SMOOTH",
"427 521 OFFCURVE",
"431 513 OFFCURVE",
"454 498 CURVE SMOOTH",
"522 452 OFFCURVE",
"532 445 OFFCURVE",
"532 410 CURVE SMOOTH",
"532 180 LINE SMOOTH",
"532 97 OFFCURVE",
"493 39 OFFCURVE",
"365 39 CURVE SMOOTH",
"233 39 OFFCURVE",
"199 99 OFFCURVE",
"199 180 CURVE SMOOTH",
"199 571 LINE SMOOTH",
"199 641 OFFCURVE",
"161 663 OFFCURVE",
"113 663 CURVE SMOOTH",
"56 663 OFFCURVE",
"13 623 OFFCURVE",
"13 550 CURVE SMOOTH",
"13 492 OFFCURVE",
"46 458 OFFCURVE",
"109 458 CURVE SMOOTH",
"125 458 OFFCURVE",
"133 465 OFFCURVE",
"133 480 CURVE SMOOTH",
"133 493 OFFCURVE",
"128 497 OFFCURVE",
"113 497 CURVE SMOOTH",
"71 497 OFFCURVE",
"54 516 OFFCURVE",
"54 553 CURVE SMOOTH",
"54 603 OFFCURVE",
"76 626 OFFCURVE",
"111 626 CURVE SMOOTH",
"144 626 OFFCURVE",
"160 609 OFFCURVE",
"160 568 CURVE SMOOTH",
"160 166 LINE SMOOTH",
"160 61 OFFCURVE",
"228 0 OFFCURVE",
"362 0 CURVE SMOOTH"
);
}
);
width = 1098;
}
);
note = uni1783;
unicode = 1783;
},
{
color = 5;
glyphname = "ngo-khmer";
lastChange = "2019-02-26 07:52:20 +0000";
layers = (
{
anchors = (
{
name = bottom;
position = "{402, 0}";
},
{
name = bottomright;
position = "{627, 0}";
},
{
name = top;
position = "{767, 660}";
},
{
name = topcenter;
position = "{402, 660}";
}
);
layerId = "C00489B0-D6FE-4186-8C18-D0EE90D80B61";
paths = (
{
closed = 1;
nodes = (
"231 0 OFFCURVE",
"250 8 OFFCURVE",
"272 20 CURVE SMOOTH",
"371 76 LINE SMOOTH",
"387 85 OFFCURVE",
"393 87 OFFCURVE",
"397 87 CURVE SMOOTH",
"401 87 OFFCURVE",
"410 85 OFFCURVE",
"426 76 CURVE SMOOTH",
"525 20 LINE SMOOTH",
"551 5 OFFCURVE",
"570 0 OFFCURVE",
"588 0 CURVE SMOOTH",
"616 0 OFFCURVE",
"627 13 OFFCURVE",
"627 37 CURVE SMOOTH",
"627 362 LINE SMOOTH",
"627 449 OFFCURVE",
"588 473 OFFCURVE",
"488 511 CURVE",
"501 531 OFFCURVE",
"509 553 OFFCURVE",
"509 576 CURVE SMOOTH",
"509 632 OFFCURVE",
"472 663 OFFCURVE",
"415 663 CURVE SMOOTH",
"352 663 OFFCURVE",
"315 629 OFFCURVE",
"315 574 CURVE SMOOTH",
"315 538 OFFCURVE",
"330 515 OFFCURVE",
"353 499 CURVE",
"350 498 OFFCURVE",
"346 498 OFFCURVE",
"342 498 CURVE SMOOTH",
"277 498 OFFCURVE",
"251 523 OFFCURVE",
"251 571 CURVE SMOOTH",
"251 589 OFFCURVE",
"253 625 OFFCURVE",
"253 642 CURVE SMOOTH",
"253 705 OFFCURVE",
"225 732 OFFCURVE",
"142 732 CURVE SMOOTH",
"115 732 OFFCURVE",
"103 722 OFFCURVE",
"103 693 CURVE SMOOTH",
"103 669 OFFCURVE",
"114 662 OFFCURVE",
"127 662 CURVE SMOOTH",
"170 662 OFFCURVE",
"179 654 OFFCURVE",
"179 628 CURVE SMOOTH",
"179 612 OFFCURVE",
"177 571 OFFCURVE",
"177 553 CURVE SMOOTH",
"177 497 OFFCURVE",
"208 441 OFFCURVE",
"331 441 CURVE SMOOTH",
"366 441 OFFCURVE",
"398 449 OFFCURVE",
"427 464 CURVE",
"522 429 OFFCURVE",
"549 414 OFFCURVE",
"549 358 CURVE SMOOTH",
"549 100 LINE SMOOTH",
"549 95 OFFCURVE",
"548 92 OFFCURVE",
"544 92 CURVE SMOOTH",
"541 92 OFFCURVE",
"533 96 OFFCURVE",
"525 100 CURVE",
"432 153 LINE",
"416 163 OFFCURVE",
"408 165 OFFCURVE",
"402 165 CURVE SMOOTH",
"396 165 OFFCURVE",
"389 163 OFFCURVE",
"372 153 CURVE SMOOTH",
"279 100 LINE",
"271 96 OFFCURVE",
"263 92 OFFCURVE",
"260 92 CURVE SMOOTH",
"256 92 OFFCURVE",
"255 95 OFFCURVE",
"255 100 CURVE SMOOTH",
"255 292 LINE SMOOTH",
"255 380 OFFCURVE",
"222 409 OFFCURVE",
"152 409 CURVE SMOOTH",
"79 409 OFFCURVE",
"25 355 OFFCURVE",
"25 281 CURVE SMOOTH",
"25 223 OFFCURVE",
"68 181 OFFCURVE",
"124 181 CURVE SMOOTH",
"147 181 OFFCURVE",
"159 192 OFFCURVE",
"159 227 CURVE SMOOTH",
"159 242 OFFCURVE",
"151 246 OFFCURVE",
"138 246 CURVE SMOOTH",
"116 246 OFFCURVE",
"97 258 OFFCURVE",
"97 288 CURVE SMOOTH",
"97 322 OFFCURVE",
"115 344 OFFCURVE",
"143 344 CURVE SMOOTH",
"163 344 OFFCURVE",
"177 338 OFFCURVE",
"177 295 CURVE SMOOTH",
"177 37 LINE SMOOTH",
"177 13 OFFCURVE",
"188 0 OFFCURVE",
"215 0 CURVE SMOOTH"
);
},
{
closed = 1;
nodes = (
"391 541 OFFCURVE",
"379 556 OFFCURVE",
"379 578 CURVE SMOOTH",
"379 595 OFFCURVE",
"390 608 OFFCURVE",
"411 608 CURVE SMOOTH",
"433 608 OFFCURVE",
"444 594 OFFCURVE",
"444 575 CURVE SMOOTH",
"444 559 OFFCURVE",
"438 539 OFFCURVE",
"426 525 CURVE"
);
}
);
width = 727;
},
{
anchors = (
{
name = bottom;
position = "{390, 0}";
},
{
name = bottomright;
position = "{639, 0}";
},
{
name = top;
position = "{761, 660}";
},
{
name = topcenter;
position = "{391, 660}";
}
);
layerId = "A071A550-EFB7-4955-8F98-3DB7A21E0E0F";
paths = (
{
closed = 1;
nodes = (
"209 0 OFFCURVE",
"238 10 OFFCURVE",
"262 21 CURVE SMOOTH",
"360 67 LINE",
"372 72 OFFCURVE",
"378 75 OFFCURVE",
"387 75 CURVE SMOOTH",
"395 75 OFFCURVE",
"404 71 OFFCURVE",
"413 67 CURVE SMOOTH",
"515 20 LINE SMOOTH",
"544 6 OFFCURVE",
"561 0 OFFCURVE",
"584 0 CURVE SMOOTH",
"625 0 OFFCURVE",
"639 25 OFFCURVE",
"639 58 CURVE SMOOTH",
"639 354 LINE SMOOTH",
"639 437 OFFCURVE",
"583 488 OFFCURVE",
"474 511 CURVE SMOOTH",
"450 516 LINE SMOOTH",
"412 524 OFFCURVE",
"395 539 OFFCURVE",
"395 576 CURVE SMOOTH",
"395 596 OFFCURVE",
"400 605 OFFCURVE",
"415 605 CURVE SMOOTH",
"430 605 OFFCURVE",
"436 598 OFFCURVE",
"436 579 CURVE SMOOTH",
"436 531 OFFCURVE",
"376 506 OFFCURVE",
"322 506 CURVE SMOOTH",
"273 506 OFFCURVE",
"254 521 OFFCURVE",
"254 558 CURVE SMOOTH",
"254 585 OFFCURVE",
"257 611 OFFCURVE",
"257 638 CURVE SMOOTH",
"257 701 OFFCURVE",
"230 732 OFFCURVE",
"137 732 CURVE SMOOTH",
"97 732 OFFCURVE",
"87 723 OFFCURVE",
"87 687 CURVE SMOOTH",
"87 651 OFFCURVE",
"94 643 OFFCURVE",
"113 643 CURVE SMOOTH",
"125 643 OFFCURVE",
"130 637 OFFCURVE",
"130 620 CURVE SMOOTH",
"130 595 OFFCURVE",
"125 573 OFFCURVE",
"125 550 CURVE SMOOTH",
"125 466 OFFCURVE",
"172 426 OFFCURVE",
"282 426 CURVE SMOOTH",
"394 426 OFFCURVE",
"513 496 OFFCURVE",
"513 577 CURVE SMOOTH",
"513 629 OFFCURVE",
"477 663 OFFCURVE",
"403 663 CURVE SMOOTH",
"331 663 OFFCURVE",
"296 630 OFFCURVE",
"296 566 CURVE SMOOTH",
"296 521 OFFCURVE",
"318 502 OFFCURVE",
"352 473 CURVE",
"357 443 LINE",
"472 405 OFFCURVE",
"509 385 OFFCURVE",
"509 321 CURVE SMOOTH",
"509 134 LINE SMOOTH",
"509 128 OFFCURVE",
"506 126 OFFCURVE",
"502 126 CURVE SMOOTH",
"498 126 OFFCURVE",
"494 128 OFFCURVE",
"491 129 CURVE",
"420 157 LINE SMOOTH",
"407 162 OFFCURVE",
"399 166 OFFCURVE",
"390 166 CURVE SMOOTH",
"383 166 OFFCURVE",
"372 161 OFFCURVE",
"361 157 CURVE SMOOTH",
"291 129 LINE SMOOTH",
"286 127 OFFCURVE",
"283 126 OFFCURVE",
"280 126 CURVE SMOOTH",
"276 126 OFFCURVE",
"273 128 OFFCURVE",
"273 134 CURVE SMOOTH",
"273 301 LINE SMOOTH",
"273 374 OFFCURVE",
"229 409 OFFCURVE",
"158 409 CURVE SMOOTH",
"80 409 OFFCURVE",
"25 366 OFFCURVE",
"25 270 CURVE SMOOTH",
"25 191 OFFCURVE",
"62 158 OFFCURVE",
"95 158 CURVE SMOOTH",
"121 158 OFFCURVE",
"136 183 OFFCURVE",
"136 219 CURVE SMOOTH",
"136 232 OFFCURVE",
"133 234 OFFCURVE",
"126 236 CURVE SMOOTH",
"118 238 OFFCURVE",
"112 242 OFFCURVE",
"112 282 CURVE SMOOTH",
"112 324 OFFCURVE",
"118 334 OFFCURVE",
"132 334 CURVE SMOOTH",
"141 334 OFFCURVE",
"143 331 OFFCURVE",
"143 322 CURVE SMOOTH",
"143 58 LINE SMOOTH",
"143 25 OFFCURVE",
"156 0 OFFCURVE",
"195 0 CURVE SMOOTH"
);
}
);
width = 739;
},
{
anchors = (
{
name = bottom;
position = "{373, 0}";
},
{
name = bottomright;
position = "{578, 0}";
},
{
name = top;
position = "{733, 660}";
},
{
name = topcenter;
position = "{373, 660}";
}
);
layerId = "EF9CD0BC-E2A6-4ABC-B2EB-28760EBC66CA";
paths = (
{
closed = 1;
nodes = (
"205 0 OFFCURVE",
"221 6 OFFCURVE",
"242 19 CURVE SMOOTH",
"341 82 LINE SMOOTH",
"359 93 OFFCURVE",
"364 95 OFFCURVE",
"368 95 CURVE SMOOTH",
"372 95 OFFCURVE",
"376 94 OFFCURVE",
"396 82 CURVE SMOOTH",
"495 20 LINE SMOOTH",
"522 4 OFFCURVE",
"539 0 OFFCURVE",
"550 0 CURVE SMOOTH",
"567 0 OFFCURVE",
"578 9 OFFCURVE",
"578 26 CURVE SMOOTH",
"578 331 LINE SMOOTH",
"578 410 OFFCURVE",
"557 440 OFFCURVE",
"427 493 CURVE",
"451 518 OFFCURVE",
"466 549 OFFCURVE",
"466 580 CURVE SMOOTH",
"466 633 OFFCURVE",
"432 663 OFFCURVE",
"385 663 CURVE SMOOTH",
"337 663 OFFCURVE",
"302 634 OFFCURVE",
"302 581 CURVE SMOOTH",
"302 546 OFFCURVE",
"321 510 OFFCURVE",
"357 488 CURVE",
"341 482 OFFCURVE",
"324 478 OFFCURVE",
"304 478 CURVE SMOOTH",
"239 478 OFFCURVE",
"204 495 OFFCURVE",
"204 559 CURVE SMOOTH",
"204 577 OFFCURVE",
"206 625 OFFCURVE",
"206 642 CURVE SMOOTH",
"206 705 OFFCURVE",
"173 732 OFFCURVE",
"112 732 CURVE SMOOTH",
"89 732 OFFCURVE",
"85 722 OFFCURVE",
"85 712 CURVE SMOOTH",
"85 702 OFFCURVE",
"89 692 OFFCURVE",
"107 692 CURVE SMOOTH",
"157 692 OFFCURVE",
"167 676 OFFCURVE",
"167 628 CURVE SMOOTH",
"167 612 OFFCURVE",
"165 571 OFFCURVE",
"165 553 CURVE SMOOTH",
"165 483 OFFCURVE",
"202 441 OFFCURVE",
"301 441 CURVE SMOOTH",
"336 441 OFFCURVE",
"367 451 OFFCURVE",
"394 467 CURVE",
"531 408 OFFCURVE",
"539 386 OFFCURVE",
"539 321 CURVE SMOOTH",
"539 53 LINE SMOOTH",
"539 48 OFFCURVE",
"538 45 OFFCURVE",
"534 45 CURVE SMOOTH",
"531 45 OFFCURVE",
"523 49 OFFCURVE",
"515 54 CURVE SMOOTH",
"402 125 LINE SMOOTH",
"386 135 OFFCURVE",
"378 137 OFFCURVE",
"372 137 CURVE SMOOTH",
"366 137 OFFCURVE",
"359 135 OFFCURVE",
"342 125 CURVE SMOOTH",
"230 54 LINE SMOOTH",
"221 48 OFFCURVE",
"214 45 OFFCURVE",
"211 45 CURVE SMOOTH",
"207 45 OFFCURVE",
"206 48 OFFCURVE",
"206 53 CURVE SMOOTH",
"206 317 LINE SMOOTH",
"206 387 OFFCURVE",
"168 409 OFFCURVE",
"120 409 CURVE SMOOTH",
"63 409 OFFCURVE",
"20 369 OFFCURVE",
"20 296 CURVE SMOOTH",
"20 238 OFFCURVE",
"53 204 OFFCURVE",
"116 204 CURVE SMOOTH",
"132 204 OFFCURVE",
"140 211 OFFCURVE",
"140 226 CURVE SMOOTH",
"140 239 OFFCURVE",
"135 243 OFFCURVE",
"120 243 CURVE SMOOTH",
"78 243 OFFCURVE",
"61 262 OFFCURVE",
"61 299 CURVE SMOOTH",
"61 349 OFFCURVE",
"83 372 OFFCURVE",
"118 372 CURVE SMOOTH",
"151 372 OFFCURVE",
"167 355 OFFCURVE",
"167 314 CURVE SMOOTH",
"167 26 LINE SMOOTH",
"167 10 OFFCURVE",
"178 0 OFFCURVE",
"194 0 CURVE SMOOTH"
);
},
{
closed = 1;
nodes = (
"356 531 OFFCURVE",
"343 552 OFFCURVE",
"343 581 CURVE SMOOTH",
"343 611 OFFCURVE",
"359 627 OFFCURVE",
"384 627 CURVE SMOOTH",
"409 627 OFFCURVE",
"427 612 OFFCURVE",
"427 578 CURVE SMOOTH",
"427 554 OFFCURVE",
"415 529 OFFCURVE",
"394 510 CURVE"
);
}
);
width = 703;
}
);
note = uni1784;
unicode = 1784;
},
{
glyphname = "ca-khmer";
lastChange = "2018-12-17 08:25:10 +0000";
layers = (
{
anchors = (
{
name = bottom;
position = "{365, 0}";
},
{
name = bottomright;
position = "{590, 0}";
},
{
name = top;
position = "{730, 660}";
},
{
name = topcenter;
position = "{365, 660}";
}
);
layerId = "C00489B0-D6FE-4186-8C18-D0EE90D80B61";
paths = (
{
closed = 1;
nodes = (
"510 0 OFFCURVE",
"590 61 OFFCURVE",
"590 166 CURVE SMOOTH",
"590 348 LINE SMOOTH",
"590 436 OFFCURVE",
"558 465 OFFCURVE",
"488 465 CURVE SMOOTH",
"414 465 OFFCURVE",
"360 411 OFFCURVE",
"360 337 CURVE SMOOTH",
"360 279 OFFCURVE",
"404 237 OFFCURVE",
"460 237 CURVE SMOOTH",
"482 237 OFFCURVE",
"494 247 OFFCURVE",
"494 283 CURVE SMOOTH",
"494 298 OFFCURVE",
"487 302 OFFCURVE",
"474 302 CURVE SMOOTH",
"452 302 OFFCURVE",
"433 314 OFFCURVE",
"433 344 CURVE SMOOTH",
"433 378 OFFCURVE",
"451 400 OFFCURVE",
"479 400 CURVE SMOOTH",
"499 400 OFFCURVE",
"512 394 OFFCURVE",
"512 351 CURVE SMOOTH",
"512 184 LINE SMOOTH",
"512 112 OFFCURVE",
"485 70 OFFCURVE",
"365 70 CURVE SMOOTH",
"245 70 OFFCURVE",
"218 112 OFFCURVE",
"218 184 CURVE SMOOTH",
"218 414 LINE SMOOTH",
"218 436 OFFCURVE",
"208 448 OFFCURVE",
"176 481 CURVE SMOOTH",
"146 513 OFFCURVE",
"139 520 OFFCURVE",
"139 528 CURVE SMOOTH",
"139 539 OFFCURVE",
"191 586 OFFCURVE",
"206 586 CURVE SMOOTH",
"221 586 OFFCURVE",
"324 503 OFFCURVE",
"364 503 CURVE SMOOTH",
"395 503 OFFCURVE",
"485 586 OFFCURVE",
"498 586 CURVE SMOOTH",
"511 586 OFFCURVE",
"567 541 OFFCURVE",
"596 525 CURVE",
"604 521 OFFCURVE",
"610 518 OFFCURVE",
"617 518 CURVE SMOOTH",
"638 518 OFFCURVE",
"657 545 OFFCURVE",
"657 562 CURVE SMOOTH",
"657 569 OFFCURVE",
"653 576 OFFCURVE",
"646 582 CURVE SMOOTH",
"597 624 OFFCURVE",
"525 663 OFFCURVE",
"504 663 CURVE SMOOTH",
"478 663 OFFCURVE",
"381 580 OFFCURVE",
"366 580 CURVE SMOOTH",
"351 580 OFFCURVE",
"242 663 OFFCURVE",
"218 663 CURVE SMOOTH",
"176 663 OFFCURVE",
"56 554 OFFCURVE",
"56 518 CURVE SMOOTH",
"56 504 OFFCURVE",
"67 488 OFFCURVE",
"97 456 CURVE SMOOTH",
"134 418 OFFCURVE",
"140 405 OFFCURVE",
"140 385 CURVE SMOOTH",
"140 166 LINE SMOOTH",
"140 61 OFFCURVE",
"220 0 OFFCURVE",
"365 0 CURVE SMOOTH"
);
}
);
width = 730;
},
{
anchors = (
{
name = bottom;
position = "{369, 0}";
},
{
name = bottomright;
position = "{618, 0}";
},
{
name = top;
position = "{740, 660}";
},
{
name = topcenter;
position = "{370, 660}";
}
);
layerId = "A071A550-EFB7-4955-8F98-3DB7A21E0E0F";
paths = (
{
closed = 1;
nodes = (
"538 0 OFFCURVE",
"618 70 OFFCURVE",
"618 175 CURVE SMOOTH",
"618 357 LINE SMOOTH",
"618 430 OFFCURVE",
"574 465 OFFCURVE",
"497 465 CURVE SMOOTH",
"419 465 OFFCURVE",
"357 423 OFFCURVE",
"357 326 CURVE SMOOTH",
"357 261 OFFCURVE",
"386 214 OFFCURVE",
"433 214 CURVE SMOOTH",
"461 214 OFFCURVE",
"480 242 OFFCURVE",
"480 275 CURVE SMOOTH",
"480 289 OFFCURVE",
"476 291 OFFCURVE",
"468 292 CURVE",
"456 294 OFFCURVE",
"450 298 OFFCURVE",
"450 338 CURVE SMOOTH",
"450 378 OFFCURVE",
"458 390 OFFCURVE",
"474 390 CURVE SMOOTH",
"484 390 OFFCURVE",
"488 388 OFFCURVE",
"488 378 CURVE SMOOTH",
"488 172 LINE SMOOTH",
"488 121 OFFCURVE",
"468 89 OFFCURVE",
"371 89 CURVE SMOOTH",
"275 89 OFFCURVE",
"252 118 OFFCURVE",
"252 173 CURVE SMOOTH",
"252 370 LINE SMOOTH",
"252 416 OFFCURVE",
"240 437 OFFCURVE",
"193 480 CURVE SMOOTH",
"168 503 OFFCURVE",
"151 519 OFFCURVE",
"151 526 CURVE SMOOTH",
"151 534 OFFCURVE",
"174 555 OFFCURVE",
"185 555 CURVE SMOOTH",
"198 555 OFFCURVE",
"304 484 OFFCURVE",
"337 484 CURVE SMOOTH",
"368 484 OFFCURVE",
"449 551 OFFCURVE",
"462 551 CURVE SMOOTH",
"475 551 OFFCURVE",
"513 518 OFFCURVE",
"561 490 CURVE SMOOTH",
"568 486 OFFCURVE",
"580 483 OFFCURVE",
"590 483 CURVE SMOOTH",
"626 483 OFFCURVE",
"673 521 OFFCURVE",
"673 551 CURVE SMOOTH",
"673 562 OFFCURVE",
"669 567 OFFCURVE",
"647 583 CURVE SMOOTH",
"556 648 OFFCURVE",
"517 663 OFFCURVE",
"496 663 CURVE SMOOTH",
"467 663 OFFCURVE",
"390 595 OFFCURVE",
"366 595 CURVE SMOOTH",
"339 595 OFFCURVE",
"242 663 OFFCURVE",
"218 663 CURVE SMOOTH",
"179 663 OFFCURVE",
"26 543 OFFCURVE",
"26 498 CURVE SMOOTH",
"26 486 OFFCURVE",
"29 482 OFFCURVE",
"79 424 CURVE SMOOTH",
"122 374 OFFCURVE",
"122 369 OFFCURVE",
"122 341 CURVE SMOOTH",
"122 175 LINE SMOOTH",
"122 70 OFFCURVE",
"181 0 OFFCURVE",
"366 0 CURVE SMOOTH"
);
}
);
width = 740;
},
{
anchors = (
{
name = bottom;
position = "{361, 0}";
},
{
name = bottomright;
position = "{566, 0}";
},
{
name = top;
position = "{721, 660}";
},
{
name = topcenter;
position = "{361, 660}";
}
);
layerId = "EF9CD0BC-E2A6-4ABC-B2EB-28760EBC66CA";
paths = (
{
closed = 1;
nodes = (
"491 0 OFFCURVE",
"566 61 OFFCURVE",
"566 166 CURVE SMOOTH",
"566 373 LINE SMOOTH",
"566 443 OFFCURVE",
"528 465 OFFCURVE",
"480 465 CURVE SMOOTH",
"423 465 OFFCURVE",
"380 425 OFFCURVE",
"380 352 CURVE SMOOTH",
"380 294 OFFCURVE",
"413 260 OFFCURVE",
"476 260 CURVE SMOOTH",
"492 260 OFFCURVE",
"500 267 OFFCURVE",
"500 282 CURVE SMOOTH",
"500 295 OFFCURVE",
"495 299 OFFCURVE",
"480 299 CURVE SMOOTH",
"438 299 OFFCURVE",
"421 318 OFFCURVE",
"421 355 CURVE SMOOTH",
"421 405 OFFCURVE",
"443 428 OFFCURVE",
"478 428 CURVE SMOOTH",
"511 428 OFFCURVE",
"527 411 OFFCURVE",
"527 370 CURVE SMOOTH",
"527 180 LINE SMOOTH",
"527 97 OFFCURVE",
"488 39 OFFCURVE",
"360 39 CURVE SMOOTH",
"228 39 OFFCURVE",
"194 99 OFFCURVE",
"194 180 CURVE SMOOTH",
"194 421 LINE SMOOTH",
"194 450 OFFCURVE",
"190 461 OFFCURVE",
"164 485 CURVE SMOOTH",
"124 522 OFFCURVE",
"119 531 OFFCURVE",
"119 534 CURVE SMOOTH",
"119 547 OFFCURVE",
"194 620 OFFCURVE",
"209 620 CURVE SMOOTH",
"224 620 OFFCURVE",
"329 539 OFFCURVE",
"360 539 CURVE SMOOTH",
"383 539 OFFCURVE",
"482 620 OFFCURVE",
"495 620 CURVE SMOOTH",
"508 620 OFFCURVE",
"559 577 OFFCURVE",
"597 553 CURVE SMOOTH",
"605 548 OFFCURVE",
"610 546 OFFCURVE",
"615 546 CURVE SMOOTH",
"624 546 OFFCURVE",
"635 560 OFFCURVE",
"635 569 CURVE SMOOTH",
"635 574 OFFCURVE",
"634 576 OFFCURVE",
"627 582 CURVE",
"576 621 OFFCURVE",
"510 663 OFFCURVE",
"497 663 CURVE SMOOTH",
"477 663 OFFCURVE",
"376 580 OFFCURVE",
"361 580 CURVE SMOOTH",
"346 580 OFFCURVE",
"230 663 OFFCURVE",
"213 663 CURVE SMOOTH",
"184 663 OFFCURVE",
"75 560 OFFCURVE",
"75 530 CURVE SMOOTH",
"75 520 OFFCURVE",
"81 507 OFFCURVE",
"112 478 CURVE SMOOTH",
"150 443 OFFCURVE",
"155 437 OFFCURVE",
"155 411 CURVE SMOOTH",
"155 166 LINE SMOOTH",
"155 61 OFFCURVE",
"223 0 OFFCURVE",
"357 0 CURVE SMOOTH"
);
}
);
width = 721;
}
);
note = uni1785;
unicode = 1785;
},
{
glyphname = "cha-khmer";
lastChange = "2018-12-17 08:25:10 +0000";
layers = (
{
anchors = (
{
name = bottom;
position = "{365, 0}";
},
{
name = bottomright;
position = "{590, 0}";
},
{
name = top;
position = "{730, 660}";
},
{
name = topcenter;
position = "{365, 660}";
}
);
background = {
paths = (
{
closed = 0;
nodes = (
"103 91 LINE SMOOTH"
);
},
{
closed = 0;
nodes = (
"41 92 LINE SMOOTH"
);
}
);
};
layerId = "C00489B0-D6FE-4186-8C18-D0EE90D80B61";
paths = (
{
closed = 1;
nodes = (
"182 0 OFFCURVE",
"218 32 OFFCURVE",
"218 99 CURVE SMOOTH",
"218 414 LINE SMOOTH",
"218 436 OFFCURVE",
"209 448 OFFCURVE",
"176 481 CURVE SMOOTH",
"145 512 OFFCURVE",
"139 520 OFFCURVE",
"139 528 CURVE SMOOTH",
"139 539 OFFCURVE",
"191 586 OFFCURVE",
"206 586 CURVE SMOOTH",
"221 586 OFFCURVE",
"324 503 OFFCURVE",
"364 503 CURVE SMOOTH",
"395 503 OFFCURVE",
"485 586 OFFCURVE",
"498 586 CURVE SMOOTH",
"511 586 OFFCURVE",
"567 541 OFFCURVE",
"596 525 CURVE",
"604 521 OFFCURVE",
"610 518 OFFCURVE",
"617 518 CURVE SMOOTH",
"638 518 OFFCURVE",
"657 545 OFFCURVE",
"657 562 CURVE SMOOTH",
"657 569 OFFCURVE",
"653 576 OFFCURVE",
"646 582 CURVE SMOOTH",
"597 624 OFFCURVE",
"525 663 OFFCURVE",
"504 663 CURVE SMOOTH",
"478 663 OFFCURVE",
"381 580 OFFCURVE",
"366 580 CURVE SMOOTH",
"351 580 OFFCURVE",
"242 663 OFFCURVE",
"218 663 CURVE SMOOTH",
"176 663 OFFCURVE",
"56 554 OFFCURVE",
"56 518 CURVE SMOOTH",
"56 504 OFFCURVE",
"67 488 OFFCURVE",
"97 456 CURVE SMOOTH",
"133 417 OFFCURVE",
"140 405 OFFCURVE",
"140 385 CURVE SMOOTH",
"140 200 LINE",
"142 184 LINE",
"142 92 LINE SMOOTH",
"142 64 OFFCURVE",
"133 58 OFFCURVE",
"123 58 CURVE SMOOTH",
"108 58 OFFCURVE",
"103 75 OFFCURVE",
"103 106 CURVE SMOOTH",
"103 139 OFFCURVE",
"117 161 OFFCURVE",
"137 161 CURVE SMOOTH",
"146 161 OFFCURVE",
"167 155 OFFCURVE",
"181 148 CURVE",
"254 116 OFFCURVE",
"356 0 OFFCURVE",
"464 0 CURVE SMOOTH",
"547 0 OFFCURVE",
"590 46 OFFCURVE",
"590 129 CURVE SMOOTH",
"590 348 LINE SMOOTH",
"590 436 OFFCURVE",
"558 465 OFFCURVE",
"488 465 CURVE SMOOTH",
"414 465 OFFCURVE",
"360 411 OFFCURVE",
"360 337 CURVE SMOOTH",
"360 278 OFFCURVE",
"404 237 OFFCURVE",
"460 237 CURVE SMOOTH",
"482 237 OFFCURVE",
"494 247 OFFCURVE",
"494 283 CURVE SMOOTH",
"494 298 OFFCURVE",
"487 302 OFFCURVE",
"474 302 CURVE SMOOTH",
"452 302 OFFCURVE",
"433 314 OFFCURVE",
"433 344 CURVE SMOOTH",
"433 378 OFFCURVE",
"451 400 OFFCURVE",
"479 400 CURVE SMOOTH",
"499 400 OFFCURVE",
"512 394 OFFCURVE",
"512 351 CURVE SMOOTH",
"512 133 LINE SMOOTH",
"512 92 OFFCURVE",
"497 74 OFFCURVE",
"460 74 CURVE SMOOTH",
"378 74 OFFCURVE",
"278 188 OFFCURVE",
"183 215 CURVE",
"169 217 OFFCURVE",
"149 219 OFFCURVE",
"140 219 CURVE SMOOTH",
"85 219 OFFCURVE",
"41 184 OFFCURVE",
"41 107 CURVE SMOOTH",
"41 41 OFFCURVE",
"72 0 OFFCURVE",
"126 0 CURVE SMOOTH"
);
}
);
width = 730;
},
{
anchors = (
{
name = bottom;
position = "{369, 0}";
},
{
name = bottomright;
position = "{618, 0}";
},
{
name = top;
position = "{740, 660}";
},
{
name = topcenter;
position = "{370, 660}";
}
);
layerId = "A071A550-EFB7-4955-8F98-3DB7A21E0E0F";
paths = (
{
closed = 1;
nodes = (
"212 0 OFFCURVE",
"252 53 OFFCURVE",
"252 136 CURVE SMOOTH",
"252 370 LINE SMOOTH",
"252 416 OFFCURVE",
"240 437 OFFCURVE",
"193 480 CURVE SMOOTH",
"168 503 OFFCURVE",
"151 519 OFFCURVE",
"151 526 CURVE SMOOTH",
"151 534 OFFCURVE",
"174 555 OFFCURVE",
"185 555 CURVE SMOOTH",
"198 555 OFFCURVE",
"304 484 OFFCURVE",
"337 484 CURVE SMOOTH",
"368 484 OFFCURVE",
"449 551 OFFCURVE",
"462 551 CURVE SMOOTH",
"475 551 OFFCURVE",
"513 518 OFFCURVE",
"561 490 CURVE SMOOTH",
"568 486 OFFCURVE",
"580 483 OFFCURVE",
"590 483 CURVE SMOOTH",
"629 483 OFFCURVE",
"673 523 OFFCURVE",
"673 551 CURVE SMOOTH",
"673 562 OFFCURVE",
"669 567 OFFCURVE",
"647 583 CURVE SMOOTH",
"556 648 OFFCURVE",
"517 663 OFFCURVE",
"496 663 CURVE SMOOTH",
"467 663 OFFCURVE",
"390 595 OFFCURVE",
"366 595 CURVE SMOOTH",
"339 595 OFFCURVE",
"242 663 OFFCURVE",
"218 663 CURVE SMOOTH",
"179 663 OFFCURVE",
"26 543 OFFCURVE",
"26 498 CURVE SMOOTH",
"26 486 OFFCURVE",
"29 482 OFFCURVE",
"79 424 CURVE SMOOTH",
"122 374 OFFCURVE",
"122 369 OFFCURVE",
"122 341 CURVE SMOOTH",
"122 203 LINE",
"126 180 LINE",
"126 95 LINE SMOOTH",
"126 78 OFFCURVE",
"120 74 OFFCURVE",
"113 74 CURVE SMOOTH",
"103 74 OFFCURVE",
"96 88 OFFCURVE",
"96 110 CURVE SMOOTH",
"96 138 OFFCURVE",
"105 156 OFFCURVE",
"126 156 CURVE SMOOTH",
"139 156 OFFCURVE",
"156 152 OFFCURVE",
"173 150 CURVE",
"258 128 OFFCURVE",
"363 0 OFFCURVE",
"491 0 CURVE SMOOTH",
"576 0 OFFCURVE",
"618 43 OFFCURVE",
"618 132 CURVE SMOOTH",
"618 357 LINE SMOOTH",
"618 430 OFFCURVE",
"574 465 OFFCURVE",
"497 465 CURVE SMOOTH",
"419 465 OFFCURVE",
"357 423 OFFCURVE",
"357 326 CURVE SMOOTH",
"357 261 OFFCURVE",
"386 214 OFFCURVE",
"433 214 CURVE SMOOTH",
"461 214 OFFCURVE",
"480 242 OFFCURVE",
"480 275 CURVE SMOOTH",
"480 289 OFFCURVE",
"476 291 OFFCURVE",
"468 292 CURVE",
"456 294 OFFCURVE",
"450 298 OFFCURVE",
"450 338 CURVE SMOOTH",
"450 378 OFFCURVE",
"458 390 OFFCURVE",
"474 390 CURVE SMOOTH",
"484 390 OFFCURVE",
"488 388 OFFCURVE",
"488 378 CURVE SMOOTH",
"488 145 LINE SMOOTH",
"488 116 OFFCURVE",
"477 105 OFFCURVE",
"452 105 CURVE SMOOTH",
"405 105 OFFCURVE",
"311 202 OFFCURVE",
"220 226 CURVE SMOOTH",
"198 231 OFFCURVE",
"178 234 OFFCURVE",
"139 234 CURVE SMOOTH",
"93 234 OFFCURVE",
"39 207 OFFCURVE",
"39 112 CURVE SMOOTH",
"39 40 OFFCURVE",
"75 0 OFFCURVE",
"141 0 CURVE SMOOTH"
);
}
);
width = 740;
},
{
anchors = (
{
name = bottom;
position = "{361, 0}";
},
{
name = bottomright;
position = "{566, 0}";
},
{
name = top;
position = "{721, 660}";
},
{
name = topcenter;
position = "{361, 660}";
}
);
layerId = "EF9CD0BC-E2A6-4ABC-B2EB-28760EBC66CA";
paths = (
{
closed = 1;
nodes = (
"169 0 OFFCURVE",
"194 34 OFFCURVE",
"194 91 CURVE SMOOTH",
"194 421 LINE SMOOTH",
"194 450 OFFCURVE",
"190 461 OFFCURVE",
"164 485 CURVE SMOOTH",
"124 522 OFFCURVE",
"119 531 OFFCURVE",
"119 534 CURVE SMOOTH",
"119 547 OFFCURVE",
"194 620 OFFCURVE",
"209 620 CURVE SMOOTH",
"224 620 OFFCURVE",
"329 539 OFFCURVE",
"360 539 CURVE SMOOTH",
"383 539 OFFCURVE",
"482 620 OFFCURVE",
"495 620 CURVE SMOOTH",
"508 620 OFFCURVE",
"559 577 OFFCURVE",
"597 553 CURVE SMOOTH",
"605 548 OFFCURVE",
"610 546 OFFCURVE",
"615 546 CURVE SMOOTH",
"624 546 OFFCURVE",
"635 560 OFFCURVE",
"635 569 CURVE SMOOTH",
"635 574 OFFCURVE",
"634 576 OFFCURVE",
"627 582 CURVE",
"576 621 OFFCURVE",
"510 663 OFFCURVE",
"497 663 CURVE SMOOTH",
"477 663 OFFCURVE",
"376 580 OFFCURVE",
"361 580 CURVE SMOOTH",
"346 580 OFFCURVE",
"230 663 OFFCURVE",
"213 663 CURVE SMOOTH",
"184 663 OFFCURVE",
"75 560 OFFCURVE",
"75 530 CURVE SMOOTH",
"75 520 OFFCURVE",
"81 507 OFFCURVE",
"112 478 CURVE SMOOTH",
"150 443 OFFCURVE",
"155 437 OFFCURVE",
"155 411 CURVE SMOOTH",
"155 189 LINE",
"155 179 LINE",
"155 97 LINE SMOOTH",
"155 52 OFFCURVE",
"147 36 OFFCURVE",
"125 36 CURVE SMOOTH",
"107 36 OFFCURVE",
"93 52 OFFCURVE",
"93 97 CURVE SMOOTH",
"93 145 OFFCURVE",
"109 168 OFFCURVE",
"143 168 CURVE SMOOTH",
"160 168 OFFCURVE",
"166 164 OFFCURVE",
"178 156 CURVE",
"255 121 OFFCURVE",
"382 0 OFFCURVE",
"465 0 CURVE SMOOTH",
"527 0 OFFCURVE",
"566 29 OFFCURVE",
"566 126 CURVE SMOOTH",
"566 373 LINE SMOOTH",
"566 443 OFFCURVE",
"528 465 OFFCURVE",
"480 465 CURVE SMOOTH",
"423 465 OFFCURVE",
"380 425 OFFCURVE",
"380 352 CURVE SMOOTH",
"380 294 OFFCURVE",
"413 260 OFFCURVE",
"476 260 CURVE SMOOTH",
"492 260 OFFCURVE",
"500 267 OFFCURVE",
"500 282 CURVE SMOOTH",
"500 295 OFFCURVE",
"495 299 OFFCURVE",
"480 299 CURVE SMOOTH",
"438 299 OFFCURVE",
"421 318 OFFCURVE",
"421 355 CURVE SMOOTH",
"421 405 OFFCURVE",
"443 428 OFFCURVE",
"478 428 CURVE SMOOTH",
"511 428 OFFCURVE",
"527 411 OFFCURVE",
"527 370 CURVE SMOOTH",
"527 131 LINE SMOOTH",
"527 60 OFFCURVE",
"505 38 OFFCURVE",
"467 38 CURVE SMOOTH",
"386 38 OFFCURVE",
"251 174 OFFCURVE",
"177 199 CURVE",
"170 201 OFFCURVE",
"157 204 OFFCURVE",
"143 204 CURVE SMOOTH",
"82 204 OFFCURVE",
"53 169 OFFCURVE",
"53 97 CURVE SMOOTH",
"53 36 OFFCURVE",
"77 0 OFFCURVE",
"125 0 CURVE SMOOTH"
);
}
);
width = 721;
}
);
note = uni1786;
unicode = 1786;
},
{
glyphname = "co-khmer";
lastChange = "2019-02-26 07:04:03 +0000";
layers = (
{
anchors = (
{
name = bottom;
position = "{365, 0}";
},
{
name = bottomright;
position = "{590, 0}";
},
{
name = top;
position = "{730, 660}";
},
{
name = topcenter;
position = "{365, 660}";
}
);
layerId = "C00489B0-D6FE-4186-8C18-D0EE90D80B61";
paths = (
{
closed = 1;
nodes = (
"194 0 OFFCURVE",
"213 8 OFFCURVE",
"235 20 CURVE SMOOTH",
"334 76 LINE SMOOTH",
"350 85 OFFCURVE",
"357 88 OFFCURVE",
"361 88 CURVE SMOOTH",
"365 88 OFFCURVE",
"373 85 OFFCURVE",
"389 76 CURVE SMOOTH",
"488 20 LINE SMOOTH",
"514 5 OFFCURVE",
"533 0 OFFCURVE",
"551 0 CURVE SMOOTH",
"579 0 OFFCURVE",
"590 13 OFFCURVE",
"590 37 CURVE SMOOTH",
"590 426 LINE SMOOTH",
"590 441 OFFCURVE",
"577 448 OFFCURVE",
"552 448 CURVE SMOOTH",
"526 448 OFFCURVE",
"512 441 OFFCURVE",
"512 426 CURVE SMOOTH",
"512 100 LINE SMOOTH",
"512 95 OFFCURVE",
"511 92 OFFCURVE",
"507 92 CURVE SMOOTH",
"504 92 OFFCURVE",
"496 96 OFFCURVE",
"488 100 CURVE",
"395 153 LINE",
"379 163 OFFCURVE",
"371 165 OFFCURVE",
"365 165 CURVE SMOOTH",
"359 165 OFFCURVE",
"352 163 OFFCURVE",
"335 153 CURVE SMOOTH",
"242 100 LINE",
"234 96 OFFCURVE",
"226 92 OFFCURVE",
"223 92 CURVE SMOOTH",
"219 92 OFFCURVE",
"218 95 OFFCURVE",
"218 100 CURVE SMOOTH",
"218 414 LINE SMOOTH",
"218 436 OFFCURVE",
"208 448 OFFCURVE",
"176 481 CURVE SMOOTH",
"146 513 OFFCURVE",
"139 520 OFFCURVE",
"139 528 CURVE SMOOTH",
"139 539 OFFCURVE",
"198 591 OFFCURVE",
"214 591 CURVE SMOOTH",
"244 591 OFFCURVE",
"346 525 OFFCURVE",
"450 525 CURVE SMOOTH",
"550 525 OFFCURVE",
"620 580 OFFCURVE",
"620 663 CURVE SMOOTH",
"620 718 OFFCURVE",
"584 774 OFFCURVE",
"521 774 CURVE SMOOTH",
"493 774 OFFCURVE",
"479 751 OFFCURVE",
"479 729 CURVE SMOOTH",
"479 722 OFFCURVE",
"483 713 OFFCURVE",
"489 713 CURVE SMOOTH",
"527 713 OFFCURVE",
"542 688 OFFCURVE",
"542 663 CURVE SMOOTH",
"542 622 OFFCURVE",
"516 596 OFFCURVE",
"449 596 CURVE SMOOTH",
"366 596 OFFCURVE",
"256 663 OFFCURVE",
"218 663 CURVE SMOOTH",
"176 663 OFFCURVE",
"56 554 OFFCURVE",
"56 518 CURVE SMOOTH",
"56 504 OFFCURVE",
"67 488 OFFCURVE",
"97 456 CURVE SMOOTH",
"134 418 OFFCURVE",
"140 405 OFFCURVE",
"140 385 CURVE SMOOTH",
"140 37 LINE SMOOTH",
"140 13 OFFCURVE",
"151 0 OFFCURVE",
"178 0 CURVE SMOOTH"
);
}
);
width = 730;
},
{
anchors = (
{
name = bottom;
position = "{369, 0}";
},
{
name = bottomright;
position = "{618, 0}";
},
{
name = top;
position = "{740, 660}";
},
{
name = topcenter;
position = "{370, 660}";
}
);
layerId = "A071A550-EFB7-4955-8F98-3DB7A21E0E0F";
paths = (
{
closed = 1;
nodes = (
"188 0 OFFCURVE",
"217 10 OFFCURVE",
"241 21 CURVE SMOOTH",
"339 67 LINE",
"351 72 OFFCURVE",
"357 75 OFFCURVE",
"366 75 CURVE SMOOTH",
"374 75 OFFCURVE",
"383 71 OFFCURVE",
"392 67 CURVE SMOOTH",
"494 20 LINE SMOOTH",
"523 6 OFFCURVE",
"540 0 OFFCURVE",
"563 0 CURVE SMOOTH",
"604 0 OFFCURVE",
"618 25 OFFCURVE",
"618 58 CURVE SMOOTH",
"618 408 LINE SMOOTH",
"618 436 OFFCURVE",
"599 448 OFFCURVE",
"553 448 CURVE SMOOTH",
"509 448 OFFCURVE",
"488 435 OFFCURVE",
"488 408 CURVE SMOOTH",
"488 134 LINE SMOOTH",
"488 128 OFFCURVE",
"485 126 OFFCURVE",
"481 126 CURVE SMOOTH",
"477 126 OFFCURVE",
"473 128 OFFCURVE",
"470 129 CURVE",
"399 157 LINE SMOOTH",
"386 162 OFFCURVE",
"378 166 OFFCURVE",
"369 166 CURVE SMOOTH",
"362 166 OFFCURVE",
"351 161 OFFCURVE",
"340 157 CURVE SMOOTH",
"270 129 LINE SMOOTH",
"265 127 OFFCURVE",
"262 126 OFFCURVE",
"259 126 CURVE SMOOTH",
"255 126 OFFCURVE",
"252 128 OFFCURVE",
"252 134 CURVE SMOOTH",
"252 370 LINE SMOOTH",
"252 416 OFFCURVE",
"240 437 OFFCURVE",
"193 480 CURVE SMOOTH",
"169 502 OFFCURVE",
"151 519 OFFCURVE",
"151 526 CURVE SMOOTH",
"151 534 OFFCURVE",
"180 556 OFFCURVE",
"194 556 CURVE SMOOTH",
"226 556 OFFCURVE",
"355 498 OFFCURVE",
"466 498 CURVE SMOOTH",
"577 498 OFFCURVE",
"653 556 OFFCURVE",
"653 660 CURVE SMOOTH",
"653 725 OFFCURVE",
"606 775 OFFCURVE",
"540 775 CURVE SMOOTH",
"488 775 OFFCURVE",
"462 751 OFFCURVE",
"462 715 CURVE SMOOTH",
"462 699 OFFCURVE",
"465 699 OFFCURVE",
"483 699 CURVE SMOOTH",
"515 699 OFFCURVE",
"539 686 OFFCURVE",
"539 657 CURVE SMOOTH",
"539 631 OFFCURVE",
"522 612 OFFCURVE",
"482 612 CURVE SMOOTH",
"388 612 OFFCURVE",
"260 663 OFFCURVE",
"224 663 CURVE SMOOTH",
"173 663 OFFCURVE",
"26 543 OFFCURVE",
"26 498 CURVE SMOOTH",
"26 486 OFFCURVE",
"29 482 OFFCURVE",
"79 424 CURVE SMOOTH",
"122 374 OFFCURVE",
"122 369 OFFCURVE",
"122 341 CURVE SMOOTH",
"122 58 LINE SMOOTH",
"122 25 OFFCURVE",
"135 0 OFFCURVE",
"174 0 CURVE SMOOTH"
);
}
);
width = 740;
},
{
anchors = (
{
name = bottom;
position = "{361, 0}";
},
{
name = bottomright;
position = "{566, 0}";
},
{
name = top;
position = "{721, 660}";
},
{
name = topcenter;
position = "{361, 660}";
}
);
layerId = "EF9CD0BC-E2A6-4ABC-B2EB-28760EBC66CA";
paths = (
{
closed = 1;
nodes = (
"193 0 OFFCURVE",
"209 6 OFFCURVE",
"230 19 CURVE SMOOTH",
"329 82 LINE SMOOTH",
"347 93 OFFCURVE",
"352 95 OFFCURVE",
"356 95 CURVE SMOOTH",
"360 95 OFFCURVE",
"364 94 OFFCURVE",
"384 82 CURVE SMOOTH",
"483 20 LINE SMOOTH",
"510 4 OFFCURVE",
"527 0 OFFCURVE",
"538 0 CURVE SMOOTH",
"555 0 OFFCURVE",
"566 9 OFFCURVE",
"566 26 CURVE SMOOTH",
"566 428 LINE SMOOTH",
"566 443 OFFCURVE",
"559 448 OFFCURVE",
"547 448 CURVE SMOOTH",
"534 448 OFFCURVE",
"527 443 OFFCURVE",
"527 428 CURVE SMOOTH",
"527 53 LINE SMOOTH",
"527 48 OFFCURVE",
"526 45 OFFCURVE",
"522 45 CURVE SMOOTH",
"519 45 OFFCURVE",
"511 49 OFFCURVE",
"503 54 CURVE SMOOTH",
"390 125 LINE SMOOTH",
"374 135 OFFCURVE",
"366 137 OFFCURVE",
"360 137 CURVE SMOOTH",
"354 137 OFFCURVE",
"347 135 OFFCURVE",
"330 125 CURVE SMOOTH",
"218 54 LINE SMOOTH",
"209 48 OFFCURVE",
"202 45 OFFCURVE",
"199 45 CURVE SMOOTH",
"195 45 OFFCURVE",
"194 48 OFFCURVE",
"194 53 CURVE SMOOTH",
"194 421 LINE SMOOTH",
"194 450 OFFCURVE",
"190 461 OFFCURVE",
"164 485 CURVE SMOOTH",
"124 522 OFFCURVE",
"119 531 OFFCURVE",
"119 534 CURVE SMOOTH",
"119 547 OFFCURVE",
"197 622 OFFCURVE",
"212 622 CURVE SMOOTH",
"245 622 OFFCURVE",
"351 546 OFFCURVE",
"451 546 CURVE SMOOTH",
"541 546 OFFCURVE",
"592 603 OFFCURVE",
"592 671 CURVE SMOOTH",
"592 737 OFFCURVE",
"550 773 OFFCURVE",
"514 773 CURVE SMOOTH",
"499 773 OFFCURVE",
"488 764 OFFCURVE",
"488 751 CURVE SMOOTH",
"488 746 OFFCURVE",
"489 744 OFFCURVE",
"497 742 CURVE SMOOTH",
"527 734 OFFCURVE",
"552 711 OFFCURVE",
"552 671 CURVE SMOOTH",
"552 623 OFFCURVE",
"524 584 OFFCURVE",
"449 584 CURVE SMOOTH",
"357 584 OFFCURVE",
"253 663 OFFCURVE",
"213 663 CURVE SMOOTH",
"184 663 OFFCURVE",
"75 560 OFFCURVE",
"75 530 CURVE SMOOTH",
"75 520 OFFCURVE",
"81 507 OFFCURVE",
"112 478 CURVE SMOOTH",
"150 443 OFFCURVE",
"155 437 OFFCURVE",
"155 411 CURVE SMOOTH",
"155 26 LINE SMOOTH",
"155 10 OFFCURVE",
"166 0 OFFCURVE",
"182 0 CURVE SMOOTH"
);
}
);
width = 721;
}
);
note = uni1787;
unicode = 1787;
},
{
glyphname = "cho-khmer";
lastChange = "2018-12-17 08:25:10 +0000";
layers = (
{
anchors = (
{
name = bottom;
position = "{1090, 0}";
},
{
name = bottomright;
position = "{1315, 0}";
},
{
name = top;
position = "{1476, 660}";
},
{
name = topcenter;
position = "{1090, 660}";
}
);
layerId = "C00489B0-D6FE-4186-8C18-D0EE90D80B61";
paths = (
{
closed = 1;
nodes = (
"300 0 OFFCURVE",
"349 48 OFFCURVE",
"349 122 CURVE SMOOTH",
"349 187 OFFCURVE",
"305 228 OFFCURVE",
"252 228 CURVE SMOOTH",
"230 228 OFFCURVE",
"212 217 OFFCURVE",
"212 185 CURVE SMOOTH",
"212 169 OFFCURVE",
"222 163 OFFCURVE",
"236 163 CURVE SMOOTH",
"257 163 OFFCURVE",
"276 147 OFFCURVE",
"276 117 CURVE SMOOTH",
"276 83 OFFCURVE",
"258 65 OFFCURVE",
"234 65 CURVE SMOOTH",
"209 65 OFFCURVE",
"197 80 OFFCURVE",
"197 119 CURVE SMOOTH",
"197 479 LINE SMOOTH",
"197 551 OFFCURVE",
"224 593 OFFCURVE",
"344 593 CURVE SMOOTH",
"464 593 OFFCURVE",
"491 551 OFFCURVE",
"491 479 CURVE SMOOTH",
"491 166 LINE SMOOTH",
"491 61 OFFCURVE",
"572 0 OFFCURVE",
"717 0 CURVE SMOOTH",
"801 0 OFFCURVE",
"865 19 OFFCURVE",
"902 67 CURVE",
"939 19 OFFCURVE",
"1001 0 OFFCURVE",
"1090 0 CURVE SMOOTH",
"1235 0 OFFCURVE",
"1315 61 OFFCURVE",
"1315 166 CURVE SMOOTH",
"1315 424 LINE SMOOTH",
"1315 468 OFFCURVE",
"1299 485 OFFCURVE",
"1222 528 CURVE SMOOTH",
"1213 533 OFFCURVE",
"1210 537 OFFCURVE",
"1210 541 CURVE SMOOTH",
"1210 551 OFFCURVE",
"1241 590 OFFCURVE",
"1255 590 CURVE SMOOTH",
"1278 590 OFFCURVE",
"1343 554 OFFCURVE",
"1365 554 CURVE SMOOTH",
"1386 554 OFFCURVE",
"1410 586 OFFCURVE",
"1410 598 CURVE SMOOTH",
"1410 605 OFFCURVE",
"1405 610 OFFCURVE",
"1396 615 CURVE SMOOTH",
"1347 642 OFFCURVE",
"1281 663 OFFCURVE",
"1263 663 CURVE SMOOTH",
"1222 663 OFFCURVE",
"1128 551 OFFCURVE",
"1128 521 CURVE SMOOTH",
"1128 509 OFFCURVE",
"1137 502 OFFCURVE",
"1150 494 CURVE SMOOTH",
"1230 445 OFFCURVE",
"1237 437 OFFCURVE",
"1237 408 CURVE SMOOTH",
"1237 184 LINE SMOOTH",
"1237 112 OFFCURVE",
"1209 70 OFFCURVE",
"1090 70 CURVE SMOOTH",
"970 70 OFFCURVE",
"942 112 OFFCURVE",
"942 184 CURVE SMOOTH",
"942 424 LINE SMOOTH",
"942 468 OFFCURVE",
"926 485 OFFCURVE",
"849 528 CURVE SMOOTH",
"840 533 OFFCURVE",
"837 537 OFFCURVE",
"837 541 CURVE SMOOTH",
"837 551 OFFCURVE",
"868 590 OFFCURVE",
"882 590 CURVE SMOOTH",
"905 590 OFFCURVE",
"971 554 OFFCURVE",
"992 554 CURVE SMOOTH",
"1014 554 OFFCURVE",
"1037 586 OFFCURVE",
"1037 598 CURVE SMOOTH",
"1037 605 OFFCURVE",
"1033 610 OFFCURVE",
"1024 615 CURVE SMOOTH",
"974 642 OFFCURVE",
"908 663 OFFCURVE",
"891 663 CURVE SMOOTH",
"849 663 OFFCURVE",
"756 551 OFFCURVE",
"756 521 CURVE SMOOTH",
"756 509 OFFCURVE",
"764 502 OFFCURVE",
"778 494 CURVE",
"857 445 OFFCURVE",
"864 437 OFFCURVE",
"864 408 CURVE SMOOTH",
"864 182 LINE SMOOTH",
"864 111 OFFCURVE",
"835 70 OFFCURVE",
"717 70 CURVE SMOOTH",
"597 70 OFFCURVE",
"569 112 OFFCURVE",
"569 184 CURVE SMOOTH",
"569 497 LINE SMOOTH",
"569 602 OFFCURVE",
"489 663 OFFCURVE",
"344 663 CURVE SMOOTH",
"199 663 OFFCURVE",
"119 602 OFFCURVE",
"119 497 CURVE SMOOTH",
"119 112 LINE SMOOTH",
"119 39 OFFCURVE",
"155 0 OFFCURVE",
"230 0 CURVE SMOOTH"
);
}
);
width = 1476;
},
{
anchors = (
{
name = bottom;
position = "{1101, 0}";
},
{
name = bottomright;
position = "{1350, 0}";
},
{
name = top;
position = "{1472, 660}";
},
{
name = topcenter;
position = "{1102, 660}";
}
);
layerId = "A071A550-EFB7-4955-8F98-3DB7A21E0E0F";
paths = (
{
closed = 1;
nodes = (
"321 0 OFFCURVE",
"383 42 OFFCURVE",
"383 139 CURVE SMOOTH",
"383 204 OFFCURVE",
"354 251 OFFCURVE",
"307 251 CURVE SMOOTH",
"279 251 OFFCURVE",
"260 223 OFFCURVE",
"260 190 CURVE SMOOTH",
"260 176 OFFCURVE",
"264 174 OFFCURVE",
"272 173 CURVE",
"284 171 OFFCURVE",
"290 167 OFFCURVE",
"290 127 CURVE SMOOTH",
"290 87 OFFCURVE",
"282 75 OFFCURVE",
"266 75 CURVE SMOOTH",
"256 75 OFFCURVE",
"252 77 OFFCURVE",
"252 87 CURVE SMOOTH",
"252 492 LINE SMOOTH",
"252 542 OFFCURVE",
"274 573 OFFCURVE",
"370 573 CURVE SMOOTH",
"463 573 OFFCURVE",
"488 546 OFFCURVE",
"488 492 CURVE SMOOTH",
"488 175 LINE SMOOTH",
"488 70 OFFCURVE",
"547 0 OFFCURVE",
"732 0 CURVE SMOOTH",
"815 0 OFFCURVE",
"885 17 OFFCURVE",
"923 53 CURVE",
"957 17 OFFCURVE",
"1009 0 OFFCURVE",
"1098 0 CURVE SMOOTH",
"1270 0 OFFCURVE",
"1350 70 OFFCURVE",
"1350 175 CURVE SMOOTH",
"1350 371 LINE SMOOTH",
"1350 454 OFFCURVE",
"1340 470 OFFCURVE",
"1239 526 CURVE",
"1235 528 OFFCURVE",
"1233 531 OFFCURVE",
"1233 533 CURVE SMOOTH",
"1233 539 OFFCURVE",
"1242 552 OFFCURVE",
"1249 552 CURVE SMOOTH",
"1262 552 OFFCURVE",
"1339 512 OFFCURVE",
"1358 512 CURVE SMOOTH",
"1385 512 OFFCURVE",
"1427 571 OFFCURVE",
"1427 589 CURVE SMOOTH",
"1427 599 OFFCURVE",
"1423 607 OFFCURVE",
"1413 613 CURVE",
"1391 628 OFFCURVE",
"1292 663 OFFCURVE",
"1265 663 CURVE SMOOTH",
"1222 663 OFFCURVE",
"1128 534 OFFCURVE",
"1128 494 CURVE SMOOTH",
"1128 485 OFFCURVE",
"1131 472 OFFCURVE",
"1179 443 CURVE SMOOTH",
"1220 417 OFFCURVE",
"1220 404 OFFCURVE",
"1220 354 CURVE SMOOTH",
"1220 170 LINE SMOOTH",
"1220 121 OFFCURVE",
"1199 89 OFFCURVE",
"1102 89 CURVE SMOOTH",
"1009 89 OFFCURVE",
"984 116 OFFCURVE",
"984 170 CURVE SMOOTH",
"984 371 LINE SMOOTH",
"984 454 OFFCURVE",
"974 470 OFFCURVE",
"873 526 CURVE",
"869 528 OFFCURVE",
"867 531 OFFCURVE",
"867 533 CURVE SMOOTH",
"867 539 OFFCURVE",
"876 552 OFFCURVE",
"883 552 CURVE SMOOTH",
"896 552 OFFCURVE",
"973 512 OFFCURVE",
"992 512 CURVE SMOOTH",
"1019 512 OFFCURVE",
"1061 571 OFFCURVE",
"1061 589 CURVE SMOOTH",
"1061 599 OFFCURVE",
"1057 607 OFFCURVE",
"1047 613 CURVE",
"1025 628 OFFCURVE",
"926 663 OFFCURVE",
"899 663 CURVE SMOOTH",
"856 663 OFFCURVE",
"762 534 OFFCURVE",
"762 494 CURVE SMOOTH",
"762 485 OFFCURVE",
"765 472 OFFCURVE",
"813 443 CURVE SMOOTH",
"854 417 OFFCURVE",
"854 404 OFFCURVE",
"854 354 CURVE SMOOTH",
"854 171 LINE SMOOTH",
"854 121 OFFCURVE",
"834 89 OFFCURVE",
"737 89 CURVE SMOOTH",
"644 89 OFFCURVE",
"618 116 OFFCURVE",
"618 170 CURVE SMOOTH",
"618 488 LINE SMOOTH",
"618 593 OFFCURVE",
"560 663 OFFCURVE",
"374 663 CURVE SMOOTH",
"202 663 OFFCURVE",
"122 593 OFFCURVE",
"122 488 CURVE SMOOTH",
"122 108 LINE SMOOTH",
"122 35 OFFCURVE",
"166 0 OFFCURVE",
"243 0 CURVE SMOOTH"
);
}
);
width = 1472;
},
{
anchors = (
{
name = bottom;
position = "{1101, 0}";
},
{
name = bottomright;
position = "{1310, 0}";
},
{
name = top;
position = "{1465, 660}";
},
{
name = topcenter;
position = "{1101, 660}";
}
);
layerId = "EF9CD0BC-E2A6-4ABC-B2EB-28760EBC66CA";
paths = (
{
closed = 1;
nodes = (
"298 0 OFFCURVE",
"341 40 OFFCURVE",
"341 113 CURVE SMOOTH",
"341 171 OFFCURVE",
"308 205 OFFCURVE",
"245 205 CURVE SMOOTH",
"229 205 OFFCURVE",
"221 198 OFFCURVE",
"221 183 CURVE SMOOTH",
"221 170 OFFCURVE",
"226 166 OFFCURVE",
"241 166 CURVE SMOOTH",
"283 166 OFFCURVE",
"300 147 OFFCURVE",
"300 110 CURVE SMOOTH",
"300 60 OFFCURVE",
"278 37 OFFCURVE",
"243 37 CURVE SMOOTH",
"210 37 OFFCURVE",
"194 54 OFFCURVE",
"194 95 CURVE SMOOTH",
"194 483 LINE SMOOTH",
"194 566 OFFCURVE",
"233 624 OFFCURVE",
"361 624 CURVE SMOOTH",
"493 624 OFFCURVE",
"527 564 OFFCURVE",
"527 483 CURVE SMOOTH",
"527 166 LINE SMOOTH",
"527 61 OFFCURVE",
"595 0 OFFCURVE",
"729 0 CURVE SMOOTH",
"825 0 OFFCURVE",
"889 31 OFFCURVE",
"918 87 CURVE",
"944 31 OFFCURVE",
"1005 0 OFFCURVE",
"1101 0 CURVE SMOOTH",
"1235 0 OFFCURVE",
"1310 61 OFFCURVE",
"1310 166 CURVE SMOOTH",
"1310 421 LINE SMOOTH",
"1310 463 OFFCURVE",
"1291 483 OFFCURVE",
"1226 523 CURVE SMOOTH",
"1212 532 OFFCURVE",
"1211 534 OFFCURVE",
"1211 538 CURVE SMOOTH",
"1211 551 OFFCURVE",
"1268 620 OFFCURVE",
"1283 620 CURVE SMOOTH",
"1311 620 OFFCURVE",
"1366 585 OFFCURVE",
"1383 585 CURVE SMOOTH",
"1392 585 OFFCURVE",
"1405 599 OFFCURVE",
"1405 610 CURVE SMOOTH",
"1405 615 OFFCURVE",
"1403 618 OFFCURVE",
"1395 622 CURVE",
"1309 659 OFFCURVE",
"1296 663 OFFCURVE",
"1285 663 CURVE SMOOTH",
"1256 663 OFFCURVE",
"1166 560 OFFCURVE",
"1166 530 CURVE SMOOTH",
"1166 521 OFFCURVE",
"1170 513 OFFCURVE",
"1193 498 CURVE SMOOTH",
"1261 452 OFFCURVE",
"1271 445 OFFCURVE",
"1271 410 CURVE SMOOTH",
"1271 180 LINE SMOOTH",
"1271 97 OFFCURVE",
"1232 39 OFFCURVE",
"1104 39 CURVE SMOOTH",
"972 39 OFFCURVE",
"938 99 OFFCURVE",
"938 180 CURVE SMOOTH",
"938 421 LINE SMOOTH",
"938 463 OFFCURVE",
"919 483 OFFCURVE",
"854 523 CURVE SMOOTH",
"840 532 OFFCURVE",
"839 534 OFFCURVE",
"839 538 CURVE SMOOTH",
"839 551 OFFCURVE",
"896 620 OFFCURVE",
"911 620 CURVE SMOOTH",
"939 620 OFFCURVE",
"993 585 OFFCURVE",
"1011 585 CURVE SMOOTH",
"1020 585 OFFCURVE",
"1033 599 OFFCURVE",
"1033 610 CURVE SMOOTH",
"1033 615 OFFCURVE",
"1031 618 OFFCURVE",
"1023 622 CURVE",
"937 659 OFFCURVE",
"924 663 OFFCURVE",
"913 663 CURVE SMOOTH",
"884 663 OFFCURVE",
"794 560 OFFCURVE",
"794 530 CURVE SMOOTH",
"794 521 OFFCURVE",
"798 513 OFFCURVE",
"821 498 CURVE SMOOTH",
"889 452 OFFCURVE",
"899 445 OFFCURVE",
"899 410 CURVE SMOOTH",
"899 180 LINE SMOOTH",
"899 97 OFFCURVE",
"860 39 OFFCURVE",
"732 39 CURVE SMOOTH",
"600 39 OFFCURVE",
"566 99 OFFCURVE",
"566 180 CURVE SMOOTH",
"566 497 LINE SMOOTH",
"566 602 OFFCURVE",
"498 663 OFFCURVE",
"364 663 CURVE SMOOTH",
"230 663 OFFCURVE",
"155 602 OFFCURVE",
"155 497 CURVE SMOOTH",
"155 92 LINE SMOOTH",
"155 22 OFFCURVE",
"193 0 OFFCURVE",
"241 0 CURVE SMOOTH"
);
}
);
width = 1465;
}
);
note = uni1788;
unicode = 1788;
},
{
color = 5;
glyphname = "nyo-khmer";
lastChange = "2019-02-27 07:30:25 +0000";
layers = (
{
anchors = (
{
name = bottom;
position = "{738, -464}";
},
{
name = bottomright;
position = "{963, -464}";
},
{
name = top;
position = "{1103, 660}";
},
{
name = topcenter;
position = "{738, 660}";
}
);
components = (
{
name = "nyo-khmer.less";
}
);
layerId = "C00489B0-D6FE-4186-8C18-D0EE90D80B61";
paths = (
{
closed = 1;
nodes = (
"887 -398 OFFCURVE",
"960 -337 OFFCURVE",
"960 -233 CURVE SMOOTH",
"960 -154 OFFCURVE",
"911 -100 OFFCURVE",
"827 -100 CURVE SMOOTH",
"808 -100 OFFCURVE",
"790 -123 OFFCURVE",
"790 -146 CURVE SMOOTH",
"790 -156 OFFCURVE",
"794 -162 OFFCURVE",
"801 -162 CURVE SMOOTH",
"850 -162 OFFCURVE",
"885 -189 OFFCURVE",
"885 -235 CURVE SMOOTH",
"885 -290 OFFCURVE",
"843 -322 OFFCURVE",
"771 -322 CURVE SMOOTH",
"608 -322 OFFCURVE",
"494 -163 OFFCURVE",
"325 -163 CURVE SMOOTH",
"231 -163 OFFCURVE",
"143 -212 OFFCURVE",
"143 -267 CURVE SMOOTH",
"143 -278 OFFCURVE",
"161 -293 OFFCURVE",
"188 -293 CURVE SMOOTH",
"200 -293 OFFCURVE",
"207 -290 OFFCURVE",
"222 -275 CURVE SMOOTH",
"246 -251 OFFCURVE",
"277 -240 OFFCURVE",
"315 -240 CURVE SMOOTH",
"464 -240 OFFCURVE",
"580 -398 OFFCURVE",
"773 -398 CURVE SMOOTH"
);
}
);
width = 1103;
},
{
anchors = (
{
name = bottom;
position = "{735, -464}";
},
{
name = bottomright;
position = "{984, -464}";
},
{
name = top;
position = "{1106, 660}";
},
{
name = topcenter;
position = "{736, 660}";
}
);
components = (
{
name = "nyo-khmer.less";
}
);
layerId = "A071A550-EFB7-4955-8F98-3DB7A21E0E0F";
paths = (
{
closed = 1;
nodes = (
"905 -420 OFFCURVE",
"984 -352 OFFCURVE",
"984 -236 CURVE SMOOTH",
"984 -136 OFFCURVE",
"933 -100 OFFCURVE",
"875 -100 CURVE SMOOTH",
"828 -100 OFFCURVE",
"810 -130 OFFCURVE",
"810 -160 CURVE SMOOTH",
"810 -165 OFFCURVE",
"811 -168 OFFCURVE",
"819 -169 CURVE SMOOTH",
"845 -172 OFFCURVE",
"869 -181 OFFCURVE",
"869 -231 CURVE SMOOTH",
"869 -289 OFFCURVE",
"837 -317 OFFCURVE",
"784 -317 CURVE SMOOTH",
"657 -317 OFFCURVE",
"490 -131 OFFCURVE",
"315 -131 CURVE SMOOTH",
"182 -131 OFFCURVE",
"122 -196 OFFCURVE",
"122 -244 CURVE SMOOTH",
"122 -264 OFFCURVE",
"135 -287 OFFCURVE",
"164 -287 CURVE SMOOTH",
"180 -287 OFFCURVE",
"192 -283 OFFCURVE",
"204 -276 CURVE SMOOTH",
"232 -260 OFFCURVE",
"239 -234 OFFCURVE",
"299 -234 CURVE SMOOTH",
"396 -234 OFFCURVE",
"601 -420 OFFCURVE",
"780 -420 CURVE SMOOTH"
);
}
);
width = 1106;
},
{
anchors = (
{
name = bottom;
position = "{729, -464}";
},
{
name = bottomright;
position = "{938, -464}";
},
{
name = top;
position = "{1093, 660}";
},
{
name = topcenter;
position = "{729, 660}";
}
);
components = (
{
name = "nyo-khmer.less";
}
);
layerId = "EF9CD0BC-E2A6-4ABC-B2EB-28760EBC66CA";
paths = (
{
closed = 1;
nodes = (
"875 -373 OFFCURVE",
"938 -317 OFFCURVE",
"938 -219 CURVE SMOOTH",
"938 -147 OFFCURVE",
"902 -100 OFFCURVE",
"852 -100 CURVE SMOOTH",
"833 -100 OFFCURVE",
"821 -106 OFFCURVE",
"821 -123 CURVE SMOOTH",
"821 -136 OFFCURVE",
"828 -136 OFFCURVE",
"836 -136 CURVE SMOOTH",
"872 -136 OFFCURVE",
"898 -168 OFFCURVE",
"898 -219 CURVE SMOOTH",
"898 -294 OFFCURVE",
"851 -334 OFFCURVE",
"770 -334 CURVE SMOOTH",
"615 -334 OFFCURVE",
"471 -174 OFFCURVE",
"324 -174 CURVE SMOOTH",
"208 -174 OFFCURVE",
"155 -233 OFFCURVE",
"155 -268 CURVE SMOOTH",
"155 -277 OFFCURVE",
"168 -283 OFFCURVE",
"179 -283 CURVE SMOOTH",
"186 -283 OFFCURVE",
"190 -280 OFFCURVE",
"198 -267 CURVE SMOOTH",
"219 -233 OFFCURVE",
"251 -213 OFFCURVE",
"326 -213 CURVE SMOOTH",
"453 -213 OFFCURVE",
"602 -373 OFFCURVE",
"772 -373 CURVE SMOOTH"
);
}
);
width = 1093;
}
);
note = uni1789;
unicode = 1789;
},
{
color = 5;
glyphname = "nyo-khmer.less";
lastChange = "2019-02-26 07:52:05 +0000";
layers = (
{
anchors = (
{
name = bottom;
position = "{738, 0}";
},
{
name = top;
position = "{1103, 660}";
},
{
name = topcenter;
position = "{738, 660}";
}
);
components = (
{
name = "po-khmer";
}
);
layerId = "C00489B0-D6FE-4186-8C18-D0EE90D80B61";
paths = (
{
closed = 1;
nodes = (
"581 489 LINE",
"638 555 OFFCURVE",
"689 593 OFFCURVE",
"768 593 CURVE SMOOTH",
"842 593 OFFCURVE",
"885 544 OFFCURVE",
"885 460 CURVE SMOOTH",
"885 22 LINE SMOOTH",
"885 7 OFFCURVE",
"898 0 OFFCURVE",
"924 0 CURVE SMOOTH",
"949 0 OFFCURVE",
"963 7 OFFCURVE",
"963 22 CURVE SMOOTH",
"963 467 LINE SMOOTH",
"963 590 OFFCURVE",
"891 663 OFFCURVE",
"768 663 CURVE SMOOTH",
"674 663 OFFCURVE",
"606 614 OFFCURVE",
"546 543 CURVE"
);
}
);
width = 1103;
},
{
anchors = (
{
name = bottom;
position = "{735, 0}";
},
{
name = top;
position = "{1106, 660}";
},
{
name = topcenter;
position = "{736, 660}";
}
);
components = (
{
name = "po-khmer";
}
);
layerId = "A071A550-EFB7-4955-8F98-3DB7A21E0E0F";
paths = (
{
closed = 1;
nodes = (
"608 495 LINE",
"639 534 OFFCURVE",
"703 573 OFFCURVE",
"761 573 CURVE SMOOTH",
"827 573 OFFCURVE",
"854 541 OFFCURVE",
"854 475 CURVE SMOOTH",
"854 40 LINE SMOOTH",
"854 11 OFFCURVE",
"875 0 OFFCURVE",
"921 0 CURVE SMOOTH",
"965 0 OFFCURVE",
"984 13 OFFCURVE",
"984 40 CURVE SMOOTH",
"984 475 LINE SMOOTH",
"984 604 OFFCURVE",
"918 663 OFFCURVE",
"778 663 CURVE SMOOTH",
"696 663 OFFCURVE",
"625 622 OFFCURVE",
"571 566 CURVE"
);
}
);
width = 1106;
},
{
anchors = (
{
name = bottom;
position = "{724, 0}";
}
);
components = (
{
name = "po-khmer";
}
);
layerId = "EF9CD0BC-E2A6-4ABC-B2EB-28760EBC66CA";
paths = (
{
closed = 1;
nodes = (
"559 534 LINE",
"614 588 OFFCURVE",
"679 625 OFFCURVE",
"751 625 CURVE SMOOTH",
"838 625 OFFCURVE",
"899 568 OFFCURVE",
"899 485 CURVE SMOOTH",
"899 20 LINE SMOOTH",
"899 5 OFFCURVE",
"906 0 OFFCURVE",
"919 0 CURVE SMOOTH",
"931 0 OFFCURVE",
"938 5 OFFCURVE",
"938 20 CURVE SMOOTH",
"938 485 LINE SMOOTH",
"938 594 OFFCURVE",
"861 663 OFFCURVE",
"751 663 CURVE SMOOTH",
"671 663 OFFCURVE",
"602 628 OFFCURVE",
"536 563 CURVE"
);
}
);
width = 1098;
}
);
leftMetricsKey = "nyo-khmer";
note = glyph179;
},
{
glyphname = "da-khmer";
lastChange = "2018-12-17 08:25:10 +0000";
layers = (
{
anchors = (
{
name = bottom;
position = "{365, 0}";
},
{
name = bottomright;
position = "{590, 0}";
},
{
name = top;
position = "{730, 660}";
},
{
name = topcenter;
position = "{365, 660}";
}
);
layerId = "C00489B0-D6FE-4186-8C18-D0EE90D80B61";
paths = (
{
closed = 1;
nodes = (
"194 0 OFFCURVE",
"213 8 OFFCURVE",
"235 20 CURVE SMOOTH",
"334 76 LINE SMOOTH",
"350 85 OFFCURVE",
"357 88 OFFCURVE",
"361 88 CURVE SMOOTH",
"365 88 OFFCURVE",
"373 85 OFFCURVE",
"389 76 CURVE SMOOTH",
"488 20 LINE SMOOTH",
"514 5 OFFCURVE",
"533 0 OFFCURVE",
"551 0 CURVE SMOOTH",
"579 0 OFFCURVE",
"590 13 OFFCURVE",
"590 37 CURVE SMOOTH",
"590 376 LINE SMOOTH",
"590 391 OFFCURVE",
"577 398 OFFCURVE",
"552 398 CURVE SMOOTH",
"526 398 OFFCURVE",
"512 391 OFFCURVE",
"512 376 CURVE SMOOTH",
"512 100 LINE SMOOTH",
"512 95 OFFCURVE",
"511 92 OFFCURVE",
"507 92 CURVE SMOOTH",
"504 92 OFFCURVE",
"496 96 OFFCURVE",
"488 100 CURVE",
"395 153 LINE",
"379 163 OFFCURVE",
"371 165 OFFCURVE",
"365 165 CURVE SMOOTH",
"359 165 OFFCURVE",
"352 163 OFFCURVE",
"335 153 CURVE SMOOTH",
"242 100 LINE",
"234 96 OFFCURVE",
"226 92 OFFCURVE",
"223 92 CURVE SMOOTH",
"219 92 OFFCURVE",
"218 95 OFFCURVE",
"218 100 CURVE SMOOTH",
"218 376 LINE SMOOTH",
"218 391 OFFCURVE",
"204 398 OFFCURVE",
"179 398 CURVE SMOOTH",
"154 398 OFFCURVE",
"140 391 OFFCURVE",
"140 376 CURVE SMOOTH",
"140 37 LINE SMOOTH",
"140 13 OFFCURVE",
"151 0 OFFCURVE",
"178 0 CURVE SMOOTH"
);
},
{
closed = 1;
nodes = (
"520 401 OFFCURVE",
"605 527 OFFCURVE",
"605 677 CURVE SMOOTH",
"605 706 OFFCURVE",
"594 717 OFFCURVE",
"566 717 CURVE SMOOTH",
"540 717 OFFCURVE",
"528 707 OFFCURVE",
"528 679 CURVE SMOOTH",
"528 558 OFFCURVE",
"477 470 OFFCURVE",
"340 470 CURVE SMOOTH",
"240 470 OFFCURVE",
"203 507 OFFCURVE",
"203 542 CURVE SMOOTH",
"203 575 OFFCURVE",
"222 587 OFFCURVE",
"241 587 CURVE SMOOTH",
"264 587 OFFCURVE",
"277 583 OFFCURVE",
"285 556 CURVE",
"288 544 OFFCURVE",
"297 540 OFFCURVE",
"306 540 CURVE SMOOTH",
"314 540 OFFCURVE",
"343 552 OFFCURVE",
"343 585 CURVE SMOOTH",
"343 628 OFFCURVE",
"306 662 OFFCURVE",
"242 662 CURVE SMOOTH",
"176 662 OFFCURVE",
"125 614 OFFCURVE",
"125 546 CURVE SMOOTH",
"125 460 OFFCURVE",
"195 401 OFFCURVE",
"340 401 CURVE SMOOTH"
);
}
);
width = 730;
},
{
anchors = (
{
name = bottom;
position = "{369, 0}";
},
{
name = bottomright;
position = "{618, 0}";
},
{
name = top;
position = "{740, 660}";
},
{
name = topcenter;
position = "{370, 660}";
}
);
layerId = "A071A550-EFB7-4955-8F98-3DB7A21E0E0F";
paths = (
{
closed = 1;
nodes = (
"188 0 OFFCURVE",
"217 10 OFFCURVE",
"241 21 CURVE SMOOTH",
"339 67 LINE",
"351 72 OFFCURVE",
"357 75 OFFCURVE",
"366 75 CURVE SMOOTH",
"374 75 OFFCURVE",
"383 71 OFFCURVE",
"392 67 CURVE SMOOTH",
"494 20 LINE SMOOTH",
"523 6 OFFCURVE",
"540 0 OFFCURVE",
"563 0 CURVE SMOOTH",
"604 0 OFFCURVE",
"618 25 OFFCURVE",
"618 58 CURVE SMOOTH",
"618 358 LINE SMOOTH",
"618 387 OFFCURVE",
"597 398 OFFCURVE",
"554 398 CURVE SMOOTH",
"509 398 OFFCURVE",
"488 387 OFFCURVE",
"488 358 CURVE SMOOTH",
"488 134 LINE SMOOTH",
"488 128 OFFCURVE",
"485 126 OFFCURVE",
"481 126 CURVE SMOOTH",
"477 126 OFFCURVE",
"473 128 OFFCURVE",
"470 129 CURVE",
"399 157 LINE SMOOTH",
"386 162 OFFCURVE",
"378 166 OFFCURVE",
"369 166 CURVE SMOOTH",
"362 166 OFFCURVE",
"351 161 OFFCURVE",
"340 157 CURVE SMOOTH",
"270 129 LINE SMOOTH",
"265 127 OFFCURVE",
"262 126 OFFCURVE",
"259 126 CURVE SMOOTH",
"255 126 OFFCURVE",
"252 128 OFFCURVE",
"252 134 CURVE SMOOTH",
"252 358 LINE SMOOTH",
"252 387 OFFCURVE",
"231 398 OFFCURVE",
"188 398 CURVE SMOOTH",
"143 398 OFFCURVE",
"122 387 OFFCURVE",
"122 358 CURVE SMOOTH",
"122 58 LINE SMOOTH",
"122 25 OFFCURVE",
"135 0 OFFCURVE",
"174 0 CURVE SMOOTH"
);
},
{
closed = 1;
nodes = (
"496 402 OFFCURVE",
"617 540 OFFCURVE",
"617 676 CURVE SMOOTH",
"617 705 OFFCURVE",
"599 716 OFFCURVE",
"565 716 CURVE SMOOTH",
"535 716 OFFCURVE",
"518 706 OFFCURVE",
"513 678 CURVE SMOOTH",
"494 573 OFFCURVE",
"433 507 OFFCURVE",
"331 507 CURVE SMOOTH",
"263 507 OFFCURVE",
"240 530 OFFCURVE",
"240 565 CURVE SMOOTH",
"240 586 OFFCURVE",
"250 601 OFFCURVE",
"269 601 CURVE SMOOTH",
"285 601 OFFCURVE",
"290 587 OFFCURVE",
"292 574 CURVE SMOOTH",
"294 557 OFFCURVE",
"305 551 OFFCURVE",
"321 551 CURVE SMOOTH",
"365 551 OFFCURVE",
"394 569 OFFCURVE",
"394 600 CURVE SMOOTH",
"394 648 OFFCURVE",
"354 677 OFFCURVE",
"273 677 CURVE SMOOTH",
"178 677 OFFCURVE",
"122 619 OFFCURVE",
"122 541 CURVE SMOOTH",
"122 455 OFFCURVE",
"200 402 OFFCURVE",
"334 402 CURVE SMOOTH"
);
}
);
width = 740;
},
{
anchors = (
{
name = bottom;
position = "{361, 0}";
},
{
name = bottomright;
position = "{566, 0}";
},
{
name = top;
position = "{721, 660}";
},
{
name = topcenter;
position = "{361, 660}";
}
);
layerId = "EF9CD0BC-E2A6-4ABC-B2EB-28760EBC66CA";
paths = (
{
closed = 1;
nodes = (
"193 0 OFFCURVE",
"209 6 OFFCURVE",
"230 19 CURVE SMOOTH",
"329 82 LINE SMOOTH",
"347 93 OFFCURVE",
"352 95 OFFCURVE",
"356 95 CURVE SMOOTH",
"360 95 OFFCURVE",
"364 94 OFFCURVE",
"384 82 CURVE SMOOTH",
"483 20 LINE SMOOTH",
"510 4 OFFCURVE",
"527 0 OFFCURVE",
"538 0 CURVE SMOOTH",
"555 0 OFFCURVE",
"566 9 OFFCURVE",
"566 26 CURVE SMOOTH",
"566 378 LINE SMOOTH",
"566 393 OFFCURVE",
"559 398 OFFCURVE",
"547 398 CURVE SMOOTH",
"534 398 OFFCURVE",
"527 393 OFFCURVE",
"527 378 CURVE SMOOTH",
"527 53 LINE SMOOTH",
"527 48 OFFCURVE",
"526 45 OFFCURVE",
"522 45 CURVE SMOOTH",
"519 45 OFFCURVE",
"511 49 OFFCURVE",
"503 54 CURVE SMOOTH",
"390 125 LINE SMOOTH",
"374 135 OFFCURVE",
"366 137 OFFCURVE",
"360 137 CURVE SMOOTH",
"354 137 OFFCURVE",
"347 135 OFFCURVE",
"330 125 CURVE SMOOTH",
"218 54 LINE SMOOTH",
"209 48 OFFCURVE",
"202 45 OFFCURVE",
"199 45 CURVE SMOOTH",
"195 45 OFFCURVE",
"194 48 OFFCURVE",
"194 53 CURVE SMOOTH",
"194 378 LINE SMOOTH",
"194 393 OFFCURVE",
"187 398 OFFCURVE",
"175 398 CURVE SMOOTH",
"162 398 OFFCURVE",
"155 393 OFFCURVE",
"155 378 CURVE SMOOTH",
"155 26 LINE SMOOTH",
"155 10 OFFCURVE",
"166 0 OFFCURVE",
"182 0 CURVE SMOOTH"
);
},
{
closed = 1;
nodes = (
"507 412 OFFCURVE",
"580 531 OFFCURVE",
"580 688 CURVE SMOOTH",
"580 710 OFFCURVE",
"577 717 OFFCURVE",
"561 717 CURVE SMOOTH",
"545 717 OFFCURVE",
"541 710 OFFCURVE",
"541 690 CURVE SMOOTH",
"541 538 OFFCURVE",
"478 450 OFFCURVE",
"335 450 CURVE SMOOTH",
"217 450 OFFCURVE",
"178 494 OFFCURVE",
"178 548 CURVE SMOOTH",
"178 603 OFFCURVE",
"205 627 OFFCURVE",
"241 627 CURVE SMOOTH",
"271 627 OFFCURVE",
"297 610 OFFCURVE",
"301 571 CURVE SMOOTH",
"303 552 OFFCURVE",
"304 549 OFFCURVE",
"315 549 CURVE SMOOTH",
"328 549 OFFCURVE",
"341 558 OFFCURVE",
"341 577 CURVE SMOOTH",
"341 620 OFFCURVE",
"305 662 OFFCURVE",
"241 662 CURVE SMOOTH",
"179 662 OFFCURVE",
"138 613 OFFCURVE",
"138 548 CURVE SMOOTH",
"138 462 OFFCURVE",
"206 412 OFFCURVE",
"335 412 CURVE SMOOTH"
);
}
);
width = 721;
}
);
note = uni178A;
unicode = 178A;
},
{
glyphname = "ttha-khmer";
lastChange = "2019-02-18 08:38:27 +0000";
layers = (
{
anchors = (
{
name = bottom;
position = "{365, 0}";
},
{
name = bottomright;
position = "{590, 0}";
},
{
name = top;
position = "{730, 660}";
},
{
name = topcenter;
position = "{365, 660}";
}
);
layerId = "C00489B0-D6FE-4186-8C18-D0EE90D80B61";
paths = (
{
closed = 1;
nodes = (
"510 0 OFFCURVE",
"590 61 OFFCURVE",
"590 166 CURVE SMOOTH",
"590 437 LINE SMOOTH",
"590 481 OFFCURVE",
"574 498 OFFCURVE",
"497 541 CURVE SMOOTH",
"488 546 OFFCURVE",
"485 550 OFFCURVE",
"485 554 CURVE SMOOTH",
"485 564 OFFCURVE",
"507 590 OFFCURVE",
"521 590 CURVE SMOOTH",
"539 590 OFFCURVE",
"566 573 OFFCURVE",
"604 573 CURVE SMOOTH",
"661 573 OFFCURVE",
"699 610 OFFCURVE",
"699 670 CURVE SMOOTH",
"699 737 OFFCURVE",
"643 789 OFFCURVE",
"576 789 CURVE SMOOTH",
"550 789 OFFCURVE",
"535 769 OFFCURVE",
"535 744 CURVE SMOOTH",
"535 734 OFFCURVE",
"541 729 OFFCURVE",
"545 728 CURVE",
"589 725 OFFCURVE",
"626 699 OFFCURVE",
"626 669 CURVE SMOOTH",
"626 653 OFFCURVE",
"616 644 OFFCURVE",
"601 644 CURVE SMOOTH",
"577 644 OFFCURVE",
"542 662 OFFCURVE",
"529 662 CURVE SMOOTH",
"487 662 OFFCURVE",
"404 564 OFFCURVE",
"404 534 CURVE SMOOTH",
"404 522 OFFCURVE",
"413 515 OFFCURVE",
"426 507 CURVE SMOOTH",
"505 458 OFFCURVE",
"512 450 OFFCURVE",
"512 421 CURVE SMOOTH",
"512 184 LINE SMOOTH",
"512 112 OFFCURVE",
"485 70 OFFCURVE",
"365 70 CURVE SMOOTH",
"245 70 OFFCURVE",
"218 112 OFFCURVE",
"218 184 CURVE SMOOTH",
"218 543 LINE SMOOTH",
"218 631 OFFCURVE",
"185 661 OFFCURVE",
"115 661 CURVE SMOOTH",
"42 661 OFFCURVE",
"-12 606 OFFCURVE",
"-12 533 CURVE SMOOTH",
"-12 475 OFFCURVE",
"31 433 OFFCURVE",
"87 433 CURVE SMOOTH",
"110 433 OFFCURVE",
"122 443 OFFCURVE",
"122 479 CURVE SMOOTH",
"122 494 OFFCURVE",
"114 498 OFFCURVE",
"101 498 CURVE SMOOTH",
"79 498 OFFCURVE",
"60 510 OFFCURVE",
"60 540 CURVE SMOOTH",
"60 574 OFFCURVE",
"78 596 OFFCURVE",
"106 596 CURVE SMOOTH",
"126 596 OFFCURVE",
"140 590 OFFCURVE",
"140 546 CURVE SMOOTH",
"140 166 LINE SMOOTH",
"140 61 OFFCURVE",
"220 0 OFFCURVE",
"365 0 CURVE SMOOTH"
);
}
);
width = 730;
},
{
anchors = (
{
name = bottom;
position = "{369, 0}";
},
{
name = bottomright;
position = "{618, 0}";
},
{
name = top;
position = "{740, 660}";
},
{
name = topcenter;
position = "{370, 660}";
}
);
layerId = "A071A550-EFB7-4955-8F98-3DB7A21E0E0F";
paths = (
{
closed = 1;
nodes = (
"538 0 OFFCURVE",
"618 70 OFFCURVE",
"618 175 CURVE SMOOTH",
"618 371 LINE SMOOTH",
"618 460 OFFCURVE",
"597 473 OFFCURVE",
"512 523 CURVE",
"506 526 OFFCURVE",
"502 531 OFFCURVE",
"502 536 CURVE SMOOTH",
"502 542 OFFCURVE",
"516 563 OFFCURVE",
"527 563 CURVE SMOOTH",
"535 563 OFFCURVE",
"562 556 OFFCURVE",
"582 556 CURVE SMOOTH",
"647 556 OFFCURVE",
"705 583 OFFCURVE",
"705 665 CURVE SMOOTH",
"705 729 OFFCURVE",
"652 775 OFFCURVE",
"582 775 CURVE SMOOTH",
"536 775 OFFCURVE",
"512 748 OFFCURVE",
"512 715 CURVE SMOOTH",
"512 704 OFFCURVE",
"514 700 OFFCURVE",
"526 700 CURVE SMOOTH",
"588 700 OFFCURVE",
"606 689 OFFCURVE",
"606 671 CURVE SMOOTH",
"606 657 OFFCURVE",
"596 649 OFFCURVE",
"578 649 CURVE SMOOTH",
"557 649 OFFCURVE",
"532 660 OFFCURVE",
"520 660 CURVE SMOOTH",
"488 660 OFFCURVE",
"396 534 OFFCURVE",
"396 494 CURVE SMOOTH",
"396 485 OFFCURVE",
"399 472 OFFCURVE",
"447 443 CURVE SMOOTH",
"488 417 OFFCURVE",
"488 404 OFFCURVE",
"488 354 CURVE SMOOTH",
"488 170 LINE SMOOTH",
"488 121 OFFCURVE",
"467 89 OFFCURVE",
"371 89 CURVE SMOOTH",
"278 89 OFFCURVE",
"252 116 OFFCURVE",
"252 170 CURVE SMOOTH",
"252 555 LINE SMOOTH",
"252 628 OFFCURVE",
"208 663 OFFCURVE",
"137 663 CURVE SMOOTH",
"59 663 OFFCURVE",
"4 620 OFFCURVE",
"4 524 CURVE SMOOTH",
"4 445 OFFCURVE",
"41 412 OFFCURVE",
"74 412 CURVE SMOOTH",
"100 412 OFFCURVE",
"115 437 OFFCURVE",
"115 473 CURVE SMOOTH",
"115 486 OFFCURVE",
"112 488 OFFCURVE",
"105 490 CURVE SMOOTH",
"97 492 OFFCURVE",
"91 496 OFFCURVE",
"91 536 CURVE SMOOTH",
"91 578 OFFCURVE",
"97 588 OFFCURVE",
"111 588 CURVE SMOOTH",
"120 588 OFFCURVE",
"122 585 OFFCURVE",
"122 576 CURVE SMOOTH",
"122 175 LINE SMOOTH",
"122 70 OFFCURVE",
"181 0 OFFCURVE",
"366 0 CURVE SMOOTH"
);
}
);
width = 740;
},
{
anchors = (
{
name = bottom;
position = "{361, 0}";
},
{
name = bottomright;
position = "{566, 0}";
},
{
name = top;
position = "{721, 660}";
},
{
name = topcenter;
position = "{361, 660}";
}
);
layerId = "EF9CD0BC-E2A6-4ABC-B2EB-28760EBC66CA";
paths = (
{
closed = 1;
nodes = (
"491 0 OFFCURVE",
"566 61 OFFCURVE",
"566 166 CURVE SMOOTH",
"566 447 LINE SMOOTH",
"566 489 OFFCURVE",
"546 508 OFFCURVE",
"482 549 CURVE SMOOTH",
"468 558 OFFCURVE",
"467 560 OFFCURVE",
"467 564 CURVE SMOOTH",
"467 577 OFFCURVE",
"499 618 OFFCURVE",
"514 618 CURVE SMOOTH",
"532 618 OFFCURVE",
"557 603 OFFCURVE",
"595 603 CURVE SMOOTH",
"635 603 OFFCURVE",
"675 629 OFFCURVE",
"675 684 CURVE SMOOTH",
"675 746 OFFCURVE",
"616 793 OFFCURVE",
"563 793 CURVE SMOOTH",
"549 793 OFFCURVE",
"540 783 OFFCURVE",
"540 770 CURVE SMOOTH",
"540 764 OFFCURVE",
"544 762 OFFCURVE",
"548 761 CURVE",
"605 750 OFFCURVE",
"635 721 OFFCURVE",
"635 681 CURVE SMOOTH",
"635 656 OFFCURVE",
"619 641 OFFCURVE",
"593 641 CURVE SMOOTH",
"566 641 OFFCURVE",
"529 661 OFFCURVE",
"516 661 CURVE SMOOTH",
"487 661 OFFCURVE",
"422 586 OFFCURVE",
"422 556 CURVE SMOOTH",
"422 547 OFFCURVE",
"426 539 OFFCURVE",
"449 524 CURVE SMOOTH",
"518 479 OFFCURVE",
"527 471 OFFCURVE",
"527 436 CURVE SMOOTH",
"527 180 LINE SMOOTH",
"527 97 OFFCURVE",
"488 39 OFFCURVE",
"360 39 CURVE SMOOTH",
"228 39 OFFCURVE",
"194 99 OFFCURVE",
"194 180 CURVE SMOOTH",
"194 571 LINE SMOOTH",
"194 641 OFFCURVE",
"156 663 OFFCURVE",
"108 663 CURVE SMOOTH",
"51 663 OFFCURVE",
"8 623 OFFCURVE",
"8 550 CURVE SMOOTH",
"8 492 OFFCURVE",
"41 458 OFFCURVE",
"104 458 CURVE SMOOTH",
"120 458 OFFCURVE",
"128 465 OFFCURVE",
"128 480 CURVE SMOOTH",
"128 493 OFFCURVE",
"123 497 OFFCURVE",
"108 497 CURVE SMOOTH",
"66 497 OFFCURVE",
"49 516 OFFCURVE",
"49 553 CURVE SMOOTH",
"49 603 OFFCURVE",
"71 626 OFFCURVE",
"106 626 CURVE SMOOTH",
"139 626 OFFCURVE",
"155 609 OFFCURVE",
"155 568 CURVE SMOOTH",
"155 166 LINE SMOOTH",
"155 61 OFFCURVE",
"223 0 OFFCURVE",
"357 0 CURVE SMOOTH"
);
}
);
width = 721;
}
);
note = uni178B;
unicode = 178B;
},
{
color = 5;
glyphname = "do-khmer";
lastChange = "2019-02-26 07:52:13 +0000";
layers = (
{
anchors = (
{
name = bottom;
position = "{365, 0}";
},
{
name = bottomright;
position = "{590, 0}";
},
{
name = top;
position = "{730, 660}";
},
{
name = topcenter;
position = "{365, 660}";
}
);
layerId = "C00489B0-D6FE-4186-8C18-D0EE90D80B61";
paths = (
{
closed = 1;
nodes = (
"130 405 OFFCURVE",
"185 371 OFFCURVE",
"248 371 CURVE SMOOTH",
"286 371 OFFCURVE",
"306 392 OFFCURVE",
"306 426 CURVE SMOOTH",
"306 439 OFFCURVE",
"302 446 OFFCURVE",
"296 446 CURVE SMOOTH",
"290 446 OFFCURVE",
"285 439 OFFCURVE",
"257 439 CURVE SMOOTH",
"227 439 OFFCURVE",
"204 457 OFFCURVE",
"204 512 CURVE SMOOTH",
"204 559 OFFCURVE",
"223 587 OFFCURVE",
"254 587 CURVE SMOOTH",
"295 587 OFFCURVE",
"332 512 OFFCURVE",
"365 512 CURVE SMOOTH",
"398 512 OFFCURVE",
"435 587 OFFCURVE",
"476 587 CURVE SMOOTH",
"505 587 OFFCURVE",
"522 559 OFFCURVE",
"522 512 CURVE SMOOTH",
"522 332 OFFCURVE",
"134 354 OFFCURVE",
"134 149 CURVE SMOOTH",
"134 47 OFFCURVE",
"175 0 OFFCURVE",
"269 0 CURVE SMOOTH",
"316 0 OFFCURVE",
"370 19 OFFCURVE",
"430 54 CURVE SMOOTH",
"473 80 OFFCURVE",
"501 106 OFFCURVE",
"512 125 CURVE",
"512 34 LINE SMOOTH",
"512 0 OFFCURVE",
"472 -3 OFFCURVE",
"472 -19 CURVE SMOOTH",
"472 -43 OFFCURVE",
"486 -65 OFFCURVE",
"523 -65 CURVE SMOOTH",
"563 -65 OFFCURVE",
"590 -38 OFFCURVE",
"590 22 CURVE SMOOTH",
"590 271 LINE SMOOTH",
"590 286 OFFCURVE",
"577 293 OFFCURVE",
"551 293 CURVE SMOOTH",
"526 293 OFFCURVE",
"512 286 OFFCURVE",
"512 271 CURVE SMOOTH",
"512 200 OFFCURVE",
"470 154 OFFCURVE",
"396 111 CURVE SMOOTH",
"349 83 OFFCURVE",
"311 70 OFFCURVE",
"275 70 CURVE SMOOTH",
"232 70 OFFCURVE",
"215 89 OFFCURVE",
"215 149 CURVE SMOOTH",
"215 299 OFFCURVE",
"600 277 OFFCURVE",
"600 512 CURVE SMOOTH",
"600 629 OFFCURVE",
"534 663 OFFCURVE",
"483 663 CURVE SMOOTH",
"408 663 OFFCURVE",
"382 590 OFFCURVE",
"365 590 CURVE SMOOTH",
"348 590 OFFCURVE",
"322 663 OFFCURVE",
"247 663 CURVE SMOOTH",
"196 663 OFFCURVE",
"130 630 OFFCURVE",
"130 512 CURVE SMOOTH"
);
}
);
width = 730;
},
{
anchors = (
{
name = bottom;
position = "{369, 0}";
},
{
name = bottomright;
position = "{618, 0}";
},
{
name = top;
position = "{740, 660}";
},
{
name = topcenter;
position = "{370, 660}";
}
);
background = {
paths = (
{
closed = 1;
nodes = (
"563 -65 OFFCURVE",
"590 -38 OFFCURVE",
"590 22 CURVE SMOOTH",
"590 271 LINE SMOOTH",
"590 286 OFFCURVE",
"577 293 OFFCURVE",
"551 293 CURVE SMOOTH",
"526 293 OFFCURVE",
"512 286 OFFCURVE",
"512 271 CURVE SMOOTH",
"512 200 OFFCURVE",
"470 154 OFFCURVE",
"396 111 CURVE SMOOTH",
"349 83 OFFCURVE",
"311 70 OFFCURVE",
"275 70 CURVE SMOOTH",
"232 70 OFFCURVE",
"215 89 OFFCURVE",
"215 149 CURVE SMOOTH",
"215 299 OFFCURVE",
"600 278 OFFCURVE",
"600 494 CURVE SMOOTH",
"600 558 OFFCURVE",
"572 612 OFFCURVE",
"521 654 CURVE",
"513 660 OFFCURVE",
"507 663 OFFCURVE",
"500 663 CURVE SMOOTH",
"493 663 OFFCURVE",
"486 661 OFFCURVE",
"478 657 CURVE SMOOTH",
"389 616 LINE SMOOTH",
"378 611 OFFCURVE",
"373 610 OFFCURVE",
"371 610 CURVE SMOOTH",
"369 610 OFFCURVE",
"363 612 OFFCURVE",
"354 616 CURVE SMOOTH",
"273 655 LINE SMOOTH",
"261 661 OFFCURVE",
"254 664 OFFCURVE",
"247 664 CURVE SMOOTH",
"240 664 OFFCURVE",
"233 661 OFFCURVE",
"225 655 CURVE SMOOTH",
"158 607 OFFCURVE",
"130 552 OFFCURVE",
"130 494 CURVE SMOOTH",
"130 406 OFFCURVE",
"185 371 OFFCURVE",
"248 371 CURVE SMOOTH",
"286 371 OFFCURVE",
"306 392 OFFCURVE",
"306 426 CURVE SMOOTH",
"306 439 OFFCURVE",
"302 446 OFFCURVE",
"296 446 CURVE SMOOTH",
"290 446 OFFCURVE",
"285 439 OFFCURVE",
"257 439 CURVE SMOOTH",
"227 439 OFFCURVE",
"204 458 OFFCURVE",
"204 494 CURVE SMOOTH",
"204 532 OFFCURVE",
"214 556 OFFCURVE",
"238 580 CURVE SMOOTH",
"243 585 OFFCURVE",
"246 587 OFFCURVE",
"250 587 CURVE SMOOTH",
"254 587 OFFCURVE",
"259 586 OFFCURVE",
"267 582 CURVE SMOOTH",
"347 544 LINE SMOOTH",
"355 540 OFFCURVE",
"360 539 OFFCURVE",
"365 539 CURVE SMOOTH",
"370 539 OFFCURVE",
"375 540 OFFCURVE",
"385 545 CURVE SMOOTH",
"468 583 LINE",
"473 585 OFFCURVE",
"477 586 OFFCURVE",
"479 586 CURVE SMOOTH",
"483 586 OFFCURVE",
"486 584 OFFCURVE",
"491 579 CURVE SMOOTH",
"512 557 OFFCURVE",
"518 522 OFFCURVE",
"518 493 CURVE SMOOTH",
"518 333 OFFCURVE",
"134 354 OFFCURVE",
"134 149 CURVE SMOOTH",
"134 47 OFFCURVE",
"175 0 OFFCURVE",
"269 0 CURVE SMOOTH",
"316 0 OFFCURVE",
"370 19 OFFCURVE",
"430 54 CURVE SMOOTH",
"473 80 OFFCURVE",
"501 106 OFFCURVE",
"512 125 CURVE",
"512 34 LINE SMOOTH",
"512 0 OFFCURVE",
"472 -3 OFFCURVE",
"472 -19 CURVE SMOOTH",
"472 -43 OFFCURVE",
"486 -65 OFFCURVE",
"523 -65 CURVE SMOOTH"
);
}
);
};
layerId = "A071A550-EFB7-4955-8F98-3DB7A21E0E0F";
paths = (
{
closed = 1;
nodes = (
"630 630 OFFCURVE",
"556 663 OFFCURVE",
"500 663 CURVE SMOOTH",
"420 663 OFFCURVE",
"390 581 OFFCURVE",
"370 581 CURVE SMOOTH",
"350 581 OFFCURVE",
"320 663 OFFCURVE",
"240 663 CURVE SMOOTH",
"184 663 OFFCURVE",
"110 631 OFFCURVE",
"110 503 CURVE SMOOTH",
"110 402 OFFCURVE",
"167 365 OFFCURVE",
"230 365 CURVE SMOOTH",
"275 365 OFFCURVE",
"312 388 OFFCURVE",
"312 439 CURVE SMOOTH",
"312 456 OFFCURVE",
"308 464 OFFCURVE",
"302 464 CURVE SMOOTH",
"296 464 OFFCURVE",
"292 460 OFFCURVE",
"269 460 CURVE SMOOTH",
"248 460 OFFCURVE",
"236 476 OFFCURVE",
"236 503 CURVE SMOOTH",
"236 532 OFFCURVE",
"253 552 OFFCURVE",
"273 552 CURVE SMOOTH",
"300 552 OFFCURVE",
"340 487 OFFCURVE",
"370 487 CURVE SMOOTH",
"399 487 OFFCURVE",
"439 552 OFFCURVE",
"467 552 CURVE SMOOTH",
"486 552 OFFCURVE",
"502 532 OFFCURVE",
"502 503 CURVE SMOOTH",
"502 342 OFFCURVE",
"114 361 OFFCURVE",
"114 144 CURVE SMOOTH",
"114 69 OFFCURVE",
"151 0 OFFCURVE",
"273 0 CURVE SMOOTH",
"326 0 OFFCURVE",
"379 13 OFFCURVE",
"426 43 CURVE SMOOTH",
"448 56 OFFCURVE",
"469 74 OFFCURVE",
"488 95 CURVE",
"488 34 LINE SMOOTH",
"488 -24 OFFCURVE",
"466 -18 OFFCURVE",
"466 -29 CURVE SMOOTH",
"466 -49 OFFCURVE",
"487 -65 OFFCURVE",
"529 -65 CURVE SMOOTH",
"584 -65 OFFCURVE",
"618 -35 OFFCURVE",
"618 16 CURVE SMOOTH",
"618 232 LINE SMOOTH",
"618 264 OFFCURVE",
"593 272 OFFCURVE",
"555 272 CURVE SMOOTH",
"511 272 OFFCURVE",
"499 261 OFFCURVE",
"487 232 CURVE SMOOTH",
"469 191 OFFCURVE",
"437 145 OFFCURVE",
"393 117 CURVE SMOOTH",
"368 100 OFFCURVE",
"338 89 OFFCURVE",
"306 89 CURVE SMOOTH",
"261 89 OFFCURVE",
"242 107 OFFCURVE",
"242 144 CURVE SMOOTH",
"242 249 OFFCURVE",
"630 269 OFFCURVE",
"630 503 CURVE SMOOTH"
);
}
);
width = 740;
},
{
anchors = (
{
name = bottom;
position = "{361, 0}";
},
{
name = bottomright;
position = "{566, 0}";
},
{
name = top;
position = "{721, 660}";
},
{
name = topcenter;
position = "{361, 660}";
}
);
layerId = "EF9CD0BC-E2A6-4ABC-B2EB-28760EBC66CA";
paths = (
{
closed = 1;
nodes = (
"185 601 OFFCURVE",
"227 627 OFFCURVE",
"250 627 CURVE SMOOTH",
"297 627 OFFCURVE",
"318 539 OFFCURVE",
"360 539 CURVE SMOOTH",
"402 539 OFFCURVE",
"422 627 OFFCURVE",
"469 627 CURVE SMOOTH",
"493 627 OFFCURVE",
"535 601 OFFCURVE",
"535 508 CURVE SMOOTH",
"535 317 OFFCURVE",
"150 317 OFFCURVE",
"150 129 CURVE SMOOTH",
"150 51 OFFCURVE",
"188 0 OFFCURVE",
"278 0 CURVE SMOOTH",
"325 0 OFFCURVE",
"383 20 OFFCURVE",
"436 56 CURVE SMOOTH",
"470 79 OFFCURVE",
"508 113 OFFCURVE",
"527 146 CURVE",
"527 16 LINE SMOOTH",
"527 -44 OFFCURVE",
"498 -35 OFFCURVE",
"498 -42 CURVE SMOOTH",
"498 -54 OFFCURVE",
"505 -65 OFFCURVE",
"523 -65 CURVE SMOOTH",
"550 -65 OFFCURVE",
"566 -43 OFFCURVE",
"566 4 CURVE SMOOTH",
"566 259 LINE SMOOTH",
"566 274 OFFCURVE",
"559 279 OFFCURVE",
"546 279 CURVE SMOOTH",
"534 279 OFFCURVE",
"527 274 OFFCURVE",
"527 259 CURVE SMOOTH",
"527 191 OFFCURVE",
"503 147 OFFCURVE",
"423 90 CURVE SMOOTH",
"377 57 OFFCURVE",
"324 39 OFFCURVE",
"278 39 CURVE SMOOTH",
"219 39 OFFCURVE",
"192 70 OFFCURVE",
"192 129 CURVE SMOOTH",
"192 292 OFFCURVE",
"574 288 OFFCURVE",
"574 508 CURVE SMOOTH",
"574 626 OFFCURVE",
"517 663 OFFCURVE",
"470 663 CURVE SMOOTH",
"396 663 OFFCURVE",
"380 579 OFFCURVE",
"360 579 CURVE SMOOTH",
"341 579 OFFCURVE",
"326 663 OFFCURVE",
"251 663 CURVE SMOOTH",
"203 663 OFFCURVE",
"146 626 OFFCURVE",
"146 508 CURVE SMOOTH",
"146 429 OFFCURVE",
"191 394 OFFCURVE",
"254 394 CURVE SMOOTH",
"286 394 OFFCURVE",
"301 407 OFFCURVE",
"301 428 CURVE SMOOTH",
"301 437 OFFCURVE",
"297 443 OFFCURVE",
"291 443 CURVE SMOOTH",
"285 443 OFFCURVE",
"279 434 OFFCURVE",
"255 434 CURVE SMOOTH",
"207 434 OFFCURVE",
"185 463 OFFCURVE",
"185 508 CURVE SMOOTH"
);
}
);
width = 721;
},
{
anchors = (
{
name = bottom;
position = "{361, 0}";
},
{
name = bottomright;
position = "{566, 0}";
},
{
name = top;
position = "{721, 660}";
},
{
name = topcenter;
position = "{361, 660}";
}
);
associatedMasterId = "EF9CD0BC-E2A6-4ABC-B2EB-28760EBC66CA";
layerId = "326AA982-07C9-4106-B4F9-364D34734A67";
name = "Feb 26 19, 13:54";
paths = (
{
closed = 1;
nodes = (
"550 -65 OFFCURVE",
"566 -43 OFFCURVE",
"566 4 CURVE SMOOTH",
"566 259 LINE SMOOTH",
"566 274 OFFCURVE",
"559 279 OFFCURVE",
"546 279 CURVE SMOOTH",
"534 279 OFFCURVE",
"527 274 OFFCURVE",
"527 259 CURVE SMOOTH",
"527 191 OFFCURVE",
"503 147 OFFCURVE",
"423 90 CURVE SMOOTH",
"377 57 OFFCURVE",
"324 39 OFFCURVE",
"278 39 CURVE SMOOTH",
"219 39 OFFCURVE",
"192 70 OFFCURVE",
"192 129 CURVE SMOOTH",
"192 282 OFFCURVE",
"574 293 OFFCURVE",
"574 494 CURVE SMOOTH",
"574 575 OFFCURVE",
"540 631 OFFCURVE",
"508 653 CURVE SMOOTH",
"498 660 OFFCURVE",
"488 663 OFFCURVE",
"480 663 CURVE SMOOTH",
"474 663 OFFCURVE",
"466 661 OFFCURVE",
"455 655 CURVE SMOOTH",
"379 616 LINE SMOOTH",
"369 611 OFFCURVE",
"363 609 OFFCURVE",
"360 609 CURVE SMOOTH",
"357 609 OFFCURVE",
"352 611 OFFCURVE",
"344 615 CURVE SMOOTH",
"268 654 LINE SMOOTH",
"257 660 OFFCURVE",
"247 663 OFFCURVE",
"241 663 CURVE SMOOTH",
"233 663 OFFCURVE",
"224 660 OFFCURVE",
"216 655 CURVE SMOOTH",
"181 632 OFFCURVE",
"146 564 OFFCURVE",
"146 494 CURVE SMOOTH",
"146 419 OFFCURVE",
"191 384 OFFCURVE",
"254 384 CURVE SMOOTH",
"286 384 OFFCURVE",
"301 397 OFFCURVE",
"301 418 CURVE SMOOTH",
"301 427 OFFCURVE",
"297 433 OFFCURVE",
"291 433 CURVE SMOOTH",
"285 433 OFFCURVE",
"279 424 OFFCURVE",
"255 424 CURVE SMOOTH",
"207 424 OFFCURVE",
"188 453 OFFCURVE",
"188 494 CURVE SMOOTH",
"188 555 OFFCURVE",
"211 598 OFFCURVE",
"229 614 CURVE",
"234 619 OFFCURVE",
"239 622 OFFCURVE",
"243 622 CURVE SMOOTH",
"245 622 OFFCURVE",
"250 621 OFFCURVE",
"258 617 CURVE SMOOTH",
"339 576 LINE",
"348 572 OFFCURVE",
"355 570 OFFCURVE",
"360 570 CURVE SMOOTH",
"364 570 OFFCURVE",
"373 572 OFFCURVE",
"382 577 CURVE",
"459 616 LINE SMOOTH",
"467 620 OFFCURVE",
"473 622 OFFCURVE",
"476 622 CURVE SMOOTH",
"480 622 OFFCURVE",
"487 619 OFFCURVE",
"494 612 CURVE SMOOTH",
"511 595 OFFCURVE",
"532 556 OFFCURVE",
"532 493 CURVE SMOOTH",
"532 322 OFFCURVE",
"150 307 OFFCURVE",
"150 129 CURVE SMOOTH",
"150 51 OFFCURVE",
"188 0 OFFCURVE",
"278 0 CURVE SMOOTH",
"325 0 OFFCURVE",
"383 20 OFFCURVE",
"436 56 CURVE SMOOTH",
"470 79 OFFCURVE",
"508 113 OFFCURVE",
"527 146 CURVE",
"527 16 LINE SMOOTH",
"527 -44 OFFCURVE",
"498 -35 OFFCURVE",
"498 -42 CURVE SMOOTH",
"498 -54 OFFCURVE",
"505 -65 OFFCURVE",
"523 -65 CURVE SMOOTH"
);
}
);
width = 721;
},
{
anchors = (
{
name = bottom;
position = "{365, 0}";
},
{
name = bottomright;
position = "{590, 0}";
},
{
name = top;
position = "{730, 660}";
},
{
name = topcenter;
position = "{365, 660}";
}
);
associatedMasterId = "C00489B0-D6FE-4186-8C18-D0EE90D80B61";
layerId = "E77BFDCB-7A80-479B-B8A3-6E2EFDA61115";
name = "Feb 26 19, 13:58";
paths = (
{
closed = 1;
nodes = (
"563 -65 OFFCURVE",
"590 -38 OFFCURVE",
"590 22 CURVE SMOOTH",
"590 271 LINE SMOOTH",
"590 286 OFFCURVE",
"577 293 OFFCURVE",
"551 293 CURVE SMOOTH",
"526 293 OFFCURVE",
"512 286 OFFCURVE",
"512 271 CURVE SMOOTH",
"512 200 OFFCURVE",
"470 154 OFFCURVE",
"396 111 CURVE SMOOTH",
"349 83 OFFCURVE",
"311 70 OFFCURVE",
"275 70 CURVE SMOOTH",
"232 70 OFFCURVE",
"215 89 OFFCURVE",
"215 149 CURVE SMOOTH",
"215 299 OFFCURVE",
"600 278 OFFCURVE",
"600 494 CURVE SMOOTH",
"600 558 OFFCURVE",
"572 612 OFFCURVE",
"521 654 CURVE",
"513 660 OFFCURVE",
"507 663 OFFCURVE",
"500 663 CURVE SMOOTH",
"493 663 OFFCURVE",
"486 661 OFFCURVE",
"478 657 CURVE SMOOTH",
"389 616 LINE SMOOTH",
"378 611 OFFCURVE",
"373 610 OFFCURVE",
"371 610 CURVE SMOOTH",
"369 610 OFFCURVE",
"363 612 OFFCURVE",
"354 616 CURVE SMOOTH",
"273 655 LINE SMOOTH",
"261 661 OFFCURVE",
"254 664 OFFCURVE",
"247 664 CURVE SMOOTH",
"240 664 OFFCURVE",
"233 661 OFFCURVE",
"225 655 CURVE SMOOTH",
"158 607 OFFCURVE",
"130 552 OFFCURVE",
"130 494 CURVE SMOOTH",
"130 406 OFFCURVE",
"185 371 OFFCURVE",
"248 371 CURVE SMOOTH",
"286 371 OFFCURVE",
"306 392 OFFCURVE",
"306 426 CURVE SMOOTH",
"306 439 OFFCURVE",
"302 446 OFFCURVE",
"296 446 CURVE SMOOTH",
"290 446 OFFCURVE",
"285 439 OFFCURVE",
"257 439 CURVE SMOOTH",
"227 439 OFFCURVE",
"204 458 OFFCURVE",
"204 494 CURVE SMOOTH",
"204 532 OFFCURVE",
"214 556 OFFCURVE",
"238 580 CURVE SMOOTH",
"243 585 OFFCURVE",
"246 587 OFFCURVE",
"250 587 CURVE SMOOTH",
"254 587 OFFCURVE",
"259 586 OFFCURVE",
"267 582 CURVE SMOOTH",
"347 544 LINE SMOOTH",
"355 540 OFFCURVE",
"360 539 OFFCURVE",
"365 539 CURVE SMOOTH",
"370 539 OFFCURVE",
"375 540 OFFCURVE",
"385 545 CURVE SMOOTH",
"468 583 LINE",
"473 585 OFFCURVE",
"477 586 OFFCURVE",
"479 586 CURVE SMOOTH",
"483 586 OFFCURVE",
"486 584 OFFCURVE",
"491 579 CURVE SMOOTH",
"512 557 OFFCURVE",
"518 522 OFFCURVE",
"518 493 CURVE SMOOTH",
"518 333 OFFCURVE",
"134 354 OFFCURVE",
"134 149 CURVE SMOOTH",
"134 47 OFFCURVE",
"175 0 OFFCURVE",
"269 0 CURVE SMOOTH",
"316 0 OFFCURVE",
"370 19 OFFCURVE",
"430 54 CURVE SMOOTH",
"473 80 OFFCURVE",
"501 106 OFFCURVE",
"512 125 CURVE",
"512 34 LINE SMOOTH",
"512 0 OFFCURVE",
"472 -3 OFFCURVE",
"472 -19 CURVE SMOOTH",
"472 -43 OFFCURVE",
"486 -65 OFFCURVE",
"523 -65 CURVE SMOOTH"
);
}
);
width = 730;
},
{
anchors = (
{
name = bottom;
position = "{369, 0}";
},
{
name = bottomright;
position = "{618, 0}";
},
{
name = top;
position = "{740, 660}";
},
{
name = topcenter;
position = "{370, 660}";
}
);
associatedMasterId = "A071A550-EFB7-4955-8F98-3DB7A21E0E0F";
background = {
paths = (
{
closed = 1;
nodes = (
"563 -65 OFFCURVE",
"590 -38 OFFCURVE",
"590 22 CURVE SMOOTH",
"590 271 LINE SMOOTH",
"590 286 OFFCURVE",
"577 293 OFFCURVE",
"551 293 CURVE SMOOTH",
"526 293 OFFCURVE",
"512 286 OFFCURVE",
"512 271 CURVE SMOOTH",
"512 200 OFFCURVE",
"470 154 OFFCURVE",
"396 111 CURVE SMOOTH",
"349 83 OFFCURVE",
"311 70 OFFCURVE",
"275 70 CURVE SMOOTH",
"232 70 OFFCURVE",
"215 89 OFFCURVE",
"215 149 CURVE SMOOTH",
"215 299 OFFCURVE",
"600 278 OFFCURVE",
"600 494 CURVE SMOOTH",
"600 558 OFFCURVE",
"572 612 OFFCURVE",
"521 654 CURVE",
"513 660 OFFCURVE",
"507 663 OFFCURVE",
"500 663 CURVE SMOOTH",
"493 663 OFFCURVE",
"486 661 OFFCURVE",
"478 657 CURVE SMOOTH",
"389 616 LINE SMOOTH",
"378 611 OFFCURVE",
"373 610 OFFCURVE",
"371 610 CURVE SMOOTH",
"369 610 OFFCURVE",
"363 612 OFFCURVE",
"354 616 CURVE SMOOTH",
"273 655 LINE SMOOTH",
"261 661 OFFCURVE",
"254 664 OFFCURVE",
"247 664 CURVE SMOOTH",
"240 664 OFFCURVE",
"233 661 OFFCURVE",
"225 655 CURVE SMOOTH",
"158 607 OFFCURVE",
"130 552 OFFCURVE",
"130 494 CURVE SMOOTH",
"130 406 OFFCURVE",
"185 371 OFFCURVE",
"248 371 CURVE SMOOTH",
"286 371 OFFCURVE",
"306 392 OFFCURVE",
"306 426 CURVE SMOOTH",
"306 439 OFFCURVE",
"302 446 OFFCURVE",
"296 446 CURVE SMOOTH",
"290 446 OFFCURVE",
"285 439 OFFCURVE",
"257 439 CURVE SMOOTH",
"227 439 OFFCURVE",
"204 458 OFFCURVE",
"204 494 CURVE SMOOTH",
"204 532 OFFCURVE",
"214 556 OFFCURVE",
"238 580 CURVE SMOOTH",
"243 585 OFFCURVE",
"246 587 OFFCURVE",
"250 587 CURVE SMOOTH",
"254 587 OFFCURVE",
"259 586 OFFCURVE",
"267 582 CURVE SMOOTH",
"347 544 LINE SMOOTH",
"355 540 OFFCURVE",
"360 539 OFFCURVE",
"365 539 CURVE SMOOTH",
"370 539 OFFCURVE",
"375 540 OFFCURVE",
"385 545 CURVE SMOOTH",
"468 583 LINE",
"473 585 OFFCURVE",
"477 586 OFFCURVE",
"479 586 CURVE SMOOTH",
"483 586 OFFCURVE",
"486 584 OFFCURVE",
"491 579 CURVE SMOOTH",
"512 557 OFFCURVE",
"518 522 OFFCURVE",
"518 493 CURVE SMOOTH",
"518 333 OFFCURVE",
"134 354 OFFCURVE",
"134 149 CURVE SMOOTH",
"134 47 OFFCURVE",
"175 0 OFFCURVE",
"269 0 CURVE SMOOTH",
"316 0 OFFCURVE",
"370 19 OFFCURVE",
"430 54 CURVE SMOOTH",
"473 80 OFFCURVE",
"501 106 OFFCURVE",
"512 125 CURVE",
"512 34 LINE SMOOTH",
"512 0 OFFCURVE",
"472 -3 OFFCURVE",
"472 -19 CURVE SMOOTH",
"472 -43 OFFCURVE",
"486 -65 OFFCURVE",
"523 -65 CURVE SMOOTH"
);
}
);
};
layerId = "FBBFB33E-1B51-499D-8165-2127EC8903F1";
name = "Feb 26 19, 13:58";
paths = (
{
closed = 1;
nodes = (
"584 -65 OFFCURVE",
"618 -35 OFFCURVE",
"618 16 CURVE SMOOTH",
"618 232 LINE SMOOTH",
"618 264 OFFCURVE",
"593 272 OFFCURVE",
"555 272 CURVE SMOOTH",
"511 272 OFFCURVE",
"499 261 OFFCURVE",
"487 232 CURVE SMOOTH",
"469 191 OFFCURVE",
"437 145 OFFCURVE",
"393 117 CURVE SMOOTH",
"368 100 OFFCURVE",
"338 89 OFFCURVE",
"306 89 CURVE SMOOTH",
"261 89 OFFCURVE",
"242 107 OFFCURVE",
"242 144 CURVE SMOOTH",
"242 249 OFFCURVE",
"631 269 OFFCURVE",
"631 498 CURVE SMOOTH",
"631 591 OFFCURVE",
"580 641 OFFCURVE",
"546 657 CURVE SMOOTH",
"537 661 OFFCURVE",
"530 663 OFFCURVE",
"524 663 CURVE SMOOTH",
"514 663 OFFCURVE",
"498 658 OFFCURVE",
"480 651 CURVE SMOOTH",
"393 613 LINE SMOOTH",
"382 608 OFFCURVE",
"373 605 OFFCURVE",
"368 605 CURVE SMOOTH",
"364 605 OFFCURVE",
"359 606 OFFCURVE",
"347 611 CURVE SMOOTH",
"240 657 LINE SMOOTH",
"231 660 OFFCURVE",
"223 662 OFFCURVE",
"218 662 CURVE SMOOTH",
"208 662 OFFCURVE",
"198 659 OFFCURVE",
"188 653 CURVE SMOOTH",
"148 630 OFFCURVE",
"110 563 OFFCURVE",
"110 494 CURVE SMOOTH",
"110 392 OFFCURVE",
"167 365 OFFCURVE",
"230 365 CURVE SMOOTH",
"275 365 OFFCURVE",
"312 388 OFFCURVE",
"312 439 CURVE SMOOTH",
"312 456 OFFCURVE",
"308 464 OFFCURVE",
"302 464 CURVE SMOOTH",
"296 464 OFFCURVE",
"292 460 OFFCURVE",
"269 460 CURVE SMOOTH",
"246 460 OFFCURVE",
"226 468 OFFCURVE",
"226 501 CURVE SMOOTH",
"226 519 OFFCURVE",
"231 537 OFFCURVE",
"236 547 CURVE SMOOTH",
"238 552 OFFCURVE",
"241 555 OFFCURVE",
"243 555 CURVE",
"245 555 OFFCURVE",
"250 553 OFFCURVE",
"255 551 CURVE SMOOTH",
"334 522 LINE SMOOTH",
"346 518 OFFCURVE",
"358 516 OFFCURVE",
"366 516 CURVE SMOOTH",
"373 516 OFFCURVE",
"385 518 OFFCURVE",
"395 522 CURVE SMOOTH",
"463 551 LINE SMOOTH",
"470 554 OFFCURVE",
"473 555 OFFCURVE",
"475 555 CURVE SMOOTH",
"477 555 OFFCURVE",
"481 553 OFFCURVE",
"484 550 CURVE SMOOTH",
"492 541 OFFCURVE",
"502 524 OFFCURVE",
"502 496 CURVE SMOOTH",
"502 342 OFFCURVE",
"114 361 OFFCURVE",
"114 144 CURVE SMOOTH",
"114 69 OFFCURVE",
"151 0 OFFCURVE",
"273 0 CURVE SMOOTH",
"326 0 OFFCURVE",
"379 13 OFFCURVE",
"426 43 CURVE SMOOTH",
"448 56 OFFCURVE",
"469 74 OFFCURVE",
"488 95 CURVE",
"488 34 LINE SMOOTH",
"488 -24 OFFCURVE",
"466 -18 OFFCURVE",
"466 -29 CURVE SMOOTH",
"466 -49 OFFCURVE",
"487 -65 OFFCURVE",
"529 -65 CURVE SMOOTH"
);
}
);
width = 740;
}
);
note = uni178C;
unicode = 178C;
},
{
color = 5;
glyphname = "ttho-khmer";
lastChange = "2019-02-26 07:52:05 +0000";
layers = (
{
anchors = (
{
name = bottom;
position = "{738, 0}";
},
{
name = bottomright;
position = "{963, 0}";
},
{
name = top;
position = "{1103, 660}";
},
{
name = topcenter;
position = "{738, 660}";
}
);
layerId = "C00489B0-D6FE-4186-8C18-D0EE90D80B61";
paths = (
{
closed = 1;
nodes = (
"620 545 LINE",
"620 630 OFFCURVE",
"564 663 OFFCURVE",
"513 663 CURVE SMOOTH",
"438 663 OFFCURVE",
"397 590 OFFCURVE",
"380 590 CURVE SMOOTH",
"363 590 OFFCURVE",
"322 663 OFFCURVE",
"247 663 CURVE SMOOTH",
"196 663 OFFCURVE",
"140 631 OFFCURVE",
"140 546 CURVE SMOOTH",
"140 112 LINE SMOOTH",
"140 39 OFFCURVE",
"176 0 OFFCURVE",
"251 0 CURVE SMOOTH",
"321 0 OFFCURVE",
"370 48 OFFCURVE",
"370 122 CURVE SMOOTH",
"370 187 OFFCURVE",
"326 228 OFFCURVE",
"273 228 CURVE SMOOTH",
"251 228 OFFCURVE",
"233 217 OFFCURVE",
"233 185 CURVE SMOOTH",
"233 169 OFFCURVE",
"243 163 OFFCURVE",
"257 163 CURVE SMOOTH",
"278 163 OFFCURVE",
"297 147 OFFCURVE",
"297 117 CURVE SMOOTH",
"297 83 OFFCURVE",
"279 65 OFFCURVE",
"255 65 CURVE SMOOTH",
"230 65 OFFCURVE",
"218 80 OFFCURVE",
"218 119 CURVE SMOOTH",
"218 540 LINE SMOOTH",
"218 573 OFFCURVE",
"232 587 OFFCURVE",
"257 587 CURVE SMOOTH",
"295 587 OFFCURVE",
"347 512 OFFCURVE",
"380 512 CURVE SMOOTH",
"413 512 OFFCURVE",
"465 587 OFFCURVE",
"503 587 CURVE SMOOTH",
"528 587 OFFCURVE",
"542 573 OFFCURVE",
"542 540 CURVE",
"542 198 LINE",
"543 183 LINE",
"543 92 LINE SMOOTH",
"543 64 OFFCURVE",
"536 58 OFFCURVE",
"526 58 CURVE SMOOTH",
"509 58 OFFCURVE",
"504 75 OFFCURVE",
"504 106 CURVE SMOOTH",
"504 141 OFFCURVE",
"518 163 OFFCURVE",
"538 163 CURVE",
"547 163 OFFCURVE",
"568 157 OFFCURVE",
"582 150 CURVE",
"655 118 OFFCURVE",
"729 0 OFFCURVE",
"837 0 CURVE SMOOTH",
"920 0 OFFCURVE",
"963 46 OFFCURVE",
"963 129 CURVE SMOOTH",
"963 424 LINE SMOOTH",
"963 468 OFFCURVE",
"947 485 OFFCURVE",
"870 528 CURVE SMOOTH",
"861 533 OFFCURVE",
"858 537 OFFCURVE",
"858 541 CURVE SMOOTH",
"858 551 OFFCURVE",
"890 590 OFFCURVE",
"903 590 CURVE SMOOTH",
"927 590 OFFCURVE",
"992 554 OFFCURVE",
"1013 554 CURVE SMOOTH",
"1035 554 OFFCURVE",
"1058 586 OFFCURVE",
"1058 598 CURVE SMOOTH",
"1058 605 OFFCURVE",
"1054 610 OFFCURVE",
"1045 615 CURVE SMOOTH",
"996 642 OFFCURVE",
"929 663 OFFCURVE",
"912 663 CURVE SMOOTH",
"870 663 OFFCURVE",
"777 551 OFFCURVE",
"777 521 CURVE SMOOTH",
"777 509 OFFCURVE",
"786 502 OFFCURVE",
"799 494 CURVE SMOOTH",
"878 445 OFFCURVE",
"885 437 OFFCURVE",
"885 408 CURVE SMOOTH",
"885 133 LINE SMOOTH",
"885 92 OFFCURVE",
"870 74 OFFCURVE",
"833 74 CURVE SMOOTH",
"751 74 OFFCURVE",
"679 188 OFFCURVE",
"584 215 CURVE",
"570 217 OFFCURVE",
"550 219 OFFCURVE",
"541 219 CURVE",
"486 219 OFFCURVE",
"442 184 OFFCURVE",
"442 107 CURVE SMOOTH",
"442 41 OFFCURVE",
"473 0 OFFCURVE",
"527 0 CURVE SMOOTH",
"583 0 OFFCURVE",
"620 32 OFFCURVE",
"620 99 CURVE"
);
}
);
width = 1103;
},
{
anchors = (
{
name = bottom;
position = "{735, 0}";
},
{
name = bottomright;
position = "{984, 0}";
},
{
name = top;
position = "{1115, 660}";
},
{
name = topcenter;
position = "{736, 660}";
}
);
layerId = "A071A550-EFB7-4955-8F98-3DB7A21E0E0F";
paths = (
{
closed = 1;
nodes = (
"321 0 OFFCURVE",
"383 42 OFFCURVE",
"383 139 CURVE SMOOTH",
"383 204 OFFCURVE",
"356 251 OFFCURVE",
"305 251 CURVE SMOOTH",
"275 251 OFFCURVE",
"260 233 OFFCURVE",
"260 200 CURVE SMOOTH",
"260 180 OFFCURVE",
"264 174 OFFCURVE",
"272 173 CURVE",
"284 171 OFFCURVE",
"290 167 OFFCURVE",
"290 127 CURVE SMOOTH",
"290 87 OFFCURVE",
"282 75 OFFCURVE",
"266 75 CURVE SMOOTH",
"256 75 OFFCURVE",
"252 77 OFFCURVE",
"252 87 CURVE SMOOTH",
"252 520 LINE SMOOTH",
"252 542 OFFCURVE",
"262 552 OFFCURVE",
"276 552 CURVE SMOOTH",
"301 552 OFFCURVE",
"350 487 OFFCURVE",
"380 487 CURVE SMOOTH",
"410 487 OFFCURVE",
"459 552 OFFCURVE",
"484 552 CURVE SMOOTH",
"498 552 OFFCURVE",
"508 542 OFFCURVE",
"508 520 CURVE",
"508 203 LINE",
"512 180 LINE",
"512 95 LINE SMOOTH",
"512 78 OFFCURVE",
"506 74 OFFCURVE",
"499 74 CURVE SMOOTH",
"489 74 OFFCURVE",
"482 88 OFFCURVE",
"482 110 CURVE SMOOTH",
"482 138 OFFCURVE",
"491 156 OFFCURVE",
"512 156 CURVE SMOOTH",
"525 156 OFFCURVE",
"542 152 OFFCURVE",
"559 150 CURVE",
"644 128 OFFCURVE",
"739 0 OFFCURVE",
"857 0 CURVE SMOOTH",
"942 0 OFFCURVE",
"984 43 OFFCURVE",
"984 132 CURVE SMOOTH",
"984 371 LINE SMOOTH",
"984 454 OFFCURVE",
"974 470 OFFCURVE",
"873 526 CURVE",
"869 528 OFFCURVE",
"867 531 OFFCURVE",
"867 533 CURVE SMOOTH",
"867 539 OFFCURVE",
"876 552 OFFCURVE",
"883 552 CURVE SMOOTH",
"897 552 OFFCURVE",
"973 512 OFFCURVE",
"992 512 CURVE SMOOTH",
"1019 512 OFFCURVE",
"1061 571 OFFCURVE",
"1061 589 CURVE SMOOTH",
"1061 599 OFFCURVE",
"1057 606 OFFCURVE",
"1047 613 CURVE SMOOTH",
"1025 628 OFFCURVE",
"926 663 OFFCURVE",
"899 663 CURVE SMOOTH",
"856 663 OFFCURVE",
"762 534 OFFCURVE",
"762 494 CURVE SMOOTH",
"762 485 OFFCURVE",
"766 472 OFFCURVE",
"813 443 CURVE SMOOTH",
"854 417 OFFCURVE",
"854 404 OFFCURVE",
"854 356 CURVE SMOOTH",
"854 145 LINE SMOOTH",
"854 116 OFFCURVE",
"843 105 OFFCURVE",
"818 105 CURVE SMOOTH",
"771 105 OFFCURVE",
"697 201 OFFCURVE",
"606 226 CURVE SMOOTH",
"584 232 OFFCURVE",
"564 234 OFFCURVE",
"525 234 CURVE SMOOTH",
"479 234 OFFCURVE",
"425 207 OFFCURVE",
"425 112 CURVE SMOOTH",
"425 40 OFFCURVE",
"461 0 OFFCURVE",
"527 0 CURVE SMOOTH",
"598 0 OFFCURVE",
"638 53 OFFCURVE",
"638 136 CURVE",
"638 535 LINE",
"638 630 OFFCURVE",
"576 663 OFFCURVE",
"520 663 CURVE SMOOTH",
"440 663 OFFCURVE",
"400 581 OFFCURVE",
"380 581 CURVE SMOOTH",
"360 581 OFFCURVE",
"320 663 OFFCURVE",
"240 663 CURVE SMOOTH",
"184 663 OFFCURVE",
"122 631 OFFCURVE",
"122 536 CURVE SMOOTH",
"122 108 LINE SMOOTH",
"122 35 OFFCURVE",
"166 0 OFFCURVE",
"243 0 CURVE SMOOTH"
);
}
);
width = 1115;
},
{
anchors = (
{
name = bottom;
position = "{729, 0}";
},
{
name = bottomright;
position = "{938, 0}";
},
{
name = top;
position = "{1093, 660}";
},
{
name = topcenter;
position = "{729, 660}";
}
);
layerId = "EF9CD0BC-E2A6-4ABC-B2EB-28760EBC66CA";
paths = (
{
closed = 1;
nodes = (
"585 561 LINE SMOOTH",
"585 626 OFFCURVE",
"547 663 OFFCURVE",
"495 663 CURVE SMOOTH",
"416 663 OFFCURVE",
"395 579 OFFCURVE",
"370 579 CURVE SMOOTH",
"346 579 OFFCURVE",
"326 663 OFFCURVE",
"246 663 CURVE SMOOTH",
"193 663 OFFCURVE",
"155 626 OFFCURVE",
"155 561 CURVE SMOOTH",
"155 92 LINE SMOOTH",
"155 22 OFFCURVE",
"194 0 OFFCURVE",
"239 0 CURVE SMOOTH",
"300 0 OFFCURVE",
"341 42 OFFCURVE",
"341 110 CURVE SMOOTH",
"341 171 OFFCURVE",
"307 205 OFFCURVE",
"252 205 CURVE SMOOTH",
"229 205 OFFCURVE",
"221 199 OFFCURVE",
"221 183 CURVE SMOOTH",
"221 165 OFFCURVE",
"231 167 OFFCURVE",
"241 166 CURVE",
"275 164 OFFCURVE",
"300 158 OFFCURVE",
"300 107 CURVE SMOOTH",
"300 60 OFFCURVE",
"278 37 OFFCURVE",
"242 37 CURVE SMOOTH",
"194 37 OFFCURVE",
"194 79 OFFCURVE",
"194 95 CURVE SMOOTH",
"194 560 LINE SMOOTH",
"194 601 OFFCURVE",
"217 627 OFFCURVE",
"245 627 CURVE SMOOTH",
"297 627 OFFCURVE",
"323 539 OFFCURVE",
"370 539 CURVE SMOOTH",
"417 539 OFFCURVE",
"442 627 OFFCURVE",
"494 627 CURVE SMOOTH",
"523 627 OFFCURVE",
"546 601 OFFCURVE",
"546 560 CURVE SMOOTH",
"546 97 LINE SMOOTH",
"546 52 OFFCURVE",
"538 36 OFFCURVE",
"516 36 CURVE SMOOTH",
"498 36 OFFCURVE",
"484 52 OFFCURVE",
"484 97 CURVE SMOOTH",
"484 145 OFFCURVE",
"500 168 OFFCURVE",
"534 168 CURVE SMOOTH",
"551 168 OFFCURVE",
"557 164 OFFCURVE",
"569 156 CURVE",
"646 121 OFFCURVE",
"749 0 OFFCURVE",
"837 0 CURVE SMOOTH",
"899 0 OFFCURVE",
"938 29 OFFCURVE",
"938 126 CURVE SMOOTH",
"938 421 LINE SMOOTH",
"938 463 OFFCURVE",
"919 483 OFFCURVE",
"854 523 CURVE SMOOTH",
"840 532 OFFCURVE",
"839 534 OFFCURVE",
"839 538 CURVE SMOOTH",
"839 551 OFFCURVE",
"896 620 OFFCURVE",
"911 620 CURVE SMOOTH",
"940 620 OFFCURVE",
"993 585 OFFCURVE",
"1011 585 CURVE SMOOTH",
"1020 585 OFFCURVE",
"1033 599 OFFCURVE",
"1033 610 CURVE SMOOTH",
"1033 615 OFFCURVE",
"1031 618 OFFCURVE",
"1023 622 CURVE",
"937 659 OFFCURVE",
"924 663 OFFCURVE",
"913 663 CURVE SMOOTH",
"884 663 OFFCURVE",
"794 560 OFFCURVE",
"794 530 CURVE SMOOTH",
"794 521 OFFCURVE",
"798 513 OFFCURVE",
"821 498 CURVE SMOOTH",
"889 452 OFFCURVE",
"899 445 OFFCURVE",
"899 410 CURVE SMOOTH",
"899 131 LINE SMOOTH",
"899 60 OFFCURVE",
"877 38 OFFCURVE",
"839 38 CURVE SMOOTH",
"758 38 OFFCURVE",
"642 174 OFFCURVE",
"568 199 CURVE SMOOTH",
"558 202 OFFCURVE",
"548 204 OFFCURVE",
"534 204 CURVE SMOOTH",
"473 204 OFFCURVE",
"444 169 OFFCURVE",
"444 97 CURVE SMOOTH",
"444 36 OFFCURVE",
"468 0 OFFCURVE",
"516 0 CURVE SMOOTH",
"560 0 OFFCURVE",
"585 34 OFFCURVE",
"585 91 CURVE SMOOTH"
);
}
);
width = 1093;
}
);
note = uni178D;
unicode = 178D;
},
{
glyphname = "nno-khmer";
lastChange = "2018-12-17 08:25:10 +0000";
layers = (
{
anchors = (
{
name = bottom;
position = "{738, 0}";
},
{
name = bottomright;
position = "{963, 0}";
},
{
name = top;
position = "{1475, 660}";
},
{
name = topcenter;
position = "{738, 660}";
}
);
layerId = "C00489B0-D6FE-4186-8C18-D0EE90D80B61";
paths = (
{
closed = 1;
nodes = (
"321 0 OFFCURVE",
"370 48 OFFCURVE",
"370 122 CURVE SMOOTH",
"370 187 OFFCURVE",
"326 228 OFFCURVE",
"273 228 CURVE SMOOTH",
"251 228 OFFCURVE",
"233 217 OFFCURVE",
"233 185 CURVE SMOOTH",
"233 169 OFFCURVE",
"243 163 OFFCURVE",
"257 163 CURVE SMOOTH",
"278 163 OFFCURVE",
"297 147 OFFCURVE",
"297 117 CURVE SMOOTH",
"297 83 OFFCURVE",
"279 65 OFFCURVE",
"255 65 CURVE SMOOTH",
"230 65 OFFCURVE",
"218 80 OFFCURVE",
"218 119 CURVE SMOOTH",
"218 479 LINE SMOOTH",
"218 551 OFFCURVE",
"245 593 OFFCURVE",
"365 593 CURVE SMOOTH",
"485 593 OFFCURVE",
"512 551 OFFCURVE",
"512 479 CURVE SMOOTH",
"512 37 LINE SMOOTH",
"512 13 OFFCURVE",
"524 0 OFFCURVE",
"551 0 CURVE SMOOTH",
"567 0 OFFCURVE",
"586 8 OFFCURVE",
"607 20 CURVE SMOOTH",
"707 76 LINE SMOOTH",
"722 84 OFFCURVE",
"729 87 OFFCURVE",
"733 87 CURVE SMOOTH",
"737 87 OFFCURVE",
"745 85 OFFCURVE",
"761 76 CURVE SMOOTH",
"860 20 LINE SMOOTH",
"886 5 OFFCURVE",
"906 0 OFFCURVE",
"923 0 CURVE SMOOTH",
"951 0 OFFCURVE",
"963 13 OFFCURVE",
"963 37 CURVE SMOOTH",
"963 479 LINE SMOOTH",
"963 551 OFFCURVE",
"990 593 OFFCURVE",
"1110 593 CURVE SMOOTH",
"1230 593 OFFCURVE",
"1257 551 OFFCURVE",
"1257 479 CURVE SMOOTH",
"1257 22 LINE SMOOTH",
"1257 7 OFFCURVE",
"1271 0 OFFCURVE",
"1296 0 CURVE SMOOTH",
"1321 0 OFFCURVE",
"1335 7 OFFCURVE",
"1335 22 CURVE SMOOTH",
"1335 497 LINE SMOOTH",
"1335 602 OFFCURVE",
"1255 663 OFFCURVE",
"1110 663 CURVE SMOOTH",
"965 663 OFFCURVE",
"885 602 OFFCURVE",
"885 497 CURVE SMOOTH",
"885 100 LINE SMOOTH",
"885 95 OFFCURVE",
"884 92 OFFCURVE",
"879 92 CURVE SMOOTH",
"876 92 OFFCURVE",
"869 96 OFFCURVE",
"861 100 CURVE",
"768 153 LINE SMOOTH",
"751 163 OFFCURVE",
"744 165 OFFCURVE",
"738 165 CURVE SMOOTH",
"732 165 OFFCURVE",
"724 162 OFFCURVE",
"708 153 CURVE SMOOTH",
"614 100 LINE",
"606 96 OFFCURVE",
"599 92 OFFCURVE",
"596 92 CURVE SMOOTH",
"591 92 OFFCURVE",
"590 95 OFFCURVE",
"590 100 CURVE SMOOTH",
"590 497 LINE SMOOTH",
"590 602 OFFCURVE",
"510 663 OFFCURVE",
"365 663 CURVE SMOOTH",
"220 663 OFFCURVE",
"140 602 OFFCURVE",
"140 497 CURVE SMOOTH",
"140 112 LINE SMOOTH",
"140 39 OFFCURVE",
"176 0 OFFCURVE",
"251 0 CURVE SMOOTH"
);
}
);
width = 1475;
},
{
anchors = (
{
name = bottom;
position = "{735, 0}";
},
{
name = bottomright;
position = "{984, 0}";
},
{
name = top;
position = "{1472, 660}";
},
{
name = topcenter;
position = "{736, 660}";
}
);
layerId = "A071A550-EFB7-4955-8F98-3DB7A21E0E0F";
paths = (
{
closed = 1;
nodes = (
"321 0 OFFCURVE",
"383 42 OFFCURVE",
"383 139 CURVE SMOOTH",
"383 204 OFFCURVE",
"354 251 OFFCURVE",
"307 251 CURVE SMOOTH",
"279 251 OFFCURVE",
"260 223 OFFCURVE",
"260 190 CURVE SMOOTH",
"260 176 OFFCURVE",
"264 174 OFFCURVE",
"272 173 CURVE",
"284 171 OFFCURVE",
"290 167 OFFCURVE",
"290 127 CURVE SMOOTH",
"290 87 OFFCURVE",
"282 75 OFFCURVE",
"266 75 CURVE SMOOTH",
"256 75 OFFCURVE",
"252 77 OFFCURVE",
"252 87 CURVE SMOOTH",
"252 492 LINE SMOOTH",
"252 542 OFFCURVE",
"273 574 OFFCURVE",
"369 574 CURVE SMOOTH",
"462 574 OFFCURVE",
"488 547 OFFCURVE",
"488 492 CURVE SMOOTH",
"488 58 LINE SMOOTH",
"488 25 OFFCURVE",
"501 0 OFFCURVE",
"540 0 CURVE SMOOTH",
"554 0 OFFCURVE",
"583 10 OFFCURVE",
"607 21 CURVE SMOOTH",
"705 67 LINE",
"717 72 OFFCURVE",
"723 75 OFFCURVE",
"732 75 CURVE SMOOTH",
"740 75 OFFCURVE",
"749 71 OFFCURVE",
"758 67 CURVE SMOOTH",
"860 20 LINE SMOOTH",
"889 6 OFFCURVE",
"906 0 OFFCURVE",
"929 0 CURVE SMOOTH",
"970 0 OFFCURVE",
"984 25 OFFCURVE",
"984 58 CURVE SMOOTH",
"984 492 LINE SMOOTH",
"984 542 OFFCURVE",
"1005 574 OFFCURVE",
"1101 574 CURVE SMOOTH",
"1194 574 OFFCURVE",
"1220 547 OFFCURVE",
"1220 492 CURVE SMOOTH",
"1220 40 LINE SMOOTH",
"1220 11 OFFCURVE",
"1241 0 OFFCURVE",
"1287 0 CURVE SMOOTH",
"1331 0 OFFCURVE",
"1350 13 OFFCURVE",
"1350 40 CURVE SMOOTH",
"1350 488 LINE SMOOTH",
"1350 593 OFFCURVE",
"1291 663 OFFCURVE",
"1105 663 CURVE SMOOTH",
"933 663 OFFCURVE",
"854 593 OFFCURVE",
"854 488 CURVE SMOOTH",
"854 134 LINE SMOOTH",
"854 128 OFFCURVE",
"851 126 OFFCURVE",
"847 126 CURVE SMOOTH",
"843 126 OFFCURVE",
"839 128 OFFCURVE",
"836 129 CURVE",
"765 157 LINE SMOOTH",
"752 162 OFFCURVE",
"744 166 OFFCURVE",
"735 166 CURVE SMOOTH",
"728 166 OFFCURVE",
"717 161 OFFCURVE",
"706 157 CURVE SMOOTH",
"636 129 LINE SMOOTH",
"631 127 OFFCURVE",
"628 126 OFFCURVE",
"625 126 CURVE SMOOTH",
"621 126 OFFCURVE",
"618 128 OFFCURVE",
"618 134 CURVE SMOOTH",
"618 488 LINE SMOOTH",
"618 593 OFFCURVE",
"559 663 OFFCURVE",
"374 663 CURVE SMOOTH",
"202 663 OFFCURVE",
"122 593 OFFCURVE",
"122 488 CURVE SMOOTH",
"122 108 LINE SMOOTH",
"122 35 OFFCURVE",
"166 0 OFFCURVE",
"243 0 CURVE SMOOTH"
);
}
);
width = 1472;
},
{
anchors = (
{
name = bottom;
position = "{729, 0}";
},
{
name = bottomright;
position = "{938, 0}";
},
{
name = top;
position = "{1465, 660}";
},
{
name = topcenter;
position = "{729, 660}";
}
);
layerId = "EF9CD0BC-E2A6-4ABC-B2EB-28760EBC66CA";
paths = (
{
closed = 1;
nodes = (
"298 0 OFFCURVE",
"341 40 OFFCURVE",
"341 113 CURVE SMOOTH",
"341 171 OFFCURVE",
"308 205 OFFCURVE",
"245 205 CURVE SMOOTH",
"229 205 OFFCURVE",
"221 198 OFFCURVE",
"221 183 CURVE SMOOTH",
"221 170 OFFCURVE",
"226 166 OFFCURVE",
"241 166 CURVE SMOOTH",
"283 166 OFFCURVE",
"300 147 OFFCURVE",
"300 110 CURVE SMOOTH",
"300 60 OFFCURVE",
"278 37 OFFCURVE",
"243 37 CURVE SMOOTH",
"210 37 OFFCURVE",
"194 54 OFFCURVE",
"194 95 CURVE SMOOTH",
"194 483 LINE SMOOTH",
"194 566 OFFCURVE",
"233 624 OFFCURVE",
"361 624 CURVE SMOOTH",
"493 624 OFFCURVE",
"527 564 OFFCURVE",
"527 483 CURVE SMOOTH",
"527 26 LINE SMOOTH",
"527 10 OFFCURVE",
"538 0 OFFCURVE",
"554 0 CURVE SMOOTH",
"565 0 OFFCURVE",
"581 6 OFFCURVE",
"602 19 CURVE SMOOTH",
"701 82 LINE SMOOTH",
"719 93 OFFCURVE",
"724 95 OFFCURVE",
"728 95 CURVE SMOOTH",
"732 95 OFFCURVE",
"736 94 OFFCURVE",
"756 82 CURVE SMOOTH",
"855 20 LINE SMOOTH",
"882 4 OFFCURVE",
"899 0 OFFCURVE",
"910 0 CURVE SMOOTH",
"927 0 OFFCURVE",
"938 9 OFFCURVE",
"938 26 CURVE SMOOTH",
"938 483 LINE SMOOTH",
"938 566 OFFCURVE",
"977 624 OFFCURVE",
"1105 624 CURVE SMOOTH",
"1237 624 OFFCURVE",
"1271 564 OFFCURVE",
"1271 483 CURVE SMOOTH",
"1271 20 LINE SMOOTH",
"1271 5 OFFCURVE",
"1278 0 OFFCURVE",
"1291 0 CURVE SMOOTH",
"1303 0 OFFCURVE",
"1310 5 OFFCURVE",
"1310 20 CURVE SMOOTH",
"1310 497 LINE SMOOTH",
"1310 602 OFFCURVE",
"1242 663 OFFCURVE",
"1108 663 CURVE SMOOTH",
"974 663 OFFCURVE",
"899 602 OFFCURVE",
"899 497 CURVE SMOOTH",
"899 53 LINE SMOOTH",
"899 48 OFFCURVE",
"898 45 OFFCURVE",
"894 45 CURVE SMOOTH",
"891 45 OFFCURVE",
"883 49 OFFCURVE",
"875 54 CURVE SMOOTH",
"762 125 LINE SMOOTH",
"746 135 OFFCURVE",
"738 137 OFFCURVE",
"732 137 CURVE SMOOTH",
"726 137 OFFCURVE",
"719 135 OFFCURVE",
"702 125 CURVE SMOOTH",
"590 54 LINE SMOOTH",
"581 48 OFFCURVE",
"574 45 OFFCURVE",
"571 45 CURVE SMOOTH",
"567 45 OFFCURVE",
"566 48 OFFCURVE",
"566 53 CURVE SMOOTH",
"566 497 LINE SMOOTH",
"566 602 OFFCURVE",
"498 663 OFFCURVE",
"364 663 CURVE SMOOTH",
"230 663 OFFCURVE",
"155 602 OFFCURVE",
"155 497 CURVE SMOOTH",
"155 92 LINE SMOOTH",
"155 22 OFFCURVE",
"193 0 OFFCURVE",
"241 0 CURVE SMOOTH"
);
}
);
width = 1465;
}
);
note = uni178E;
unicode = 178E;
},
{
glyphname = "ta-khmer";
lastChange = "2018-12-17 08:25:10 +0000";
layers = (
{
anchors = (
{
name = bottom;
position = "{365, 0}";
},
{
name = bottomright;
position = "{590, 0}";
},
{
name = top;
position = "{730, 660}";
},
{
name = topcenter;
position = "{365, 660}";
}
);
layerId = "C00489B0-D6FE-4186-8C18-D0EE90D80B61";
paths = (
{
closed = 1;
nodes = (
"321 0 OFFCURVE",
"370 48 OFFCURVE",
"370 122 CURVE SMOOTH",
"370 187 OFFCURVE",
"326 228 OFFCURVE",
"273 228 CURVE SMOOTH",
"251 228 OFFCURVE",
"233 217 OFFCURVE",
"233 185 CURVE SMOOTH",
"233 169 OFFCURVE",
"243 163 OFFCURVE",
"257 163 CURVE SMOOTH",
"278 163 OFFCURVE",
"297 147 OFFCURVE",
"297 117 CURVE SMOOTH",
"297 83 OFFCURVE",
"279 65 OFFCURVE",
"255 65 CURVE SMOOTH",
"230 65 OFFCURVE",
"218 80 OFFCURVE",
"218 119 CURVE SMOOTH",
"218 267 LINE SMOOTH",
"218 338 OFFCURVE",
"245 380 OFFCURVE",
"365 380 CURVE SMOOTH",
"485 380 OFFCURVE",
"512 338 OFFCURVE",
"512 267 CURVE SMOOTH",
"512 22 LINE SMOOTH",
"512 7 OFFCURVE",
"526 0 OFFCURVE",
"552 0 CURVE SMOOTH",
"577 0 OFFCURVE",
"590 7 OFFCURVE",
"590 22 CURVE SMOOTH",
"590 285 LINE SMOOTH",
"590 390 OFFCURVE",
"510 451 OFFCURVE",
"365 451 CURVE SMOOTH",
"220 451 OFFCURVE",
"140 390 OFFCURVE",
"140 285 CURVE SMOOTH",
"140 112 LINE SMOOTH",
"140 39 OFFCURVE",
"176 0 OFFCURVE",
"251 0 CURVE SMOOTH"
);
},
{
closed = 1;
nodes = (
"152 430 OFFCURVE",
"180 455 OFFCURVE",
"180 470 CURVE SMOOTH",
"180 475 OFFCURVE",
"178 479 OFFCURVE",
"172 485 CURVE",
"149 510 LINE",
"142 517 OFFCURVE",
"139 523 OFFCURVE",
"139 528 CURVE SMOOTH",
"139 539 OFFCURVE",
"191 586 OFFCURVE",
"206 586 CURVE SMOOTH",
"221 586 OFFCURVE",
"324 503 OFFCURVE",
"364 503 CURVE SMOOTH",
"395 503 OFFCURVE",
"485 586 OFFCURVE",
"498 586 CURVE SMOOTH",
"511 586 OFFCURVE",
"567 541 OFFCURVE",
"596 525 CURVE",
"604 521 OFFCURVE",
"610 518 OFFCURVE",
"617 518 CURVE SMOOTH",
"638 518 OFFCURVE",
"657 545 OFFCURVE",
"657 562 CURVE SMOOTH",
"657 569 OFFCURVE",
"653 576 OFFCURVE",
"646 582 CURVE SMOOTH",
"597 624 OFFCURVE",
"525 663 OFFCURVE",
"504 663 CURVE SMOOTH",
"478 663 OFFCURVE",
"381 580 OFFCURVE",
"366 580 CURVE SMOOTH",
"351 580 OFFCURVE",
"242 663 OFFCURVE",
"218 663 CURVE SMOOTH",
"176 663 OFFCURVE",
"56 554 OFFCURVE",
"56 518 CURVE SMOOTH",
"56 504 OFFCURVE",
"81 467 OFFCURVE",
"115 438 CURVE SMOOTH",
"122 432 OFFCURVE",
"127 430 OFFCURVE",
"137 430 CURVE SMOOTH"
);
}
);
width = 730;
},
{
anchors = (
{
name = bottom;
position = "{369, 0}";
},
{
name = bottomright;
position = "{618, 0}";
},
{
name = top;
position = "{740, 660}";
},
{
name = topcenter;
position = "{370, 660}";
}
);
layerId = "A071A550-EFB7-4955-8F98-3DB7A21E0E0F";
paths = (
{
closed = 1;
nodes = (
"321 0 OFFCURVE",
"383 42 OFFCURVE",
"383 139 CURVE SMOOTH",
"383 204 OFFCURVE",
"354 251 OFFCURVE",
"307 251 CURVE SMOOTH",
"279 251 OFFCURVE",
"260 223 OFFCURVE",
"260 190 CURVE SMOOTH",
"260 176 OFFCURVE",
"264 174 OFFCURVE",
"272 173 CURVE",
"284 171 OFFCURVE",
"290 167 OFFCURVE",
"290 127 CURVE SMOOTH",
"290 87 OFFCURVE",
"282 75 OFFCURVE",
"266 75 CURVE SMOOTH",
"256 75 OFFCURVE",
"252 77 OFFCURVE",
"252 87 CURVE SMOOTH",
"252 280 LINE SMOOTH",
"252 330 OFFCURVE",
"273 362 OFFCURVE",
"369 362 CURVE SMOOTH",
"462 362 OFFCURVE",
"488 335 OFFCURVE",
"488 280 CURVE SMOOTH",
"488 40 LINE SMOOTH",
"488 11 OFFCURVE",
"509 0 OFFCURVE",
"555 0 CURVE SMOOTH",
"599 0 OFFCURVE",
"618 13 OFFCURVE",
"618 40 CURVE SMOOTH",
"618 276 LINE SMOOTH",
"618 381 OFFCURVE",
"559 451 OFFCURVE",
"374 451 CURVE SMOOTH",
"202 451 OFFCURVE",
"122 381 OFFCURVE",
"122 276 CURVE SMOOTH",
"122 108 LINE SMOOTH",
"122 35 OFFCURVE",
"166 0 OFFCURVE",
"243 0 CURVE SMOOTH"
);
},
{
closed = 1;
nodes = (
"149 398 OFFCURVE",
"199 435 OFFCURVE",
"199 462 CURVE SMOOTH",
"199 469 OFFCURVE",
"196 474 OFFCURVE",
"190 482 CURVE",
"161 511 LINE SMOOTH",
"154 518 OFFCURVE",
"151 523 OFFCURVE",
"151 526 CURVE SMOOTH",
"151 534 OFFCURVE",
"174 555 OFFCURVE",
"185 555 CURVE SMOOTH",
"198 555 OFFCURVE",
"304 484 OFFCURVE",
"337 484 CURVE SMOOTH",
"368 484 OFFCURVE",
"449 551 OFFCURVE",
"462 551 CURVE SMOOTH",
"475 551 OFFCURVE",
"513 518 OFFCURVE",
"561 490 CURVE SMOOTH",
"568 486 OFFCURVE",
"580 483 OFFCURVE",
"590 483 CURVE SMOOTH",
"628 483 OFFCURVE",
"673 522 OFFCURVE",
"673 551 CURVE SMOOTH",
"673 562 OFFCURVE",
"669 567 OFFCURVE",
"647 583 CURVE SMOOTH",
"556 648 OFFCURVE",
"517 663 OFFCURVE",
"496 663 CURVE SMOOTH",
"467 663 OFFCURVE",
"390 595 OFFCURVE",
"366 595 CURVE SMOOTH",
"339 595 OFFCURVE",
"242 663 OFFCURVE",
"218 663 CURVE SMOOTH",
"179 663 OFFCURVE",
"26 543 OFFCURVE",
"26 498 CURVE SMOOTH",
"26 484 OFFCURVE",
"43 462 OFFCURVE",
"88 415 CURVE SMOOTH",
"95 408 OFFCURVE",
"109 398 OFFCURVE",
"119 398 CURVE SMOOTH"
);
}
);
width = 740;
},
{
anchors = (
{
name = bottom;
position = "{361, 0}";
},
{
name = bottomright;
position = "{566, 0}";
},
{
name = top;
position = "{721, 660}";
},
{
name = topcenter;
position = "{361, 660}";
}
);
layerId = "EF9CD0BC-E2A6-4ABC-B2EB-28760EBC66CA";
paths = (
{
closed = 1;
nodes = (
"298 0 OFFCURVE",
"341 40 OFFCURVE",
"341 113 CURVE SMOOTH",
"341 171 OFFCURVE",
"308 205 OFFCURVE",
"245 205 CURVE SMOOTH",
"229 205 OFFCURVE",
"221 198 OFFCURVE",
"221 183 CURVE SMOOTH",
"221 170 OFFCURVE",
"226 166 OFFCURVE",
"241 166 CURVE SMOOTH",
"283 166 OFFCURVE",
"300 147 OFFCURVE",
"300 110 CURVE SMOOTH",
"300 60 OFFCURVE",
"278 37 OFFCURVE",
"243 37 CURVE SMOOTH",
"210 37 OFFCURVE",
"194 54 OFFCURVE",
"194 95 CURVE SMOOTH",
"194 271 LINE SMOOTH",
"194 354 OFFCURVE",
"233 412 OFFCURVE",
"361 412 CURVE SMOOTH",
"493 412 OFFCURVE",
"527 352 OFFCURVE",
"527 271 CURVE SMOOTH",
"527 20 LINE SMOOTH",
"527 5 OFFCURVE",
"534 0 OFFCURVE",
"547 0 CURVE SMOOTH",
"559 0 OFFCURVE",
"566 5 OFFCURVE",
"566 20 CURVE SMOOTH",
"566 285 LINE SMOOTH",
"566 390 OFFCURVE",
"498 451 OFFCURVE",
"364 451 CURVE SMOOTH",
"230 451 OFFCURVE",
"155 390 OFFCURVE",
"155 285 CURVE SMOOTH",
"155 92 LINE SMOOTH",
"155 22 OFFCURVE",
"193 0 OFFCURVE",
"241 0 CURVE SMOOTH"
);
},
{
closed = 1;
nodes = (
"174 436 OFFCURVE",
"186 447 OFFCURVE",
"186 458 CURVE SMOOTH",
"186 462 OFFCURVE",
"184 465 OFFCURVE",
"179 470 CURVE SMOOTH",
"132 516 LINE SMOOTH",
"124 524 OFFCURVE",
"119 531 OFFCURVE",
"119 534 CURVE SMOOTH",
"119 547 OFFCURVE",
"194 620 OFFCURVE",
"209 620 CURVE SMOOTH",
"224 620 OFFCURVE",
"329 539 OFFCURVE",
"360 539 CURVE SMOOTH",
"383 539 OFFCURVE",
"482 620 OFFCURVE",
"495 620 CURVE SMOOTH",
"508 620 OFFCURVE",
"559 577 OFFCURVE",
"597 553 CURVE SMOOTH",
"605 548 OFFCURVE",
"610 546 OFFCURVE",
"615 546 CURVE SMOOTH",
"624 546 OFFCURVE",
"635 560 OFFCURVE",
"635 569 CURVE SMOOTH",
"635 574 OFFCURVE",
"634 576 OFFCURVE",
"627 582 CURVE",
"576 621 OFFCURVE",
"510 663 OFFCURVE",
"497 663 CURVE SMOOTH",
"477 663 OFFCURVE",
"376 580 OFFCURVE",
"361 580 CURVE SMOOTH",
"346 580 OFFCURVE",
"230 663 OFFCURVE",
"213 663 CURVE SMOOTH",
"184 663 OFFCURVE",
"75 560 OFFCURVE",
"75 530 CURVE SMOOTH",
"75 516 OFFCURVE",
"103 485 OFFCURVE",
"147 444 CURVE",
"154 438 OFFCURVE",
"159 436 OFFCURVE",
"163 436 CURVE SMOOTH"
);
}
);
width = 721;
}
);
note = uni178F;
unicode = 178F;
},
{
glyphname = "tha-khmer";
lastChange = "2018-12-17 08:25:10 +0000";
layers = (
{
anchors = (
{
name = bottom;
position = "{365, 0}";
},
{
name = bottomright;
position = "{590, 0}";
},
{
name = top;
position = "{730, 660}";
},
{
name = topcenter;
position = "{365, 660}";
}
);
layerId = "C00489B0-D6FE-4186-8C18-D0EE90D80B61";
paths = (
{
closed = 1;
nodes = (
"510 0 OFFCURVE",
"590 61 OFFCURVE",
"590 166 CURVE SMOOTH",
"590 348 LINE SMOOTH",
"590 436 OFFCURVE",
"558 465 OFFCURVE",
"488 465 CURVE SMOOTH",
"414 465 OFFCURVE",
"360 411 OFFCURVE",
"360 337 CURVE SMOOTH",
"360 279 OFFCURVE",
"404 237 OFFCURVE",
"460 237 CURVE SMOOTH",
"482 237 OFFCURVE",
"494 247 OFFCURVE",
"494 283 CURVE SMOOTH",
"494 298 OFFCURVE",
"487 302 OFFCURVE",
"474 302 CURVE SMOOTH",
"452 302 OFFCURVE",
"433 314 OFFCURVE",
"433 344 CURVE SMOOTH",
"433 378 OFFCURVE",
"451 400 OFFCURVE",
"479 400 CURVE SMOOTH",
"499 400 OFFCURVE",
"512 394 OFFCURVE",
"512 351 CURVE SMOOTH",
"512 184 LINE SMOOTH",
"512 112 OFFCURVE",
"485 70 OFFCURVE",
"365 70 CURVE SMOOTH",
"245 70 OFFCURVE",
"218 112 OFFCURVE",
"218 184 CURVE SMOOTH",
"218 414 LINE SMOOTH",
"218 436 OFFCURVE",
"208 448 OFFCURVE",
"176 481 CURVE SMOOTH",
"146 513 OFFCURVE",
"139 520 OFFCURVE",
"139 528 CURVE SMOOTH",
"139 539 OFFCURVE",
"198 591 OFFCURVE",
"214 591 CURVE SMOOTH",
"244 591 OFFCURVE",
"346 525 OFFCURVE",
"450 525 CURVE SMOOTH",
"550 525 OFFCURVE",
"620 580 OFFCURVE",
"620 663 CURVE SMOOTH",
"620 718 OFFCURVE",
"584 774 OFFCURVE",
"521 774 CURVE SMOOTH",
"493 774 OFFCURVE",
"479 751 OFFCURVE",
"479 729 CURVE SMOOTH",
"479 722 OFFCURVE",
"483 713 OFFCURVE",
"489 713 CURVE SMOOTH",
"527 713 OFFCURVE",
"542 688 OFFCURVE",
"542 663 CURVE SMOOTH",
"542 622 OFFCURVE",
"516 596 OFFCURVE",
"449 596 CURVE SMOOTH",
"366 596 OFFCURVE",
"256 663 OFFCURVE",
"218 663 CURVE SMOOTH",
"176 663 OFFCURVE",
"56 554 OFFCURVE",
"56 518 CURVE SMOOTH",
"56 504 OFFCURVE",
"67 488 OFFCURVE",
"97 456 CURVE SMOOTH",
"134 418 OFFCURVE",
"140 405 OFFCURVE",
"140 385 CURVE SMOOTH",
"140 166 LINE SMOOTH",
"140 61 OFFCURVE",
"220 0 OFFCURVE",
"365 0 CURVE SMOOTH"
);
}
);
width = 730;
},
{
anchors = (
{
name = bottom;
position = "{369, 0}";
},
{
name = bottomright;
position = "{618, 0}";
},
{
name = top;
position = "{740, 660}";
},
{
name = topcenter;
position = "{370, 660}";
}
);
layerId = "A071A550-EFB7-4955-8F98-3DB7A21E0E0F";
paths = (
{
closed = 1;
nodes = (
"538 0 OFFCURVE",
"618 70 OFFCURVE",
"618 175 CURVE SMOOTH",
"618 357 LINE SMOOTH",
"618 430 OFFCURVE",
"574 465 OFFCURVE",
"497 465 CURVE SMOOTH",
"419 465 OFFCURVE",
"357 423 OFFCURVE",
"357 326 CURVE SMOOTH",
"357 261 OFFCURVE",
"386 214 OFFCURVE",
"433 214 CURVE SMOOTH",
"461 214 OFFCURVE",
"480 242 OFFCURVE",
"480 275 CURVE SMOOTH",
"480 289 OFFCURVE",
"476 291 OFFCURVE",
"468 292 CURVE",
"456 294 OFFCURVE",
"450 298 OFFCURVE",
"450 338 CURVE SMOOTH",
"450 378 OFFCURVE",
"458 390 OFFCURVE",
"474 390 CURVE SMOOTH",
"484 390 OFFCURVE",
"488 388 OFFCURVE",
"488 378 CURVE SMOOTH",
"488 172 LINE SMOOTH",
"488 121 OFFCURVE",
"468 89 OFFCURVE",
"371 89 CURVE SMOOTH",
"275 89 OFFCURVE",
"252 118 OFFCURVE",
"252 173 CURVE SMOOTH",
"252 370 LINE SMOOTH",
"252 416 OFFCURVE",
"240 437 OFFCURVE",
"193 480 CURVE SMOOTH",
"168 503 OFFCURVE",
"151 519 OFFCURVE",
"151 526 CURVE SMOOTH",
"151 534 OFFCURVE",
"180 556 OFFCURVE",
"194 556 CURVE SMOOTH",
"226 556 OFFCURVE",
"355 498 OFFCURVE",
"466 498 CURVE SMOOTH",
"577 498 OFFCURVE",
"653 556 OFFCURVE",
"653 660 CURVE SMOOTH",
"653 725 OFFCURVE",
"606 775 OFFCURVE",
"540 775 CURVE SMOOTH",
"488 775 OFFCURVE",
"462 751 OFFCURVE",
"462 715 CURVE SMOOTH",
"462 699 OFFCURVE",
"465 699 OFFCURVE",
"483 699 CURVE SMOOTH",
"515 699 OFFCURVE",
"539 686 OFFCURVE",
"539 657 CURVE SMOOTH",
"539 631 OFFCURVE",
"522 612 OFFCURVE",
"482 612 CURVE SMOOTH",
"388 612 OFFCURVE",
"260 663 OFFCURVE",
"224 663 CURVE SMOOTH",
"173 663 OFFCURVE",
"26 543 OFFCURVE",
"26 498 CURVE SMOOTH",
"26 486 OFFCURVE",
"29 482 OFFCURVE",
"79 424 CURVE SMOOTH",
"122 374 OFFCURVE",
"122 369 OFFCURVE",
"122 341 CURVE SMOOTH",
"122 175 LINE SMOOTH",
"122 70 OFFCURVE",
"181 0 OFFCURVE",
"366 0 CURVE SMOOTH"
);
}
);
width = 740;
},
{
anchors = (
{
name = bottom;
position = "{361, 0}";
},
{
name = bottomright;
position = "{566, 0}";
},
{
name = top;
position = "{721, 660}";
},
{
name = topcenter;
position = "{361, 660}";
}
);
layerId = "EF9CD0BC-E2A6-4ABC-B2EB-28760EBC66CA";
paths = (
{
closed = 1;
nodes = (
"491 0 OFFCURVE",
"566 61 OFFCURVE",
"566 166 CURVE SMOOTH",
"566 373 LINE SMOOTH",
"566 443 OFFCURVE",
"528 465 OFFCURVE",
"480 465 CURVE SMOOTH",
"423 465 OFFCURVE",
"380 425 OFFCURVE",
"380 352 CURVE SMOOTH",
"380 294 OFFCURVE",
"413 260 OFFCURVE",
"476 260 CURVE SMOOTH",
"492 260 OFFCURVE",
"500 267 OFFCURVE",
"500 282 CURVE SMOOTH",
"500 295 OFFCURVE",
"495 299 OFFCURVE",
"480 299 CURVE SMOOTH",
"438 299 OFFCURVE",
"421 318 OFFCURVE",
"421 355 CURVE SMOOTH",
"421 405 OFFCURVE",
"443 428 OFFCURVE",
"478 428 CURVE SMOOTH",
"511 428 OFFCURVE",
"527 411 OFFCURVE",
"527 370 CURVE SMOOTH",
"527 180 LINE SMOOTH",
"527 97 OFFCURVE",
"488 39 OFFCURVE",
"360 39 CURVE SMOOTH",
"228 39 OFFCURVE",
"194 99 OFFCURVE",
"194 180 CURVE SMOOTH",
"194 421 LINE SMOOTH",
"194 450 OFFCURVE",
"190 461 OFFCURVE",
"164 485 CURVE SMOOTH",
"124 522 OFFCURVE",
"119 531 OFFCURVE",
"119 534 CURVE SMOOTH",
"119 547 OFFCURVE",
"197 622 OFFCURVE",
"212 622 CURVE SMOOTH",
"245 622 OFFCURVE",
"351 546 OFFCURVE",
"451 546 CURVE SMOOTH",
"541 546 OFFCURVE",
"592 603 OFFCURVE",
"592 671 CURVE SMOOTH",
"592 737 OFFCURVE",
"550 773 OFFCURVE",
"514 773 CURVE SMOOTH",
"499 773 OFFCURVE",
"488 764 OFFCURVE",
"488 751 CURVE SMOOTH",
"488 746 OFFCURVE",
"489 744 OFFCURVE",
"497 742 CURVE SMOOTH",
"527 734 OFFCURVE",
"552 711 OFFCURVE",
"552 671 CURVE SMOOTH",
"552 623 OFFCURVE",
"524 584 OFFCURVE",
"449 584 CURVE SMOOTH",
"357 584 OFFCURVE",
"253 663 OFFCURVE",
"213 663 CURVE SMOOTH",
"184 663 OFFCURVE",
"75 560 OFFCURVE",
"75 530 CURVE SMOOTH",
"75 520 OFFCURVE",
"81 507 OFFCURVE",
"112 478 CURVE SMOOTH",
"150 443 OFFCURVE",
"155 437 OFFCURVE",
"155 411 CURVE SMOOTH",
"155 166 LINE SMOOTH",
"155 61 OFFCURVE",
"223 0 OFFCURVE",
"357 0 CURVE SMOOTH"
);
}
);
width = 721;
}
);
note = uni1790;
unicode = 1790;
},
{
glyphname = "to-khmer";
lastChange = "2019-02-20 09:05:37 +0000";
layers = (
{
anchors = (
{
name = bottom;
position = "{365, 0}";
},
{
name = bottomright;
position = "{533, 0}";
},
{
name = top;
position = "{730, 660}";
},
{
name = topcenter;
position = "{365, 660}";
}
);
layerId = "C00489B0-D6FE-4186-8C18-D0EE90D80B61";
paths = (
{
closed = 1;
nodes = (
"481 0 OFFCURVE",
"533 46 OFFCURVE",
"533 119 CURVE SMOOTH",
"533 254 LINE",
"533 274 LINE",
"533 331 LINE SMOOTH",
"533 344 OFFCURVE",
"535 360 OFFCURVE",
"557 360 CURVE SMOOTH",
"572 360 OFFCURVE",
"579 350 OFFCURVE",
"579 335 CURVE SMOOTH",
"579 294 OFFCURVE",
"526 289 OFFCURVE",
"455 289 CURVE SMOOTH",
"290 289 OFFCURVE",
"206 357 OFFCURVE",
"206 457 CURVE SMOOTH",
"206 539 OFFCURVE",
"257 592 OFFCURVE",
"374 592 CURVE SMOOTH",
"485 592 OFFCURVE",
"522 567 OFFCURVE",
"522 526 CURVE SMOOTH",
"522 504 OFFCURVE",
"538 496 OFFCURVE",
"562 496 CURVE SMOOTH",
"587 496 OFFCURVE",
"604 506 OFFCURVE",
"604 531 CURVE SMOOTH",
"604 614 OFFCURVE",
"525 663 OFFCURVE",
"374 663 CURVE SMOOTH",
"221 663 OFFCURVE",
"125 583 OFFCURVE",
"125 457 CURVE SMOOTH",
"125 327 OFFCURVE",
"215 221 OFFCURVE",
"455 221 CURVE SMOOTH",
"565 221 OFFCURVE",
"646 253 OFFCURVE",
"646 335 CURVE SMOOTH",
"646 389 OFFCURVE",
"613 421 OFFCURVE",
"559 421 CURVE SMOOTH",
"490 421 OFFCURVE",
"455 376 OFFCURVE",
"455 319 CURVE SMOOTH",
"455 125 LINE SMOOTH",
"455 92 OFFCURVE",
"439 70 OFFCURVE",
"365 70 CURVE SMOOTH",
"293 70 OFFCURVE",
"276 92 OFFCURVE",
"276 125 CURVE SMOOTH",
"276 183 LINE SMOOTH",
"276 199 OFFCURVE",
"262 206 OFFCURVE",
"236 206 CURVE SMOOTH",
"211 206 OFFCURVE",
"198 199 OFFCURVE",
"198 183 CURVE SMOOTH",
"198 119 LINE SMOOTH",
"198 46 OFFCURVE",
"248 0 OFFCURVE",
"365 0 CURVE SMOOTH"
);
}
);
width = 730;
},
{
anchors = (
{
name = bottom;
position = "{369, 0}";
},
{
name = bottomright;
position = "{565, 0}";
},
{
name = top;
position = "{740, 660}";
},
{
name = topcenter;
position = "{370, 660}";
}
);
layerId = "A071A550-EFB7-4955-8F98-3DB7A21E0E0F";
paths = (
{
closed = 1;
nodes = (
"501 0 OFFCURVE",
"565 59 OFFCURVE",
"565 162 CURVE SMOOTH",
"565 267 LINE",
"549 287 LINE",
"549 360 LINE SMOOTH",
"549 369 OFFCURVE",
"552 373 OFFCURVE",
"561 373 CURVE SMOOTH",
"570 373 OFFCURVE",
"574 368 OFFCURVE",
"574 354 CURVE SMOOTH",
"574 317 OFFCURVE",
"555 295 OFFCURVE",
"431 295 CURVE SMOOTH",
"314 295 OFFCURVE",
"254 338 OFFCURVE",
"254 431 CURVE SMOOTH",
"254 521 OFFCURVE",
"283 574 OFFCURVE",
"385 574 CURVE SMOOTH",
"451 574 OFFCURVE",
"471 544 OFFCURVE",
"485 508 CURVE SMOOTH",
"492 490 OFFCURVE",
"505 476 OFFCURVE",
"556 476 CURVE SMOOTH",
"602 476 OFFCURVE",
"625 492 OFFCURVE",
"625 522 CURVE SMOOTH",
"625 609 OFFCURVE",
"548 663 OFFCURVE",
"392 663 CURVE SMOOTH",
"202 663 OFFCURVE",
"118 557 OFFCURVE",
"118 431 CURVE SMOOTH",
"118 273 OFFCURVE",
"250 206 OFFCURVE",
"431 206 CURVE SMOOTH",
"575 206 OFFCURVE",
"644 264 OFFCURVE",
"644 341 CURVE SMOOTH",
"644 388 OFFCURVE",
"612 425 OFFCURVE",
"549 425 CURVE SMOOTH",
"481 425 OFFCURVE",
"434 384 OFFCURVE",
"434 314 CURVE SMOOTH",
"434 159 LINE SMOOTH",
"434 116 OFFCURVE",
"427 89 OFFCURVE",
"356 89 CURVE SMOOTH",
"284 89 OFFCURVE",
"278 116 OFFCURVE",
"278 159 CURVE SMOOTH",
"278 171 LINE SMOOTH",
"278 199 OFFCURVE",
"256 210 OFFCURVE",
"212 210 CURVE SMOOTH",
"169 210 OFFCURVE",
"147 199 OFFCURVE",
"147 171 CURVE SMOOTH",
"147 159 LINE SMOOTH",
"147 56 OFFCURVE",
"212 0 OFFCURVE",
"356 0 CURVE SMOOTH"
);
}
);
width = 740;
},
{
anchors = (
{
name = bottom;
position = "{361, 0}";
},
{
name = bottomright;
position = "{506, 0}";
},
{
name = top;
position = "{721, 660}";
},
{
name = topcenter;
position = "{361, 660}";
}
);
layerId = "EF9CD0BC-E2A6-4ABC-B2EB-28760EBC66CA";
paths = (
{
closed = 1;
nodes = (
"455 0 OFFCURVE",
"506 44 OFFCURVE",
"506 129 CURVE SMOOTH",
"506 331 LINE SMOOTH",
"506 349 OFFCURVE",
"516 361 OFFCURVE",
"532 361 CURVE SMOOTH",
"547 361 OFFCURVE",
"559 348 OFFCURVE",
"559 330 CURVE SMOOTH",
"559 296 OFFCURVE",
"529 275 OFFCURVE",
"463 275 CURVE SMOOTH",
"266 275 OFFCURVE",
"167 336 OFFCURVE",
"167 457 CURVE SMOOTH",
"167 556 OFFCURVE",
"225 624 OFFCURVE",
"353 624 CURVE SMOOTH",
"477 624 OFFCURVE",
"527 584 OFFCURVE",
"527 527 CURVE SMOOTH",
"527 513 OFFCURVE",
"531 506 OFFCURVE",
"548 506 CURVE SMOOTH",
"562 506 OFFCURVE",
"569 513 OFFCURVE",
"569 527 CURVE SMOOTH",
"569 602 OFFCURVE",
"510 663 OFFCURVE",
"353 663 CURVE SMOOTH",
"201 663 OFFCURVE",
"125 570 OFFCURVE",
"125 458 CURVE SMOOTH",
"125 301 OFFCURVE",
"254 236 OFFCURVE",
"463 236 CURVE SMOOTH",
"534 236 OFFCURVE",
"597 268 OFFCURVE",
"597 332 CURVE SMOOTH",
"597 371 OFFCURVE",
"572 397 OFFCURVE",
"531 397 CURVE SMOOTH",
"493 397 OFFCURVE",
"467 372 OFFCURVE",
"467 332 CURVE SMOOTH",
"467 143 LINE SMOOTH",
"467 71 OFFCURVE",
"441 39 OFFCURVE",
"352 39 CURVE SMOOTH",
"263 39 OFFCURVE",
"237 71 OFFCURVE",
"237 143 CURVE SMOOTH",
"237 163 LINE SMOOTH",
"237 178 OFFCURVE",
"230 183 OFFCURVE",
"218 183 CURVE SMOOTH",
"205 183 OFFCURVE",
"198 178 OFFCURVE",
"198 163 CURVE SMOOTH",
"198 129 LINE SMOOTH",
"198 44 OFFCURVE",
"249 0 OFFCURVE",
"352 0 CURVE SMOOTH"
);
}
);
width = 721;
}
);
note = uni1791;
unicode = 1791;
},
{
glyphname = "tho-khmer";
lastChange = "2018-12-17 08:25:10 +0000";
layers = (
{
anchors = (
{
name = bottom;
position = "{365, 0}";
},
{
name = bottomright;
position = "{590, 0}";
},
{
name = top;
position = "{730, 660}";
},
{
name = topcenter;
position = "{365, 660}";
}
);
layerId = "C00489B0-D6FE-4186-8C18-D0EE90D80B61";
paths = (
{
closed = 1;
nodes = (
"194 0 OFFCURVE",
"213 8 OFFCURVE",
"235 20 CURVE SMOOTH",
"334 76 LINE SMOOTH",
"350 85 OFFCURVE",
"356 87 OFFCURVE",
"360 87 CURVE SMOOTH",
"364 87 OFFCURVE",
"373 85 OFFCURVE",
"389 76 CURVE SMOOTH",
"488 20 LINE SMOOTH",
"514 5 OFFCURVE",
"533 0 OFFCURVE",
"551 0 CURVE SMOOTH",
"579 0 OFFCURVE",
"590 13 OFFCURVE",
"590 37 CURVE SMOOTH",
"590 348 LINE SMOOTH",
"590 436 OFFCURVE",
"558 465 OFFCURVE",
"488 465 CURVE SMOOTH",
"414 465 OFFCURVE",
"360 411 OFFCURVE",
"360 337 CURVE SMOOTH",
"360 279 OFFCURVE",
"404 237 OFFCURVE",
"460 237 CURVE SMOOTH",
"482 237 OFFCURVE",
"494 247 OFFCURVE",
"494 283 CURVE SMOOTH",
"494 298 OFFCURVE",
"487 302 OFFCURVE",
"474 302 CURVE SMOOTH",
"452 302 OFFCURVE",
"433 314 OFFCURVE",
"433 344 CURVE SMOOTH",
"433 378 OFFCURVE",
"451 400 OFFCURVE",
"479 400 CURVE SMOOTH",
"499 400 OFFCURVE",
"512 394 OFFCURVE",
"512 351 CURVE SMOOTH",
"512 100 LINE SMOOTH",
"512 95 OFFCURVE",
"511 92 OFFCURVE",
"507 92 CURVE SMOOTH",
"504 92 OFFCURVE",
"496 96 OFFCURVE",
"488 100 CURVE",
"395 153 LINE",
"379 163 OFFCURVE",
"371 165 OFFCURVE",
"365 165 CURVE SMOOTH",
"359 165 OFFCURVE",
"352 163 OFFCURVE",
"335 153 CURVE SMOOTH",
"242 100 LINE",
"234 96 OFFCURVE",
"226 92 OFFCURVE",
"223 92 CURVE SMOOTH",
"219 92 OFFCURVE",
"218 95 OFFCURVE",
"218 100 CURVE SMOOTH",
"218 414 LINE SMOOTH",
"218 436 OFFCURVE",
"208 448 OFFCURVE",
"176 481 CURVE SMOOTH",
"146 513 OFFCURVE",
"139 520 OFFCURVE",
"139 528 CURVE SMOOTH",
"139 539 OFFCURVE",
"191 586 OFFCURVE",
"206 586 CURVE SMOOTH",
"221 586 OFFCURVE",
"324 503 OFFCURVE",
"364 503 CURVE SMOOTH",
"395 503 OFFCURVE",
"485 586 OFFCURVE",
"498 586 CURVE SMOOTH",
"511 586 OFFCURVE",
"567 541 OFFCURVE",
"596 525 CURVE",
"604 521 OFFCURVE",
"610 518 OFFCURVE",
"617 518 CURVE SMOOTH",
"638 518 OFFCURVE",
"657 545 OFFCURVE",
"657 562 CURVE SMOOTH",
"657 569 OFFCURVE",
"653 576 OFFCURVE",
"646 582 CURVE SMOOTH",
"597 624 OFFCURVE",
"525 663 OFFCURVE",
"504 663 CURVE SMOOTH",
"478 663 OFFCURVE",
"381 580 OFFCURVE",
"366 580 CURVE SMOOTH",
"351 580 OFFCURVE",
"242 663 OFFCURVE",
"218 663 CURVE SMOOTH",
"176 663 OFFCURVE",
"56 554 OFFCURVE",
"56 518 CURVE SMOOTH",
"56 504 OFFCURVE",
"67 488 OFFCURVE",
"97 456 CURVE SMOOTH",
"134 418 OFFCURVE",
"140 405 OFFCURVE",
"140 385 CURVE SMOOTH",
"140 37 LINE SMOOTH",
"140 13 OFFCURVE",
"151 0 OFFCURVE",
"178 0 CURVE SMOOTH"
);
}
);
width = 730;
},
{
anchors = (
{
name = bottom;
position = "{369, 0}";
},
{
name = bottomright;
position = "{618, 0}";
},
{
name = top;
position = "{740, 660}";
},
{
name = topcenter;
position = "{370, 660}";
}
);
layerId = "A071A550-EFB7-4955-8F98-3DB7A21E0E0F";
paths = (
{
closed = 1;
nodes = (
"188 0 OFFCURVE",
"217 10 OFFCURVE",
"241 21 CURVE SMOOTH",
"339 67 LINE",
"351 72 OFFCURVE",
"357 75 OFFCURVE",
"366 75 CURVE SMOOTH",
"374 75 OFFCURVE",
"383 71 OFFCURVE",
"392 67 CURVE SMOOTH",
"494 20 LINE SMOOTH",
"523 6 OFFCURVE",
"540 0 OFFCURVE",
"563 0 CURVE SMOOTH",
"604 0 OFFCURVE",
"618 25 OFFCURVE",
"618 58 CURVE SMOOTH",
"618 357 LINE SMOOTH",
"618 430 OFFCURVE",
"574 465 OFFCURVE",
"497 465 CURVE SMOOTH",
"419 465 OFFCURVE",
"357 423 OFFCURVE",
"357 326 CURVE SMOOTH",
"357 261 OFFCURVE",
"386 214 OFFCURVE",
"433 214 CURVE SMOOTH",
"461 214 OFFCURVE",
"480 242 OFFCURVE",
"480 275 CURVE SMOOTH",
"480 289 OFFCURVE",
"476 291 OFFCURVE",
"468 292 CURVE",
"456 294 OFFCURVE",
"450 298 OFFCURVE",
"450 338 CURVE SMOOTH",
"450 378 OFFCURVE",
"458 390 OFFCURVE",
"474 390 CURVE SMOOTH",
"484 390 OFFCURVE",
"488 388 OFFCURVE",
"488 378 CURVE SMOOTH",
"488 136 LINE SMOOTH",
"488 130 OFFCURVE",
"485 128 OFFCURVE",
"481 128 CURVE SMOOTH",
"477 128 OFFCURVE",
"473 130 OFFCURVE",
"470 131 CURVE",
"399 159 LINE SMOOTH",
"386 164 OFFCURVE",
"378 168 OFFCURVE",
"369 168 CURVE SMOOTH",
"362 168 OFFCURVE",
"351 163 OFFCURVE",
"340 159 CURVE SMOOTH",
"270 131 LINE SMOOTH",
"265 129 OFFCURVE",
"262 128 OFFCURVE",
"259 128 CURVE SMOOTH",
"255 128 OFFCURVE",
"252 130 OFFCURVE",
"252 136 CURVE SMOOTH",
"252 370 LINE SMOOTH",
"252 416 OFFCURVE",
"242 439 OFFCURVE",
"194 481 CURVE SMOOTH",
"169 503 OFFCURVE",
"151 519 OFFCURVE",
"151 526 CURVE SMOOTH",
"151 534 OFFCURVE",
"174 555 OFFCURVE",
"185 555 CURVE SMOOTH",
"198 555 OFFCURVE",
"304 484 OFFCURVE",
"337 484 CURVE SMOOTH",
"368 484 OFFCURVE",
"449 551 OFFCURVE",
"462 551 CURVE SMOOTH",
"475 551 OFFCURVE",
"513 518 OFFCURVE",
"561 490 CURVE SMOOTH",
"568 486 OFFCURVE",
"580 483 OFFCURVE",
"590 483 CURVE SMOOTH",
"628 483 OFFCURVE",
"673 522 OFFCURVE",
"673 551 CURVE SMOOTH",
"673 562 OFFCURVE",
"669 567 OFFCURVE",
"647 583 CURVE SMOOTH",
"556 648 OFFCURVE",
"517 663 OFFCURVE",
"496 663 CURVE SMOOTH",
"467 663 OFFCURVE",
"390 595 OFFCURVE",
"366 595 CURVE SMOOTH",
"339 595 OFFCURVE",
"242 663 OFFCURVE",
"218 663 CURVE SMOOTH",
"179 663 OFFCURVE",
"26 543 OFFCURVE",
"26 498 CURVE SMOOTH",
"26 486 OFFCURVE",
"29 482 OFFCURVE",
"79 424 CURVE SMOOTH",
"122 374 OFFCURVE",
"122 369 OFFCURVE",
"122 341 CURVE SMOOTH",
"122 58 LINE SMOOTH",
"122 25 OFFCURVE",
"135 0 OFFCURVE",
"174 0 CURVE SMOOTH"
);
}
);
width = 740;
},
{
anchors = (
{
name = bottom;
position = "{361, 0}";
},
{
name = bottomright;
position = "{566, 0}";
},
{
name = top;
position = "{721, 660}";
},
{
name = topcenter;
position = "{361, 660}";
}
);
layerId = "EF9CD0BC-E2A6-4ABC-B2EB-28760EBC66CA";
paths = (
{
closed = 1;
nodes = (
"193 0 OFFCURVE",
"209 6 OFFCURVE",
"230 19 CURVE SMOOTH",
"329 82 LINE SMOOTH",
"347 93 OFFCURVE",
"352 95 OFFCURVE",
"356 95 CURVE SMOOTH",
"360 95 OFFCURVE",
"364 94 OFFCURVE",
"384 82 CURVE SMOOTH",
"483 20 LINE SMOOTH",
"510 4 OFFCURVE",
"527 0 OFFCURVE",
"538 0 CURVE SMOOTH",
"555 0 OFFCURVE",
"566 9 OFFCURVE",
"566 26 CURVE SMOOTH",
"566 373 LINE SMOOTH",
"566 443 OFFCURVE",
"528 465 OFFCURVE",
"480 465 CURVE SMOOTH",
"423 465 OFFCURVE",
"380 425 OFFCURVE",
"380 352 CURVE SMOOTH",
"380 294 OFFCURVE",
"413 260 OFFCURVE",
"476 260 CURVE SMOOTH",
"492 260 OFFCURVE",
"500 267 OFFCURVE",
"500 282 CURVE SMOOTH",
"500 295 OFFCURVE",
"495 299 OFFCURVE",
"480 299 CURVE SMOOTH",
"438 299 OFFCURVE",
"421 318 OFFCURVE",
"421 355 CURVE SMOOTH",
"421 405 OFFCURVE",
"443 428 OFFCURVE",
"478 428 CURVE SMOOTH",
"511 428 OFFCURVE",
"527 411 OFFCURVE",
"527 370 CURVE SMOOTH",
"527 53 LINE SMOOTH",
"527 48 OFFCURVE",
"526 45 OFFCURVE",
"522 45 CURVE SMOOTH",
"519 45 OFFCURVE",
"511 49 OFFCURVE",
"503 54 CURVE SMOOTH",
"390 125 LINE SMOOTH",
"374 135 OFFCURVE",
"366 137 OFFCURVE",
"360 137 CURVE SMOOTH",
"354 137 OFFCURVE",
"347 135 OFFCURVE",
"330 125 CURVE SMOOTH",
"218 54 LINE SMOOTH",
"209 48 OFFCURVE",
"202 45 OFFCURVE",
"199 45 CURVE SMOOTH",
"195 45 OFFCURVE",
"194 48 OFFCURVE",
"194 53 CURVE SMOOTH",
"194 421 LINE SMOOTH",
"194 450 OFFCURVE",
"190 461 OFFCURVE",
"164 485 CURVE SMOOTH",
"124 522 OFFCURVE",
"119 531 OFFCURVE",
"119 534 CURVE SMOOTH",
"119 547 OFFCURVE",
"194 620 OFFCURVE",
"209 620 CURVE SMOOTH",
"224 620 OFFCURVE",
"329 539 OFFCURVE",
"360 539 CURVE SMOOTH",
"383 539 OFFCURVE",
"482 620 OFFCURVE",
"495 620 CURVE SMOOTH",
"508 620 OFFCURVE",
"559 577 OFFCURVE",
"597 553 CURVE SMOOTH",
"605 548 OFFCURVE",
"610 546 OFFCURVE",
"615 546 CURVE SMOOTH",
"624 546 OFFCURVE",
"635 560 OFFCURVE",
"635 569 CURVE SMOOTH",
"635 574 OFFCURVE",
"634 576 OFFCURVE",
"627 582 CURVE",
"576 621 OFFCURVE",
"510 663 OFFCURVE",
"497 663 CURVE SMOOTH",
"477 663 OFFCURVE",
"376 580 OFFCURVE",
"361 580 CURVE SMOOTH",
"346 580 OFFCURVE",
"230 663 OFFCURVE",
"213 663 CURVE SMOOTH",
"184 663 OFFCURVE",
"75 560 OFFCURVE",
"75 530 CURVE SMOOTH",
"75 520 OFFCURVE",
"81 507 OFFCURVE",
"112 478 CURVE SMOOTH",
"150 443 OFFCURVE",
"155 437 OFFCURVE",
"155 411 CURVE SMOOTH",
"155 26 LINE SMOOTH",
"155 10 OFFCURVE",
"166 0 OFFCURVE",
"182 0 CURVE SMOOTH"
);
}
);
width = 721;
}
);
note = uni1792;
unicode = 1792;
},
{
glyphname = "no-khmer";
lastChange = "2018-12-17 08:25:10 +0000";
layers = (
{
anchors = (
{
name = bottom;
position = "{365, 0}";
},
{
name = bottomright;
position = "{590, 0}";
},
{
name = top;
position = "{730, 660}";
},
{
name = topcenter;
position = "{365, 660}";
}
);
layerId = "C00489B0-D6FE-4186-8C18-D0EE90D80B61";
paths = (
{
closed = 1;
nodes = (
"215 0 OFFCURVE",
"250 32 OFFCURVE",
"250 99 CURVE SMOOTH",
"250 249 LINE SMOOTH",
"250 264 OFFCURVE",
"236 271 OFFCURVE",
"211 271 CURVE SMOOTH",
"186 271 OFFCURVE",
"172 264 OFFCURVE",
"172 249 CURVE SMOOTH",
"172 96 LINE SMOOTH",
"172 68 OFFCURVE",
"165 58 OFFCURVE",
"154 58 CURVE SMOOTH",
"143 58 OFFCURVE",
"136 69 OFFCURVE",
"136 87 CURVE SMOOTH",
"136 108 OFFCURVE",
"145 120 OFFCURVE",
"163 120 CURVE SMOOTH",
"225 120 OFFCURVE",
"361 0 OFFCURVE",
"459 0 CURVE SMOOTH",
"542 0 OFFCURVE",
"596 55 OFFCURVE",
"596 150 CURVE SMOOTH",
"596 381 OFFCURVE",
"212 327 OFFCURVE",
"212 492 CURVE SMOOTH",
"212 557 OFFCURVE",
"244 591 OFFCURVE",
"364 591 CURVE SMOOTH",
"484 591 OFFCURVE",
"521 555 OFFCURVE",
"521 488 CURVE SMOOTH",
"521 466 OFFCURVE",
"534 458 OFFCURVE",
"558 458 CURVE SMOOTH",
"584 458 OFFCURVE",
"600 468 OFFCURVE",
"600 493 CURVE SMOOTH",
"600 583 OFFCURVE",
"544 662 OFFCURVE",
"364 662 CURVE SMOOTH",
"183 662 OFFCURVE",
"130 584 OFFCURVE",
"130 493 CURVE SMOOTH",
"130 262 OFFCURVE",
"518 298 OFFCURVE",
"518 149 CURVE SMOOTH",
"518 97 OFFCURVE",
"496 75 OFFCURVE",
"461 75 CURVE SMOOTH",
"400 75 OFFCURVE",
"250 189 OFFCURVE",
"169 189 CURVE SMOOTH",
"113 189 OFFCURVE",
"74 153 OFFCURVE",
"74 92 CURVE SMOOTH",
"74 41 OFFCURVE",
"105 0 OFFCURVE",
"164 0 CURVE SMOOTH"
);
}
);
width = 730;
},
{
anchors = (
{
name = bottom;
position = "{369, 0}";
},
{
name = bottomright;
position = "{618, 0}";
},
{
name = top;
position = "{740, 660}";
},
{
name = topcenter;
position = "{370, 660}";
}
);
layerId = "A071A550-EFB7-4955-8F98-3DB7A21E0E0F";
paths = (
{
closed = 1;
nodes = (
"238 0 OFFCURVE",
"280 53 OFFCURVE",
"280 126 CURVE SMOOTH",
"280 220 LINE SMOOTH",
"280 249 OFFCURVE",
"257 260 OFFCURVE",
"212 260 CURVE SMOOTH",
"169 260 OFFCURVE",
"149 249 OFFCURVE",
"149 220 CURVE SMOOTH",
"149 86 LINE SMOOTH",
"149 70 OFFCURVE",
"146 66 OFFCURVE",
"135 66 CURVE SMOOTH",
"125 66 OFFCURVE",
"117 73 OFFCURVE",
"117 100 CURVE SMOOTH",
"117 128 OFFCURVE",
"127 138 OFFCURVE",
"149 138 CURVE SMOOTH",
"224 138 OFFCURVE",
"345 0 OFFCURVE",
"475 0 CURVE SMOOTH",
"573 0 OFFCURVE",
"627 66 OFFCURVE",
"627 167 CURVE SMOOTH",
"627 398 OFFCURVE",
"240 347 OFFCURVE",
"240 478 CURVE SMOOTH",
"240 536 OFFCURVE",
"271 574 OFFCURVE",
"363 574 CURVE SMOOTH",
"439 574 OFFCURVE",
"465 558 OFFCURVE",
"485 508 CURVE SMOOTH",
"492 490 OFFCURVE",
"507 476 OFFCURVE",
"556 476 CURVE SMOOTH",
"608 476 OFFCURVE",
"625 497 OFFCURVE",
"625 522 CURVE SMOOTH",
"625 611 OFFCURVE",
"544 663 OFFCURVE",
"373 663 CURVE SMOOTH",
"195 663 OFFCURVE",
"110 587 OFFCURVE",
"110 463 CURVE SMOOTH",
"110 238 OFFCURVE",
"498 272 OFFCURVE",
"498 158 CURVE SMOOTH",
"498 120 OFFCURVE",
"486 100 OFFCURVE",
"462 100 CURVE SMOOTH",
"385 100 OFFCURVE",
"269 226 OFFCURVE",
"183 226 CURVE SMOOTH",
"121 226 OFFCURVE",
"67 190 OFFCURVE",
"67 116 CURVE SMOOTH",
"67 41 OFFCURVE",
"101 0 OFFCURVE",
"171 0 CURVE SMOOTH"
);
}
);
width = 740;
},
{
anchors = (
{
name = bottom;
position = "{365, 0}";
},
{
name = bottomright;
position = "{578, 0}";
},
{
name = top;
position = "{721, 660}";
},
{
name = topcenter;
position = "{365, 660}";
}
);
layerId = "EF9CD0BC-E2A6-4ABC-B2EB-28760EBC66CA";
paths = (
{
closed = 1;
nodes = (
"209 0 OFFCURVE",
"231 32 OFFCURVE",
"231 96 CURVE SMOOTH",
"231 238 LINE SMOOTH",
"231 253 OFFCURVE",
"224 258 OFFCURVE",
"212 258 CURVE SMOOTH",
"199 258 OFFCURVE",
"192 253 OFFCURVE",
"192 238 CURVE SMOOTH",
"192 96 LINE SMOOTH",
"192 53 OFFCURVE",
"184 38 OFFCURVE",
"163 38 CURVE SMOOTH",
"144 38 OFFCURVE",
"131 52 OFFCURVE",
"131 87 CURVE SMOOTH",
"131 127 OFFCURVE",
"145 140 OFFCURVE",
"171 140 CURVE SMOOTH",
"227 140 OFFCURVE",
"345 0 OFFCURVE",
"451 0 CURVE SMOOTH",
"539 0 OFFCURVE",
"578 62 OFFCURVE",
"578 140 CURVE SMOOTH",
"578 350 OFFCURVE",
"193 322 OFFCURVE",
"193 493 CURVE SMOOTH",
"193 576 OFFCURVE",
"243 624 OFFCURVE",
"365 624 CURVE SMOOTH",
"485 624 OFFCURVE",
"539 578 OFFCURVE",
"539 494 CURVE SMOOTH",
"539 471 OFFCURVE",
"539 459 OFFCURVE",
"560 459 CURVE SMOOTH",
"574 459 OFFCURVE",
"581 467 OFFCURVE",
"581 494 CURVE SMOOTH",
"581 592 OFFCURVE",
"524 663 OFFCURVE",
"365 663 CURVE SMOOTH",
"223 663 OFFCURVE",
"151 599 OFFCURVE",
"151 494 CURVE SMOOTH",
"151 284 OFFCURVE",
"536 315 OFFCURVE",
"536 140 CURVE SMOOTH",
"536 81 OFFCURVE",
"513 39 OFFCURVE",
"451 39 CURVE SMOOTH",
"362 39 OFFCURVE",
"250 176 OFFCURVE",
"171 176 CURVE SMOOTH",
"127 176 OFFCURVE",
"93 150 OFFCURVE",
"93 87 CURVE SMOOTH",
"93 36 OFFCURVE",
"114 0 OFFCURVE",
"163 0 CURVE SMOOTH"
);
}
);
width = 721;
}
);
note = uni1793;
unicode = 1793;
},
{
glyphname = "ba-khmer";
lastChange = "2019-02-26 08:42:21 +0000";
layers = (
{
anchors = (
{
name = bottom;
position = "{365, 0}";
},
{
name = bottomright;
position = "{590, 0}";
},
{
name = top;
position = "{730, 660}";
},
{
name = topcenter;
position = "{365, 660}";
}
);
layerId = "C00489B0-D6FE-4186-8C18-D0EE90D80B61";
paths = (
{
closed = 1;
nodes = (
"510 0 OFFCURVE",
"590 61 OFFCURVE",
"590 166 CURVE SMOOTH",
"590 424 LINE SMOOTH",
"590 468 OFFCURVE",
"575 485 OFFCURVE",
"498 528 CURVE SMOOTH",
"489 533 OFFCURVE",
"485 537 OFFCURVE",
"485 541 CURVE SMOOTH",
"485 551 OFFCURVE",
"517 590 OFFCURVE",
"530 590 CURVE SMOOTH",
"554 590 OFFCURVE",
"619 554 OFFCURVE",
"640 554 CURVE SMOOTH",
"662 554 OFFCURVE",
"685 586 OFFCURVE",
"685 598 CURVE SMOOTH",
"685 605 OFFCURVE",
"681 610 OFFCURVE",
"672 615 CURVE SMOOTH",
"623 642 OFFCURVE",
"556 663 OFFCURVE",
"539 663 CURVE SMOOTH",
"498 663 OFFCURVE",
"404 551 OFFCURVE",
"404 521 CURVE SMOOTH",
"404 509 OFFCURVE",
"413 502 OFFCURVE",
"426 494 CURVE SMOOTH",
"506 445 OFFCURVE",
"512 437 OFFCURVE",
"512 408 CURVE SMOOTH",
"512 184 LINE SMOOTH",
"512 112 OFFCURVE",
"485 70 OFFCURVE",
"365 70 CURVE SMOOTH",
"245 70 OFFCURVE",
"218 112 OFFCURVE",
"218 184 CURVE SMOOTH",
"218 424 LINE SMOOTH",
"218 468 OFFCURVE",
"202 485 OFFCURVE",
"125 528 CURVE SMOOTH",
"116 533 OFFCURVE",
"113 537 OFFCURVE",
"113 541 CURVE SMOOTH",
"113 551 OFFCURVE",
"144 590 OFFCURVE",
"158 590 CURVE SMOOTH",
"181 590 OFFCURVE",
"247 554 OFFCURVE",
"268 554 CURVE SMOOTH",
"290 554 OFFCURVE",
"312 586 OFFCURVE",
"312 598 CURVE SMOOTH",
"312 605 OFFCURVE",
"309 610 OFFCURVE",
"300 615 CURVE SMOOTH",
"250 642 OFFCURVE",
"184 663 OFFCURVE",
"166 663 CURVE SMOOTH",
"125 663 OFFCURVE",
"32 551 OFFCURVE",
"32 521 CURVE SMOOTH",
"32 509 OFFCURVE",
"40 502 OFFCURVE",
"53 494 CURVE SMOOTH",
"133 445 OFFCURVE",
"140 437 OFFCURVE",
"140 408 CURVE SMOOTH",
"140 166 LINE SMOOTH",
"140 61 OFFCURVE",
"220 0 OFFCURVE",
"365 0 CURVE SMOOTH"
);
}
);
width = 730;
},
{
anchors = (
{
name = bottom;
position = "{369, 0}";
},
{
name = bottomright;
position = "{618, 0}";
},
{
name = top;
position = "{740, 660}";
},
{
name = topcenter;
position = "{370, 660}";
}
);
layerId = "A071A550-EFB7-4955-8F98-3DB7A21E0E0F";
paths = (
{
closed = 1;
nodes = (
"538 0 OFFCURVE",
"618 70 OFFCURVE",
"618 175 CURVE SMOOTH",
"618 371 LINE SMOOTH",
"618 454 OFFCURVE",
"608 470 OFFCURVE",
"507 526 CURVE",
"503 528 OFFCURVE",
"501 531 OFFCURVE",
"501 533 CURVE SMOOTH",
"501 539 OFFCURVE",
"510 552 OFFCURVE",
"517 552 CURVE SMOOTH",
"530 552 OFFCURVE",
"607 512 OFFCURVE",
"626 512 CURVE SMOOTH",
"653 512 OFFCURVE",
"695 571 OFFCURVE",
"695 589 CURVE SMOOTH",
"695 599 OFFCURVE",
"691 607 OFFCURVE",
"681 613 CURVE",
"659 628 OFFCURVE",
"560 663 OFFCURVE",
"533 663 CURVE SMOOTH",
"490 663 OFFCURVE",
"396 534 OFFCURVE",
"396 494 CURVE SMOOTH",
"396 485 OFFCURVE",
"399 472 OFFCURVE",
"447 443 CURVE SMOOTH",
"488 417 OFFCURVE",
"488 404 OFFCURVE",
"488 354 CURVE SMOOTH",
"488 170 LINE SMOOTH",
"488 121 OFFCURVE",
"467 89 OFFCURVE",
"371 89 CURVE SMOOTH",
"278 89 OFFCURVE",
"252 116 OFFCURVE",
"252 170 CURVE SMOOTH",
"252 371 LINE SMOOTH",
"252 454 OFFCURVE",
"242 470 OFFCURVE",
"141 526 CURVE",
"137 528 OFFCURVE",
"135 531 OFFCURVE",
"135 533 CURVE SMOOTH",
"135 539 OFFCURVE",
"144 552 OFFCURVE",
"151 552 CURVE SMOOTH",
"164 552 OFFCURVE",
"241 512 OFFCURVE",
"260 512 CURVE SMOOTH",
"287 512 OFFCURVE",
"329 571 OFFCURVE",
"329 589 CURVE SMOOTH",
"329 599 OFFCURVE",
"325 607 OFFCURVE",
"315 613 CURVE",
"293 628 OFFCURVE",
"194 663 OFFCURVE",
"167 663 CURVE SMOOTH",
"124 663 OFFCURVE",
"30 534 OFFCURVE",
"30 494 CURVE SMOOTH",
"30 485 OFFCURVE",
"33 472 OFFCURVE",
"81 443 CURVE SMOOTH",
"122 417 OFFCURVE",
"122 404 OFFCURVE",
"122 354 CURVE SMOOTH",
"122 175 LINE SMOOTH",
"122 70 OFFCURVE",
"181 0 OFFCURVE",
"366 0 CURVE SMOOTH"
);
}
);
width = 740;
},
{
anchors = (
{
name = bottom;
position = "{361, 0}";
},
{
name = bottomright;
position = "{566, 0}";
},
{
name = top;
position = "{721, 660}";
},
{
name = topcenter;
position = "{361, 660}";
}
);
layerId = "EF9CD0BC-E2A6-4ABC-B2EB-28760EBC66CA";
paths = (
{
closed = 1;
nodes = (
"491 0 OFFCURVE",
"566 61 OFFCURVE",
"566 166 CURVE SMOOTH",
"566 421 LINE SMOOTH",
"566 463 OFFCURVE",
"547 483 OFFCURVE",
"482 523 CURVE SMOOTH",
"468 532 OFFCURVE",
"467 534 OFFCURVE",
"467 538 CURVE SMOOTH",
"467 551 OFFCURVE",
"524 620 OFFCURVE",
"539 620 CURVE SMOOTH",
"568 620 OFFCURVE",
"621 585 OFFCURVE",
"639 585 CURVE SMOOTH",
"648 585 OFFCURVE",
"661 599 OFFCURVE",
"661 610 CURVE SMOOTH",
"661 615 OFFCURVE",
"659 618 OFFCURVE",
"651 622 CURVE",
"565 659 OFFCURVE",
"552 663 OFFCURVE",
"541 663 CURVE SMOOTH",
"512 663 OFFCURVE",
"422 560 OFFCURVE",
"422 530 CURVE SMOOTH",
"422 521 OFFCURVE",
"426 513 OFFCURVE",
"449 498 CURVE SMOOTH",
"517 452 OFFCURVE",
"527 445 OFFCURVE",
"527 410 CURVE SMOOTH",
"527 180 LINE SMOOTH",
"527 97 OFFCURVE",
"488 39 OFFCURVE",
"360 39 CURVE SMOOTH",
"228 39 OFFCURVE",
"194 99 OFFCURVE",
"194 180 CURVE SMOOTH",
"194 421 LINE SMOOTH",
"194 463 OFFCURVE",
"175 483 OFFCURVE",
"110 523 CURVE SMOOTH",
"96 532 OFFCURVE",
"95 534 OFFCURVE",
"95 538 CURVE SMOOTH",
"95 551 OFFCURVE",
"152 620 OFFCURVE",
"167 620 CURVE SMOOTH",
"196 620 OFFCURVE",
"249 585 OFFCURVE",
"267 585 CURVE SMOOTH",
"276 585 OFFCURVE",
"289 599 OFFCURVE",
"289 610 CURVE SMOOTH",
"289 615 OFFCURVE",
"287 618 OFFCURVE",
"279 622 CURVE",
"193 659 OFFCURVE",
"180 663 OFFCURVE",
"169 663 CURVE SMOOTH",
"140 663 OFFCURVE",
"50 560 OFFCURVE",
"50 530 CURVE SMOOTH",
"50 521 OFFCURVE",
"54 513 OFFCURVE",
"77 498 CURVE SMOOTH",
"145 452 OFFCURVE",
"155 445 OFFCURVE",
"155 410 CURVE SMOOTH",
"155 166 LINE SMOOTH",
"155 61 OFFCURVE",
"223 0 OFFCURVE",
"357 0 CURVE SMOOTH"
);
}
);
width = 721;
}
);
note = uni1794;
unicode = 1794;
},
{
glyphname = "pha-khmer";
lastChange = "2018-12-17 08:25:10 +0000";
layers = (
{
anchors = (
{
name = bottom;
position = "{365, 0}";
},
{
name = bottomright;
position = "{590, 0}";
},
{
name = top;
position = "{730, 660}";
},
{
name = topcenter;
position = "{365, 660}";
}
);
layerId = "C00489B0-D6FE-4186-8C18-D0EE90D80B61";
paths = (
{
closed = 1;
nodes = (
"194 0 OFFCURVE",
"213 8 OFFCURVE",
"235 20 CURVE SMOOTH",
"334 76 LINE SMOOTH",
"350 85 OFFCURVE",
"356 87 OFFCURVE",
"360 87 CURVE SMOOTH",
"364 87 OFFCURVE",
"373 85 OFFCURVE",
"389 76 CURVE SMOOTH",
"488 20 LINE SMOOTH",
"514 5 OFFCURVE",
"533 0 OFFCURVE",
"551 0 CURVE SMOOTH",
"579 0 OFFCURVE",
"590 13 OFFCURVE",
"590 37 CURVE SMOOTH",
"590 348 LINE SMOOTH",
"590 436 OFFCURVE",
"558 465 OFFCURVE",
"488 465 CURVE SMOOTH",
"414 465 OFFCURVE",
"360 411 OFFCURVE",
"360 337 CURVE SMOOTH",
"360 279 OFFCURVE",
"404 237 OFFCURVE",
"460 237 CURVE SMOOTH",
"482 237 OFFCURVE",
"494 247 OFFCURVE",
"494 283 CURVE SMOOTH",
"494 298 OFFCURVE",
"487 302 OFFCURVE",
"474 302 CURVE SMOOTH",
"452 302 OFFCURVE",
"433 314 OFFCURVE",
"433 344 CURVE SMOOTH",
"433 378 OFFCURVE",
"451 400 OFFCURVE",
"479 400 CURVE SMOOTH",
"499 400 OFFCURVE",
"512 394 OFFCURVE",
"512 351 CURVE SMOOTH",
"512 100 LINE SMOOTH",
"512 95 OFFCURVE",
"511 92 OFFCURVE",
"507 92 CURVE SMOOTH",
"504 92 OFFCURVE",
"496 96 OFFCURVE",
"488 100 CURVE",
"395 153 LINE",
"379 163 OFFCURVE",
"371 165 OFFCURVE",
"365 165 CURVE SMOOTH",
"359 165 OFFCURVE",
"352 163 OFFCURVE",
"335 153 CURVE SMOOTH",
"242 100 LINE",
"234 96 OFFCURVE",
"226 92 OFFCURVE",
"223 92 CURVE SMOOTH",
"219 92 OFFCURVE",
"218 95 OFFCURVE",
"218 100 CURVE SMOOTH",
"218 414 LINE SMOOTH",
"218 436 OFFCURVE",
"208 448 OFFCURVE",
"176 481 CURVE SMOOTH",
"146 513 OFFCURVE",
"139 520 OFFCURVE",
"139 528 CURVE SMOOTH",
"139 539 OFFCURVE",
"198 591 OFFCURVE",
"214 591 CURVE SMOOTH",
"244 591 OFFCURVE",
"346 525 OFFCURVE",
"450 525 CURVE SMOOTH",
"550 525 OFFCURVE",
"620 580 OFFCURVE",
"620 663 CURVE SMOOTH",
"620 718 OFFCURVE",
"584 774 OFFCURVE",
"521 774 CURVE SMOOTH",
"493 774 OFFCURVE",
"479 751 OFFCURVE",
"479 729 CURVE SMOOTH",
"479 722 OFFCURVE",
"483 713 OFFCURVE",
"489 713 CURVE SMOOTH",
"527 713 OFFCURVE",
"542 688 OFFCURVE",
"542 663 CURVE SMOOTH",
"542 622 OFFCURVE",
"516 596 OFFCURVE",
"449 596 CURVE SMOOTH",
"366 596 OFFCURVE",
"256 663 OFFCURVE",
"218 663 CURVE SMOOTH",
"176 663 OFFCURVE",
"56 554 OFFCURVE",
"56 518 CURVE SMOOTH",
"56 504 OFFCURVE",
"67 488 OFFCURVE",
"97 456 CURVE SMOOTH",
"134 418 OFFCURVE",
"140 405 OFFCURVE",
"140 385 CURVE SMOOTH",
"140 37 LINE SMOOTH",
"140 13 OFFCURVE",
"151 0 OFFCURVE",
"178 0 CURVE SMOOTH"
);
}
);
width = 730;
},
{
anchors = (
{
name = bottom;
position = "{369, 0}";
},
{
name = bottomright;
position = "{618, 0}";
},
{
name = top;
position = "{740, 660}";
},
{
name = topcenter;
position = "{370, 660}";
}
);
layerId = "A071A550-EFB7-4955-8F98-3DB7A21E0E0F";
paths = (
{
closed = 1;
nodes = (
"188 0 OFFCURVE",
"217 10 OFFCURVE",
"241 21 CURVE SMOOTH",
"339 67 LINE",
"351 72 OFFCURVE",
"357 75 OFFCURVE",
"366 75 CURVE SMOOTH",
"374 75 OFFCURVE",
"383 71 OFFCURVE",
"392 67 CURVE SMOOTH",
"494 20 LINE SMOOTH",
"523 6 OFFCURVE",
"540 0 OFFCURVE",
"563 0 CURVE SMOOTH",
"604 0 OFFCURVE",
"618 25 OFFCURVE",
"618 58 CURVE SMOOTH",
"618 357 LINE SMOOTH",
"618 430 OFFCURVE",
"574 465 OFFCURVE",
"497 465 CURVE SMOOTH",
"419 465 OFFCURVE",
"357 423 OFFCURVE",
"357 326 CURVE SMOOTH",
"357 261 OFFCURVE",
"386 214 OFFCURVE",
"433 214 CURVE SMOOTH",
"461 214 OFFCURVE",
"480 242 OFFCURVE",
"480 275 CURVE SMOOTH",
"480 289 OFFCURVE",
"476 291 OFFCURVE",
"468 292 CURVE",
"456 294 OFFCURVE",
"450 298 OFFCURVE",
"450 338 CURVE SMOOTH",
"450 378 OFFCURVE",
"458 390 OFFCURVE",
"474 390 CURVE SMOOTH",
"484 390 OFFCURVE",
"488 388 OFFCURVE",
"488 378 CURVE SMOOTH",
"488 134 LINE SMOOTH",
"488 128 OFFCURVE",
"485 126 OFFCURVE",
"481 126 CURVE SMOOTH",
"477 126 OFFCURVE",
"473 128 OFFCURVE",
"470 129 CURVE",
"399 157 LINE SMOOTH",
"386 162 OFFCURVE",
"378 166 OFFCURVE",
"369 166 CURVE SMOOTH",
"362 166 OFFCURVE",
"351 161 OFFCURVE",
"340 157 CURVE SMOOTH",
"270 129 LINE SMOOTH",
"265 127 OFFCURVE",
"262 126 OFFCURVE",
"259 126 CURVE SMOOTH",
"255 126 OFFCURVE",
"252 128 OFFCURVE",
"252 134 CURVE SMOOTH",
"252 370 LINE SMOOTH",
"252 416 OFFCURVE",
"240 437 OFFCURVE",
"193 480 CURVE SMOOTH",
"168 502 OFFCURVE",
"151 519 OFFCURVE",
"151 526 CURVE SMOOTH",
"151 534 OFFCURVE",
"180 556 OFFCURVE",
"194 556 CURVE SMOOTH",
"226 556 OFFCURVE",
"355 498 OFFCURVE",
"466 498 CURVE SMOOTH",
"577 498 OFFCURVE",
"653 556 OFFCURVE",
"653 660 CURVE SMOOTH",
"653 725 OFFCURVE",
"606 775 OFFCURVE",
"540 775 CURVE SMOOTH",
"488 775 OFFCURVE",
"462 751 OFFCURVE",
"462 715 CURVE SMOOTH",
"462 699 OFFCURVE",
"465 699 OFFCURVE",
"483 699 CURVE SMOOTH",
"515 699 OFFCURVE",
"539 686 OFFCURVE",
"539 657 CURVE SMOOTH",
"539 631 OFFCURVE",
"522 612 OFFCURVE",
"482 612 CURVE SMOOTH",
"388 612 OFFCURVE",
"260 663 OFFCURVE",
"224 663 CURVE SMOOTH",
"173 663 OFFCURVE",
"26 543 OFFCURVE",
"26 498 CURVE SMOOTH",
"26 486 OFFCURVE",
"29 482 OFFCURVE",
"79 424 CURVE SMOOTH",
"122 374 OFFCURVE",
"122 369 OFFCURVE",
"122 341 CURVE SMOOTH",
"122 58 LINE SMOOTH",
"122 25 OFFCURVE",
"135 0 OFFCURVE",
"174 0 CURVE SMOOTH"
);
}
);
width = 740;
},
{
anchors = (
{
name = bottom;
position = "{361, 0}";
},
{
name = bottomright;
position = "{566, 0}";
},
{
name = top;
position = "{721, 660}";
},
{
name = topcenter;
position = "{361, 660}";
}
);
layerId = "EF9CD0BC-E2A6-4ABC-B2EB-28760EBC66CA";
paths = (
{
closed = 1;
nodes = (
"193 0 OFFCURVE",
"209 6 OFFCURVE",
"230 19 CURVE SMOOTH",
"329 82 LINE SMOOTH",
"347 93 OFFCURVE",
"352 95 OFFCURVE",
"356 95 CURVE SMOOTH",
"360 95 OFFCURVE",
"364 94 OFFCURVE",
"384 82 CURVE SMOOTH",
"483 20 LINE SMOOTH",
"510 4 OFFCURVE",
"527 0 OFFCURVE",
"538 0 CURVE SMOOTH",
"555 0 OFFCURVE",
"566 9 OFFCURVE",
"566 26 CURVE SMOOTH",
"566 373 LINE SMOOTH",
"566 443 OFFCURVE",
"528 465 OFFCURVE",
"480 465 CURVE SMOOTH",
"423 465 OFFCURVE",
"380 425 OFFCURVE",
"380 352 CURVE SMOOTH",
"380 294 OFFCURVE",
"413 260 OFFCURVE",
"476 260 CURVE SMOOTH",
"492 260 OFFCURVE",
"500 267 OFFCURVE",
"500 282 CURVE SMOOTH",
"500 295 OFFCURVE",
"495 299 OFFCURVE",
"480 299 CURVE SMOOTH",
"438 299 OFFCURVE",
"421 318 OFFCURVE",
"421 355 CURVE SMOOTH",
"421 405 OFFCURVE",
"443 428 OFFCURVE",
"478 428 CURVE SMOOTH",
"511 428 OFFCURVE",
"527 411 OFFCURVE",
"527 370 CURVE SMOOTH",
"527 53 LINE SMOOTH",
"527 48 OFFCURVE",
"526 45 OFFCURVE",
"522 45 CURVE SMOOTH",
"519 45 OFFCURVE",
"511 49 OFFCURVE",
"503 54 CURVE SMOOTH",
"390 125 LINE SMOOTH",
"374 135 OFFCURVE",
"366 137 OFFCURVE",
"360 137 CURVE SMOOTH",
"354 137 OFFCURVE",
"347 135 OFFCURVE",
"330 125 CURVE SMOOTH",
"218 54 LINE SMOOTH",
"209 48 OFFCURVE",
"202 45 OFFCURVE",
"199 45 CURVE SMOOTH",
"195 45 OFFCURVE",
"194 48 OFFCURVE",
"194 53 CURVE SMOOTH",
"194 421 LINE SMOOTH",
"194 450 OFFCURVE",
"190 461 OFFCURVE",
"164 485 CURVE SMOOTH",
"124 522 OFFCURVE",
"119 531 OFFCURVE",
"119 534 CURVE SMOOTH",
"119 547 OFFCURVE",
"197 622 OFFCURVE",
"212 622 CURVE SMOOTH",
"245 622 OFFCURVE",
"351 546 OFFCURVE",
"451 546 CURVE SMOOTH",
"541 546 OFFCURVE",
"592 603 OFFCURVE",
"592 671 CURVE SMOOTH",
"592 737 OFFCURVE",
"550 773 OFFCURVE",
"514 773 CURVE SMOOTH",
"499 773 OFFCURVE",
"488 764 OFFCURVE",
"488 751 CURVE SMOOTH",
"488 746 OFFCURVE",
"489 744 OFFCURVE",
"497 742 CURVE SMOOTH",
"527 734 OFFCURVE",
"552 711 OFFCURVE",
"552 671 CURVE SMOOTH",
"552 623 OFFCURVE",
"524 584 OFFCURVE",
"449 584 CURVE SMOOTH",
"357 584 OFFCURVE",
"253 663 OFFCURVE",
"213 663 CURVE SMOOTH",
"184 663 OFFCURVE",
"75 560 OFFCURVE",
"75 530 CURVE SMOOTH",
"75 520 OFFCURVE",
"81 507 OFFCURVE",
"112 478 CURVE SMOOTH",
"150 443 OFFCURVE",
"155 437 OFFCURVE",
"155 411 CURVE SMOOTH",
"155 26 LINE SMOOTH",
"155 10 OFFCURVE",
"166 0 OFFCURVE",
"182 0 CURVE SMOOTH"
);
}
);
width = 721;
}
);
note = uni1795;
unicode = 1795;
},
{
color = 5;
glyphname = "po-khmer";
lastChange = "2019-02-26 07:56:46 +0000";
layers = (
{
anchors = (
{
name = bottom;
position = "{365, 0}";
},
{
name = bottomright;
position = "{590, 0}";
},
{
name = top;
position = "{730, 660}";
},
{
name = topcenter;
position = "{365, 660}";
}
);
layerId = "C00489B0-D6FE-4186-8C18-D0EE90D80B61";
paths = (
{
closed = 1;
nodes = (
"321 0 OFFCURVE",
"370 48 OFFCURVE",
"370 122 CURVE SMOOTH",
"370 187 OFFCURVE",
"326 228 OFFCURVE",
"273 228 CURVE SMOOTH",
"251 228 OFFCURVE",
"233 217 OFFCURVE",
"233 185 CURVE SMOOTH",
"233 169 OFFCURVE",
"243 163 OFFCURVE",
"257 163 CURVE SMOOTH",
"278 163 OFFCURVE",
"297 147 OFFCURVE",
"297 117 CURVE SMOOTH",
"297 83 OFFCURVE",
"279 65 OFFCURVE",
"255 65 CURVE SMOOTH",
"230 65 OFFCURVE",
"218 80 OFFCURVE",
"218 119 CURVE SMOOTH",
"218 540 LINE SMOOTH",
"218 573 OFFCURVE",
"232 587 OFFCURVE",
"257 587 CURVE SMOOTH",
"295 587 OFFCURVE",
"332 512 OFFCURVE",
"365 512 CURVE SMOOTH",
"398 512 OFFCURVE",
"435 587 OFFCURVE",
"473 587 CURVE SMOOTH",
"498 587 OFFCURVE",
"512 573 OFFCURVE",
"512 540 CURVE SMOOTH",
"512 22 LINE SMOOTH",
"512 7 OFFCURVE",
"526 0 OFFCURVE",
"552 0 CURVE SMOOTH",
"577 0 OFFCURVE",
"590 7 OFFCURVE",
"590 22 CURVE SMOOTH",
"590 545 LINE SMOOTH",
"590 630 OFFCURVE",
"534 663 OFFCURVE",
"483 663 CURVE SMOOTH",
"408 663 OFFCURVE",
"382 590 OFFCURVE",
"365 590 CURVE SMOOTH",
"348 590 OFFCURVE",
"322 663 OFFCURVE",
"247 663 CURVE SMOOTH",
"196 663 OFFCURVE",
"140 631 OFFCURVE",
"140 546 CURVE SMOOTH",
"140 112 LINE SMOOTH",
"140 39 OFFCURVE",
"176 0 OFFCURVE",
"251 0 CURVE SMOOTH"
);
}
);
width = 730;
},
{
anchors = (
{
name = bottom;
position = "{369, 0}";
},
{
name = bottomright;
position = "{618, 0}";
},
{
name = top;
position = "{740, 660}";
},
{
name = topcenter;
position = "{370, 660}";
}
);
layerId = "A071A550-EFB7-4955-8F98-3DB7A21E0E0F";
paths = (
{
closed = 1;
nodes = (
"321 0 OFFCURVE",
"383 42 OFFCURVE",
"383 139 CURVE SMOOTH",
"383 204 OFFCURVE",
"356 251 OFFCURVE",
"305 251 CURVE SMOOTH",
"275 251 OFFCURVE",
"260 233 OFFCURVE",
"260 200 CURVE SMOOTH",
"260 180 OFFCURVE",
"264 174 OFFCURVE",
"272 173 CURVE",
"284 171 OFFCURVE",
"290 167 OFFCURVE",
"290 127 CURVE SMOOTH",
"290 87 OFFCURVE",
"282 75 OFFCURVE",
"266 75 CURVE SMOOTH",
"256 75 OFFCURVE",
"252 77 OFFCURVE",
"252 87 CURVE SMOOTH",
"252 520 LINE SMOOTH",
"252 542 OFFCURVE",
"262 552 OFFCURVE",
"276 552 CURVE SMOOTH",
"301 552 OFFCURVE",
"340 487 OFFCURVE",
"370 487 CURVE SMOOTH",
"400 487 OFFCURVE",
"439 552 OFFCURVE",
"464 552 CURVE SMOOTH",
"478 552 OFFCURVE",
"488 542 OFFCURVE",
"488 520 CURVE SMOOTH",
"488 40 LINE SMOOTH",
"488 11 OFFCURVE",
"509 0 OFFCURVE",
"555 0 CURVE SMOOTH",
"599 0 OFFCURVE",
"618 13 OFFCURVE",
"618 40 CURVE SMOOTH",
"618 535 LINE SMOOTH",
"618 630 OFFCURVE",
"556 663 OFFCURVE",
"500 663 CURVE SMOOTH",
"420 663 OFFCURVE",
"390 581 OFFCURVE",
"370 581 CURVE SMOOTH",
"350 581 OFFCURVE",
"320 663 OFFCURVE",
"240 663 CURVE SMOOTH",
"184 663 OFFCURVE",
"122 631 OFFCURVE",
"122 536 CURVE SMOOTH",
"122 108 LINE SMOOTH",
"122 35 OFFCURVE",
"166 0 OFFCURVE",
"243 0 CURVE SMOOTH"
);
}
);
width = 740;
},
{
anchors = (
{
name = bottom;
position = "{361, 0}";
},
{
name = bottomright;
position = "{566, 0}";
},
{
name = top;
position = "{721, 660}";
},
{
name = topcenter;
position = "{361, 660}";
}
);
layerId = "EF9CD0BC-E2A6-4ABC-B2EB-28760EBC66CA";
paths = (
{
closed = 1;
nodes = (
"300 0 OFFCURVE",
"341 42 OFFCURVE",
"341 110 CURVE SMOOTH",
"341 171 OFFCURVE",
"307 205 OFFCURVE",
"252 205 CURVE SMOOTH",
"229 205 OFFCURVE",
"221 199 OFFCURVE",
"221 183 CURVE SMOOTH",
"221 165 OFFCURVE",
"231 167 OFFCURVE",
"241 166 CURVE SMOOTH",
"275 164 OFFCURVE",
"300 158 OFFCURVE",
"300 107 CURVE SMOOTH",
"300 60 OFFCURVE",
"278 37 OFFCURVE",
"246 37 CURVE SMOOTH",
"214 37 OFFCURVE",
"194 61 OFFCURVE",
"194 95 CURVE SMOOTH",
"194 560 LINE SMOOTH",
"194 601 OFFCURVE",
"217 627 OFFCURVE",
"245 627 CURVE SMOOTH",
"297 627 OFFCURVE",
"313 539 OFFCURVE",
"360 539 CURVE SMOOTH",
"407 539 OFFCURVE",
"422 627 OFFCURVE",
"474 627 CURVE SMOOTH",
"503 627 OFFCURVE",
"526 601 OFFCURVE",
"526 560 CURVE SMOOTH",
"526 20 LINE SMOOTH",
"526 5 OFFCURVE",
"533 0 OFFCURVE",
"546 0 CURVE SMOOTH",
"558 0 OFFCURVE",
"565 5 OFFCURVE",
"565 20 CURVE SMOOTH",
"565 561 LINE SMOOTH",
"565 626 OFFCURVE",
"527 663 OFFCURVE",
"475 663 CURVE SMOOTH",
"396 663 OFFCURVE",
"385 579 OFFCURVE",
"360 579 CURVE SMOOTH",
"336 579 OFFCURVE",
"326 663 OFFCURVE",
"246 663 CURVE SMOOTH",
"193 663 OFFCURVE",
"155 626 OFFCURVE",
"155 561 CURVE SMOOTH",
"155 92 LINE SMOOTH",
"155 38 OFFCURVE",
"190 0 OFFCURVE",
"243 0 CURVE SMOOTH"
);
}
);
width = 721;
},
{
anchors = (
{
name = bottom;
position = "{361, 0}";
},
{
name = bottomright;
position = "{566, 0}";
},
{
name = top;
position = "{721, 660}";
},
{
name = topcenter;
position = "{361, 660}";
}
);
associatedMasterId = "EF9CD0BC-E2A6-4ABC-B2EB-28760EBC66CA";
layerId = "87C42216-3856-4691-9645-78358C2BD6FB";
name = "Dec 19 18, 11:58";
paths = (
{
closed = 1;
nodes = (
"390 537 OFFCURVE",
"419 627 OFFCURVE",
"473 627 CURVE SMOOTH",
"502 627 OFFCURVE",
"526 601 OFFCURVE",
"526 560 CURVE SMOOTH",
"526 20 LINE SMOOTH",
"526 5 OFFCURVE",
"533 0 OFFCURVE",
"546 0 CURVE SMOOTH",
"558 0 OFFCURVE",
"565 5 OFFCURVE",
"565 20 CURVE SMOOTH",
"565 561 LINE SMOOTH",
"565 626 OFFCURVE",
"527 663 OFFCURVE",
"471 663 CURVE SMOOTH",
"438 663 OFFCURVE",
"411 645 OFFCURVE",
"385 611 CURVE SMOOTH",
"360 579 LINE",
"335 611 LINE SMOOTH",
"309 645 OFFCURVE",
"282 663 OFFCURVE",
"249 663 CURVE SMOOTH",
"193 663 OFFCURVE",
"155 626 OFFCURVE",
"155 561 CURVE SMOOTH",
"155 92 LINE SMOOTH",
"155 22 OFFCURVE",
"193 0 OFFCURVE",
"241 0 CURVE SMOOTH",
"298 0 OFFCURVE",
"341 40 OFFCURVE",
"341 113 CURVE SMOOTH",
"341 171 OFFCURVE",
"308 205 OFFCURVE",
"245 205 CURVE SMOOTH",
"229 205 OFFCURVE",
"221 198 OFFCURVE",
"221 183 CURVE SMOOTH",
"221 170 OFFCURVE",
"226 166 OFFCURVE",
"241 166 CURVE SMOOTH",
"283 166 OFFCURVE",
"300 147 OFFCURVE",
"300 110 CURVE SMOOTH",
"300 60 OFFCURVE",
"278 37 OFFCURVE",
"243 37 CURVE SMOOTH",
"210 37 OFFCURVE",
"194 54 OFFCURVE",
"194 95 CURVE SMOOTH",
"194 560 LINE SMOOTH",
"194 601 OFFCURVE",
"218 627 OFFCURVE",
"247 627 CURVE SMOOTH",
"301 627 OFFCURVE",
"330 537 OFFCURVE",
"360 537 CURVE SMOOTH"
);
}
);
width = 720;
}
);
note = uni1796;
unicode = 1796;
},
{
glyphname = "pho-khmer";
lastChange = "2018-12-17 08:25:10 +0000";
layers = (
{
anchors = (
{
name = bottom;
position = "{365, 0}";
},
{
name = bottomright;
position = "{590, 0}";
},
{
name = top;
position = "{730, 660}";
},
{
name = topcenter;
position = "{365, 660}";
}
);
layerId = "C00489B0-D6FE-4186-8C18-D0EE90D80B61";
paths = (
{
closed = 1;
nodes = (
"199 0 OFFCURVE",
"239 45 OFFCURVE",
"239 105 CURVE SMOOTH",
"239 154 OFFCURVE",
"229 231 OFFCURVE",
"229 267 CURVE SMOOTH",
"229 338 OFFCURVE",
"255 380 OFFCURVE",
"365 380 CURVE SMOOTH",
"485 380 OFFCURVE",
"512 338 OFFCURVE",
"512 267 CURVE SMOOTH",
"512 22 LINE SMOOTH",
"512 7 OFFCURVE",
"526 0 OFFCURVE",
"552 0 CURVE SMOOTH",
"577 0 OFFCURVE",
"590 7 OFFCURVE",
"590 22 CURVE SMOOTH",
"590 285 LINE SMOOTH",
"590 390 OFFCURVE",
"510 451 OFFCURVE",
"365 451 CURVE SMOOTH",
"228 451 OFFCURVE",
"150 390 OFFCURVE",
"150 285 CURVE SMOOTH",
"150 229 OFFCURVE",
"163 140 OFFCURVE",
"163 105 CURVE SMOOTH",
"163 74 OFFCURVE",
"148 65 OFFCURVE",
"131 65 CURVE SMOOTH",
"110 65 OFFCURVE",
"99 83 OFFCURVE",
"99 117 CURVE SMOOTH",
"99 147 OFFCURVE",
"111 163 OFFCURVE",
"130 163 CURVE SMOOTH",
"141 163 OFFCURVE",
"145 167 OFFCURVE",
"145 180 CURVE SMOOTH",
"145 211 OFFCURVE",
"128 228 OFFCURVE",
"104 228 CURVE SMOOTH",
"61 228 OFFCURVE",
"26 190 OFFCURVE",
"26 119 CURVE SMOOTH",
"26 37 OFFCURVE",
"74 0 OFFCURVE",
"137 0 CURVE SMOOTH"
);
},
{
closed = 1;
nodes = (
"152 430 OFFCURVE",
"180 455 OFFCURVE",
"180 470 CURVE SMOOTH",
"180 475 OFFCURVE",
"178 479 OFFCURVE",
"172 485 CURVE",
"149 510 LINE",
"142 517 OFFCURVE",
"139 523 OFFCURVE",
"139 528 CURVE SMOOTH",
"139 539 OFFCURVE",
"191 586 OFFCURVE",
"206 586 CURVE SMOOTH",
"221 586 OFFCURVE",
"324 503 OFFCURVE",
"364 503 CURVE SMOOTH",
"395 503 OFFCURVE",
"485 586 OFFCURVE",
"498 586 CURVE SMOOTH",
"511 586 OFFCURVE",
"567 541 OFFCURVE",
"596 525 CURVE",
"604 521 OFFCURVE",
"610 518 OFFCURVE",
"617 518 CURVE SMOOTH",
"638 518 OFFCURVE",
"657 545 OFFCURVE",
"657 562 CURVE SMOOTH",
"657 569 OFFCURVE",
"653 576 OFFCURVE",
"646 582 CURVE SMOOTH",
"597 624 OFFCURVE",
"525 663 OFFCURVE",
"504 663 CURVE SMOOTH",
"478 663 OFFCURVE",
"381 580 OFFCURVE",
"366 580 CURVE SMOOTH",
"351 580 OFFCURVE",
"242 663 OFFCURVE",
"218 663 CURVE SMOOTH",
"176 663 OFFCURVE",
"56 554 OFFCURVE",
"56 518 CURVE SMOOTH",
"56 504 OFFCURVE",
"81 467 OFFCURVE",
"115 438 CURVE SMOOTH",
"122 432 OFFCURVE",
"127 430 OFFCURVE",
"137 430 CURVE SMOOTH"
);
}
);
width = 730;
},
{
anchors = (
{
name = bottom;
position = "{369, 0}";
},
{
name = bottomright;
position = "{618, 0}";
},
{
name = top;
position = "{740, 660}";
},
{
name = topcenter;
position = "{370, 660}";
}
);
layerId = "A071A550-EFB7-4955-8F98-3DB7A21E0E0F";
paths = (
{
closed = 1;
nodes = (
"227 0 OFFCURVE",
"273 46 OFFCURVE",
"273 124 CURVE SMOOTH",
"273 157 OFFCURVE",
"253 245 OFFCURVE",
"253 280 CURVE SMOOTH",
"253 330 OFFCURVE",
"268 362 OFFCURVE",
"369 362 CURVE SMOOTH",
"462 362 OFFCURVE",
"488 335 OFFCURVE",
"488 280 CURVE SMOOTH",
"488 40 LINE SMOOTH",
"488 11 OFFCURVE",
"509 0 OFFCURVE",
"555 0 CURVE SMOOTH",
"599 0 OFFCURVE",
"618 13 OFFCURVE",
"618 40 CURVE SMOOTH",
"618 276 LINE SMOOTH",
"618 381 OFFCURVE",
"559 451 OFFCURVE",
"374 451 CURVE SMOOTH",
"198 451 OFFCURVE",
"123 390 OFFCURVE",
"123 285 CURVE SMOOTH",
"123 247 OFFCURVE",
"145 130 OFFCURVE",
"145 96 CURVE SMOOTH",
"145 80 OFFCURVE",
"140 75 OFFCURVE",
"129 75 CURVE SMOOTH",
"117 75 OFFCURVE",
"105 85 OFFCURVE",
"105 125 CURVE SMOOTH",
"105 167 OFFCURVE",
"109 169 OFFCURVE",
"117 172 CURVE",
"123 174 OFFCURVE",
"125 177 OFFCURVE",
"125 190 CURVE SMOOTH",
"125 228 OFFCURVE",
"106 251 OFFCURVE",
"85 251 CURVE SMOOTH",
"56 251 OFFCURVE",
"18 218 OFFCURVE",
"18 139 CURVE SMOOTH",
"18 43 OFFCURVE",
"73 0 OFFCURVE",
"151 0 CURVE SMOOTH"
);
},
{
closed = 1;
nodes = (
"149 398 OFFCURVE",
"199 435 OFFCURVE",
"199 462 CURVE SMOOTH",
"199 469 OFFCURVE",
"196 474 OFFCURVE",
"190 482 CURVE",
"161 511 LINE SMOOTH",
"154 518 OFFCURVE",
"151 523 OFFCURVE",
"151 526 CURVE SMOOTH",
"151 534 OFFCURVE",
"174 555 OFFCURVE",
"185 555 CURVE SMOOTH",
"198 555 OFFCURVE",
"304 484 OFFCURVE",
"337 484 CURVE SMOOTH",
"368 484 OFFCURVE",
"449 551 OFFCURVE",
"462 551 CURVE SMOOTH",
"475 551 OFFCURVE",
"513 518 OFFCURVE",
"561 490 CURVE SMOOTH",
"568 486 OFFCURVE",
"580 483 OFFCURVE",
"590 483 CURVE SMOOTH",
"628 483 OFFCURVE",
"673 522 OFFCURVE",
"673 551 CURVE SMOOTH",
"673 562 OFFCURVE",
"669 567 OFFCURVE",
"647 583 CURVE SMOOTH",
"556 648 OFFCURVE",
"517 663 OFFCURVE",
"496 663 CURVE SMOOTH",
"467 663 OFFCURVE",
"390 595 OFFCURVE",
"366 595 CURVE SMOOTH",
"339 595 OFFCURVE",
"242 663 OFFCURVE",
"218 663 CURVE SMOOTH",
"179 663 OFFCURVE",
"26 543 OFFCURVE",
"26 498 CURVE SMOOTH",
"26 484 OFFCURVE",
"43 462 OFFCURVE",
"88 415 CURVE SMOOTH",
"95 408 OFFCURVE",
"109 398 OFFCURVE",
"119 398 CURVE SMOOTH"
);
}
);
width = 740;
},
{
anchors = (
{
name = bottom;
position = "{361, 0}";
},
{
name = bottomright;
position = "{566, 0}";
},
{
name = top;
position = "{721, 660}";
},
{
name = topcenter;
position = "{361, 660}";
}
);
layerId = "EF9CD0BC-E2A6-4ABC-B2EB-28760EBC66CA";
paths = (
{
closed = 1;
nodes = (
"174 0 OFFCURVE",
"209 29 OFFCURVE",
"209 92 CURVE SMOOTH",
"209 152 OFFCURVE",
"194 211 OFFCURVE",
"194 271 CURVE SMOOTH",
"194 354 OFFCURVE",
"233 412 OFFCURVE",
"361 412 CURVE SMOOTH",
"493 412 OFFCURVE",
"527 352 OFFCURVE",
"527 271 CURVE SMOOTH",
"527 20 LINE SMOOTH",
"527 5 OFFCURVE",
"534 0 OFFCURVE",
"547 0 CURVE SMOOTH",
"559 0 OFFCURVE",
"566 5 OFFCURVE",
"566 20 CURVE SMOOTH",
"566 285 LINE SMOOTH",
"566 390 OFFCURVE",
"498 451 OFFCURVE",
"364 451 CURVE SMOOTH",
"230 451 OFFCURVE",
"155 390 OFFCURVE",
"155 285 CURVE SMOOTH",
"155 222 OFFCURVE",
"170 158 OFFCURVE",
"170 95 CURVE SMOOTH",
"170 54 OFFCURVE",
"156 37 OFFCURVE",
"126 37 CURVE SMOOTH",
"94 37 OFFCURVE",
"74 60 OFFCURVE",
"74 110 CURVE SMOOTH",
"74 147 OFFCURVE",
"87 166 OFFCURVE",
"123 166 CURVE SMOOTH",
"138 166 OFFCURVE",
"143 170 OFFCURVE",
"143 183 CURVE SMOOTH",
"143 198 OFFCURVE",
"135 205 OFFCURVE",
"119 205 CURVE SMOOTH",
"64 205 OFFCURVE",
"33 167 OFFCURVE",
"33 109 CURVE SMOOTH",
"33 36 OFFCURVE",
"71 0 OFFCURVE",
"126 0 CURVE SMOOTH"
);
},
{
closed = 1;
nodes = (
"174 436 OFFCURVE",
"186 447 OFFCURVE",
"186 458 CURVE SMOOTH",
"186 462 OFFCURVE",
"184 465 OFFCURVE",
"179 470 CURVE SMOOTH",
"132 516 LINE SMOOTH",
"124 524 OFFCURVE",
"119 531 OFFCURVE",
"119 534 CURVE SMOOTH",
"119 547 OFFCURVE",
"194 620 OFFCURVE",
"209 620 CURVE SMOOTH",
"224 620 OFFCURVE",
"329 539 OFFCURVE",
"360 539 CURVE SMOOTH",
"383 539 OFFCURVE",
"482 620 OFFCURVE",
"495 620 CURVE SMOOTH",
"508 620 OFFCURVE",
"559 577 OFFCURVE",
"597 553 CURVE SMOOTH",
"605 548 OFFCURVE",
"610 546 OFFCURVE",
"615 546 CURVE SMOOTH",
"624 546 OFFCURVE",
"635 560 OFFCURVE",
"635 569 CURVE SMOOTH",
"635 574 OFFCURVE",
"634 576 OFFCURVE",
"627 582 CURVE",
"576 621 OFFCURVE",
"510 663 OFFCURVE",
"497 663 CURVE SMOOTH",
"477 663 OFFCURVE",
"376 580 OFFCURVE",
"361 580 CURVE SMOOTH",
"346 580 OFFCURVE",
"230 663 OFFCURVE",
"213 663 CURVE SMOOTH",
"184 663 OFFCURVE",
"75 560 OFFCURVE",
"75 530 CURVE SMOOTH",
"75 516 OFFCURVE",
"103 485 OFFCURVE",
"147 444 CURVE",
"154 438 OFFCURVE",
"159 436 OFFCURVE",
"163 436 CURVE SMOOTH"
);
}
);
width = 721;
}
);
note = uni1797;
unicode = 1797;
},
{
glyphname = "mo-khmer";
lastChange = "2018-12-17 08:25:10 +0000";
layers = (
{
anchors = (
{
name = bottom;
position = "{365, 0}";
},
{
name = bottomright;
position = "{590, 0}";
},
{
name = top;
position = "{730, 660}";
},
{
name = topcenter;
position = "{365, 660}";
}
);
layerId = "C00489B0-D6FE-4186-8C18-D0EE90D80B61";
paths = (
{
closed = 1;
nodes = (
"510 0 OFFCURVE",
"590 61 OFFCURVE",
"590 166 CURVE SMOOTH",
"590 424 LINE SMOOTH",
"590 468 OFFCURVE",
"575 485 OFFCURVE",
"498 528 CURVE SMOOTH",
"489 533 OFFCURVE",
"485 537 OFFCURVE",
"485 541 CURVE SMOOTH",
"485 551 OFFCURVE",
"517 590 OFFCURVE",
"530 590 CURVE SMOOTH",
"554 590 OFFCURVE",
"619 554 OFFCURVE",
"640 554 CURVE SMOOTH",
"662 554 OFFCURVE",
"685 586 OFFCURVE",
"685 598 CURVE SMOOTH",
"685 605 OFFCURVE",
"681 610 OFFCURVE",
"672 615 CURVE SMOOTH",
"623 642 OFFCURVE",
"556 663 OFFCURVE",
"539 663 CURVE SMOOTH",
"498 663 OFFCURVE",
"404 551 OFFCURVE",
"404 521 CURVE SMOOTH",
"404 509 OFFCURVE",
"413 502 OFFCURVE",
"426 494 CURVE SMOOTH",
"506 445 OFFCURVE",
"512 437 OFFCURVE",
"512 408 CURVE SMOOTH",
"512 184 LINE SMOOTH",
"512 112 OFFCURVE",
"485 70 OFFCURVE",
"365 70 CURVE SMOOTH",
"245 70 OFFCURVE",
"218 112 OFFCURVE",
"218 184 CURVE SMOOTH",
"218 424 LINE SMOOTH",
"218 468 OFFCURVE",
"202 485 OFFCURVE",
"125 528 CURVE SMOOTH",
"116 533 OFFCURVE",
"113 537 OFFCURVE",
"113 541 CURVE SMOOTH",
"113 551 OFFCURVE",
"144 590 OFFCURVE",
"158 590 CURVE SMOOTH",
"181 590 OFFCURVE",
"247 554 OFFCURVE",
"268 554 CURVE SMOOTH",
"290 554 OFFCURVE",
"312 586 OFFCURVE",
"312 598 CURVE SMOOTH",
"312 605 OFFCURVE",
"309 610 OFFCURVE",
"300 615 CURVE SMOOTH",
"250 642 OFFCURVE",
"184 663 OFFCURVE",
"166 663 CURVE SMOOTH",
"125 663 OFFCURVE",
"32 551 OFFCURVE",
"32 521 CURVE SMOOTH",
"32 509 OFFCURVE",
"40 502 OFFCURVE",
"53 494 CURVE SMOOTH",
"133 445 OFFCURVE",
"140 437 OFFCURVE",
"140 408 CURVE SMOOTH",
"140 166 LINE SMOOTH",
"140 61 OFFCURVE",
"220 0 OFFCURVE",
"365 0 CURVE SMOOTH"
);
},
{
closed = 1;
nodes = (
"469 275 LINE SMOOTH",
"485 275 OFFCURVE",
"492 287 OFFCURVE",
"492 305 CURVE SMOOTH",
"492 324 OFFCURVE",
"485 334 OFFCURVE",
"469 334 CURVE SMOOTH",
"261 334 LINE SMOOTH",
"245 334 OFFCURVE",
"238 323 OFFCURVE",
"238 305 CURVE SMOOTH",
"238 286 OFFCURVE",
"245 275 OFFCURVE",
"261 275 CURVE SMOOTH"
);
}
);
width = 730;
},
{
anchors = (
{
name = bottom;
position = "{369, 0}";
},
{
name = bottomright;
position = "{618, 0}";
},
{
name = top;
position = "{740, 660}";
},
{
name = topcenter;
position = "{370, 660}";
}
);
layerId = "A071A550-EFB7-4955-8F98-3DB7A21E0E0F";
paths = (
{
closed = 1;
nodes = (
"538 0 OFFCURVE",
"618 70 OFFCURVE",
"618 175 CURVE SMOOTH",
"618 371 LINE SMOOTH",
"618 454 OFFCURVE",
"608 470 OFFCURVE",
"507 526 CURVE",
"503 528 OFFCURVE",
"501 531 OFFCURVE",
"501 533 CURVE SMOOTH",
"501 539 OFFCURVE",
"510 552 OFFCURVE",
"517 552 CURVE SMOOTH",
"530 552 OFFCURVE",
"607 512 OFFCURVE",
"626 512 CURVE SMOOTH",
"653 512 OFFCURVE",
"695 571 OFFCURVE",
"695 589 CURVE SMOOTH",
"695 599 OFFCURVE",
"691 607 OFFCURVE",
"681 613 CURVE",
"659 628 OFFCURVE",
"560 663 OFFCURVE",
"533 663 CURVE SMOOTH",
"490 663 OFFCURVE",
"396 534 OFFCURVE",
"396 494 CURVE SMOOTH",
"396 485 OFFCURVE",
"399 472 OFFCURVE",
"447 443 CURVE SMOOTH",
"488 417 OFFCURVE",
"488 404 OFFCURVE",
"488 354 CURVE SMOOTH",
"488 170 LINE SMOOTH",
"488 121 OFFCURVE",
"467 89 OFFCURVE",
"371 89 CURVE SMOOTH",
"278 89 OFFCURVE",
"252 116 OFFCURVE",
"252 170 CURVE SMOOTH",
"252 371 LINE SMOOTH",
"252 454 OFFCURVE",
"242 470 OFFCURVE",
"141 526 CURVE",
"137 528 OFFCURVE",
"135 531 OFFCURVE",
"135 533 CURVE SMOOTH",
"135 539 OFFCURVE",
"144 552 OFFCURVE",
"151 552 CURVE SMOOTH",
"164 552 OFFCURVE",
"241 512 OFFCURVE",
"260 512 CURVE SMOOTH",
"287 512 OFFCURVE",
"329 571 OFFCURVE",
"329 589 CURVE SMOOTH",
"329 599 OFFCURVE",
"325 607 OFFCURVE",
"315 613 CURVE",
"293 628 OFFCURVE",
"194 663 OFFCURVE",
"167 663 CURVE SMOOTH",
"124 663 OFFCURVE",
"30 534 OFFCURVE",
"30 494 CURVE SMOOTH",
"30 485 OFFCURVE",
"33 472 OFFCURVE",
"81 443 CURVE SMOOTH",
"122 417 OFFCURVE",
"122 404 OFFCURVE",
"122 354 CURVE SMOOTH",
"122 175 LINE SMOOTH",
"122 70 OFFCURVE",
"181 0 OFFCURVE",
"366 0 CURVE SMOOTH"
);
},
{
closed = 1;
nodes = (
"431 255 LINE SMOOTH",
"452 255 OFFCURVE",
"469 261 OFFCURVE",
"469 303 CURVE SMOOTH",
"469 348 OFFCURVE",
"452 353 OFFCURVE",
"431 353 CURVE SMOOTH",
"309 353 LINE SMOOTH",
"288 353 OFFCURVE",
"271 348 OFFCURVE",
"271 303 CURVE SMOOTH",
"271 262 OFFCURVE",
"288 255 OFFCURVE",
"309 255 CURVE SMOOTH"
);
}
);
width = 740;
},
{
anchors = (
{
name = bottom;
position = "{361, 0}";
},
{
name = bottomright;
position = "{566, 0}";
},
{
name = top;
position = "{721, 660}";
},
{
name = topcenter;
position = "{361, 660}";
}
);
layerId = "EF9CD0BC-E2A6-4ABC-B2EB-28760EBC66CA";
paths = (
{
closed = 1;
nodes = (
"491 0 OFFCURVE",
"566 61 OFFCURVE",
"566 166 CURVE SMOOTH",
"566 421 LINE SMOOTH",
"566 463 OFFCURVE",
"547 483 OFFCURVE",
"482 523 CURVE SMOOTH",
"468 532 OFFCURVE",
"467 534 OFFCURVE",
"467 538 CURVE SMOOTH",
"467 551 OFFCURVE",
"524 620 OFFCURVE",
"539 620 CURVE SMOOTH",
"568 620 OFFCURVE",
"621 585 OFFCURVE",
"639 585 CURVE SMOOTH",
"648 585 OFFCURVE",
"661 599 OFFCURVE",
"661 610 CURVE SMOOTH",
"661 615 OFFCURVE",
"659 618 OFFCURVE",
"651 622 CURVE",
"565 659 OFFCURVE",
"552 663 OFFCURVE",
"541 663 CURVE SMOOTH",
"512 663 OFFCURVE",
"422 560 OFFCURVE",
"422 530 CURVE SMOOTH",
"422 521 OFFCURVE",
"426 513 OFFCURVE",
"449 498 CURVE SMOOTH",
"517 452 OFFCURVE",
"527 445 OFFCURVE",
"527 410 CURVE SMOOTH",
"527 180 LINE SMOOTH",
"527 97 OFFCURVE",
"488 39 OFFCURVE",
"360 39 CURVE SMOOTH",
"228 39 OFFCURVE",
"194 99 OFFCURVE",
"194 180 CURVE SMOOTH",
"194 421 LINE SMOOTH",
"194 463 OFFCURVE",
"175 483 OFFCURVE",
"110 523 CURVE SMOOTH",
"96 532 OFFCURVE",
"95 534 OFFCURVE",
"95 538 CURVE SMOOTH",
"95 551 OFFCURVE",
"152 620 OFFCURVE",
"167 620 CURVE SMOOTH",
"196 620 OFFCURVE",
"249 585 OFFCURVE",
"267 585 CURVE SMOOTH",
"276 585 OFFCURVE",
"289 599 OFFCURVE",
"289 610 CURVE SMOOTH",
"289 615 OFFCURVE",
"287 618 OFFCURVE",
"279 622 CURVE",
"193 659 OFFCURVE",
"180 663 OFFCURVE",
"169 663 CURVE SMOOTH",
"140 663 OFFCURVE",
"50 560 OFFCURVE",
"50 530 CURVE SMOOTH",
"50 521 OFFCURVE",
"54 513 OFFCURVE",
"77 498 CURVE SMOOTH",
"145 452 OFFCURVE",
"155 445 OFFCURVE",
"155 410 CURVE SMOOTH",
"155 166 LINE SMOOTH",
"155 61 OFFCURVE",
"223 0 OFFCURVE",
"357 0 CURVE SMOOTH"
);
},
{
closed = 1;
nodes = (
"474 286 LINE SMOOTH",
"489 286 OFFCURVE",
"493 294 OFFCURVE",
"493 305 CURVE SMOOTH",
"493 316 OFFCURVE",
"489 323 OFFCURVE",
"474 323 CURVE SMOOTH",
"245 323 LINE SMOOTH",
"231 323 OFFCURVE",
"226 317 OFFCURVE",
"226 305 CURVE SMOOTH",
"226 293 OFFCURVE",
"231 286 OFFCURVE",
"245 286 CURVE SMOOTH"
);
}
);
width = 721;
}
);
note = uni1798;
unicode = 1798;
},
{
glyphname = "yo-khmer";
lastChange = "2018-12-17 08:25:10 +0000";
layers = (
{
anchors = (
{
name = bottom;
position = "{738, 0}";
},
{
name = bottomright;
position = "{963, 0}";
},
{
name = top;
position = "{1103, 660}";
},
{
name = topcenter;
position = "{738, 660}";
}
);
layerId = "C00489B0-D6FE-4186-8C18-D0EE90D80B61";
paths = (
{
closed = 1;
nodes = (
"451 0 OFFCURVE",
"516 21 OFFCURVE",
"551 67 CURVE",
"588 19 OFFCURVE",
"649 0 OFFCURVE",
"738 0 CURVE SMOOTH",
"883 0 OFFCURVE",
"963 61 OFFCURVE",
"963 166 CURVE SMOOTH",
"963 424 LINE SMOOTH",
"963 468 OFFCURVE",
"947 485 OFFCURVE",
"870 528 CURVE SMOOTH",
"861 533 OFFCURVE",
"858 537 OFFCURVE",
"858 541 CURVE SMOOTH",
"858 551 OFFCURVE",
"889 590 OFFCURVE",
"903 590 CURVE SMOOTH",
"926 590 OFFCURVE",
"992 554 OFFCURVE",
"1013 554 CURVE SMOOTH",
"1035 554 OFFCURVE",
"1058 586 OFFCURVE",
"1058 598 CURVE SMOOTH",
"1058 605 OFFCURVE",
"1054 610 OFFCURVE",
"1045 615 CURVE SMOOTH",
"995 642 OFFCURVE",
"929 663 OFFCURVE",
"912 663 CURVE SMOOTH",
"870 663 OFFCURVE",
"777 551 OFFCURVE",
"777 521 CURVE SMOOTH",
"777 509 OFFCURVE",
"785 502 OFFCURVE",
"799 494 CURVE",
"878 445 OFFCURVE",
"885 437 OFFCURVE",
"885 408 CURVE SMOOTH",
"885 184 LINE SMOOTH",
"885 112 OFFCURVE",
"857 70 OFFCURVE",
"738 70 CURVE SMOOTH",
"618 70 OFFCURVE",
"590 112 OFFCURVE",
"590 184 CURVE SMOOTH",
"590 424 LINE SMOOTH",
"590 468 OFFCURVE",
"576 485 OFFCURVE",
"503 528 CURVE SMOOTH",
"495 533 OFFCURVE",
"492 537 OFFCURVE",
"492 541 CURVE SMOOTH",
"492 551 OFFCURVE",
"521 590 OFFCURVE",
"534 590 CURVE SMOOTH",
"556 590 OFFCURVE",
"615 554 OFFCURVE",
"634 554 CURVE SMOOTH",
"655 554 OFFCURVE",
"677 586 OFFCURVE",
"677 598 CURVE SMOOTH",
"677 605 OFFCURVE",
"673 610 OFFCURVE",
"665 615 CURVE",
"618 642 OFFCURVE",
"555 663 OFFCURVE",
"539 663 CURVE SMOOTH",
"500 663 OFFCURVE",
"413 551 OFFCURVE",
"413 521 CURVE SMOOTH",
"413 509 OFFCURVE",
"420 502 OFFCURVE",
"433 494 CURVE SMOOTH",
"508 445 OFFCURVE",
"512 437 OFFCURVE",
"512 408 CURVE SMOOTH",
"512 182 LINE SMOOTH",
"512 113 OFFCURVE",
"485 70 OFFCURVE",
"365 70 CURVE SMOOTH",
"245 70 OFFCURVE",
"218 112 OFFCURVE",
"218 184 CURVE SMOOTH",
"218 544 LINE SMOOTH",
"218 583 OFFCURVE",
"228 598 OFFCURVE",
"250 598 CURVE SMOOTH",
"271 598 OFFCURVE",
"280 580 OFFCURVE",
"280 546 CURVE SMOOTH",
"280 516 OFFCURVE",
"269 500 OFFCURVE",
"250 500 CURVE SMOOTH",
"237 500 OFFCURVE",
"231 494 OFFCURVE",
"231 479 CURVE SMOOTH",
"231 446 OFFCURVE",
"248 436 OFFCURVE",
"267 436 CURVE SMOOTH",
"313 436 OFFCURVE",
"353 469 OFFCURVE",
"353 542 CURVE SMOOTH",
"353 621 OFFCURVE",
"309 663 OFFCURVE",
"247 663 CURVE SMOOTH",
"181 663 OFFCURVE",
"140 629 OFFCURVE",
"140 556 CURVE SMOOTH",
"140 166 LINE SMOOTH",
"140 61 OFFCURVE",
"220 0 OFFCURVE",
"365 0 CURVE SMOOTH"
);
}
);
width = 1103;
},
{
anchors = (
{
name = bottom;
position = "{735, 0}";
},
{
name = bottomright;
position = "{984, 0}";
},
{
name = top;
position = "{1115, 660}";
},
{
name = topcenter;
position = "{736, 660}";
}
);
layerId = "A071A550-EFB7-4955-8F98-3DB7A21E0E0F";
paths = (
{
closed = 1;
nodes = (
"448 0 OFFCURVE",
"511 16 OFFCURVE",
"551 53 CURVE",
"586 16 OFFCURVE",
"647 0 OFFCURVE",
"738 0 CURVE SMOOTH",
"910 0 OFFCURVE",
"984 70 OFFCURVE",
"984 175 CURVE SMOOTH",
"984 371 LINE SMOOTH",
"984 454 OFFCURVE",
"974 470 OFFCURVE",
"873 526 CURVE",
"869 528 OFFCURVE",
"867 531 OFFCURVE",
"867 533 CURVE SMOOTH",
"867 539 OFFCURVE",
"876 552 OFFCURVE",
"883 552 CURVE SMOOTH",
"896 552 OFFCURVE",
"973 512 OFFCURVE",
"992 512 CURVE SMOOTH",
"1019 512 OFFCURVE",
"1061 571 OFFCURVE",
"1061 589 CURVE SMOOTH",
"1061 599 OFFCURVE",
"1057 607 OFFCURVE",
"1047 613 CURVE",
"1025 628 OFFCURVE",
"926 663 OFFCURVE",
"899 663 CURVE SMOOTH",
"856 663 OFFCURVE",
"762 534 OFFCURVE",
"762 494 CURVE SMOOTH",
"762 485 OFFCURVE",
"765 472 OFFCURVE",
"813 443 CURVE SMOOTH",
"854 417 OFFCURVE",
"854 404 OFFCURVE",
"854 354 CURVE SMOOTH",
"854 170 LINE SMOOTH",
"854 121 OFFCURVE",
"833 89 OFFCURVE",
"736 89 CURVE SMOOTH",
"643 89 OFFCURVE",
"618 116 OFFCURVE",
"618 170 CURVE SMOOTH",
"618 371 LINE SMOOTH",
"618 454 OFFCURVE",
"608 470 OFFCURVE",
"507 526 CURVE",
"503 528 OFFCURVE",
"501 531 OFFCURVE",
"501 533 CURVE SMOOTH",
"501 539 OFFCURVE",
"510 552 OFFCURVE",
"517 552 CURVE SMOOTH",
"530 552 OFFCURVE",
"607 512 OFFCURVE",
"626 512 CURVE SMOOTH",
"653 512 OFFCURVE",
"695 571 OFFCURVE",
"695 589 CURVE SMOOTH",
"695 599 OFFCURVE",
"691 607 OFFCURVE",
"681 613 CURVE",
"659 628 OFFCURVE",
"560 663 OFFCURVE",
"533 663 CURVE SMOOTH",
"490 663 OFFCURVE",
"396 534 OFFCURVE",
"396 494 CURVE SMOOTH",
"396 485 OFFCURVE",
"399 472 OFFCURVE",
"447 443 CURVE SMOOTH",
"488 417 OFFCURVE",
"488 404 OFFCURVE",
"488 354 CURVE SMOOTH",
"488 170 LINE SMOOTH",
"488 121 OFFCURVE",
"467 89 OFFCURVE",
"371 89 CURVE SMOOTH",
"278 89 OFFCURVE",
"252 116 OFFCURVE",
"252 170 CURVE SMOOTH",
"252 576 LINE SMOOTH",
"252 585 OFFCURVE",
"254 588 OFFCURVE",
"263 588 CURVE SMOOTH",
"277 588 OFFCURVE",
"283 578 OFFCURVE",
"283 536 CURVE SMOOTH",
"283 496 OFFCURVE",
"277 492 OFFCURVE",
"269 490 CURVE SMOOTH",
"262 488 OFFCURVE",
"259 486 OFFCURVE",
"259 473 CURVE SMOOTH",
"259 437 OFFCURVE",
"274 412 OFFCURVE",
"300 412 CURVE SMOOTH",
"333 412 OFFCURVE",
"370 445 OFFCURVE",
"370 524 CURVE SMOOTH",
"370 620 OFFCURVE",
"315 663 OFFCURVE",
"237 663 CURVE SMOOTH",
"166 663 OFFCURVE",
"122 628 OFFCURVE",
"122 555 CURVE SMOOTH",
"122 175 LINE SMOOTH",
"122 70 OFFCURVE",
"181 0 OFFCURVE",
"366 0 CURVE SMOOTH"
);
}
);
width = 1106;
},
{
anchors = (
{
name = bottom;
position = "{729, 0}";
},
{
name = bottomright;
position = "{938, 0}";
},
{
name = top;
position = "{1093, 660}";
},
{
name = topcenter;
position = "{729, 660}";
}
);
layerId = "EF9CD0BC-E2A6-4ABC-B2EB-28760EBC66CA";
paths = (
{
closed = 1;
nodes = (
"453 0 OFFCURVE",
"517 31 OFFCURVE",
"546 87 CURVE",
"572 31 OFFCURVE",
"633 0 OFFCURVE",
"729 0 CURVE SMOOTH",
"863 0 OFFCURVE",
"938 61 OFFCURVE",
"938 166 CURVE SMOOTH",
"938 421 LINE SMOOTH",
"938 463 OFFCURVE",
"919 483 OFFCURVE",
"854 523 CURVE SMOOTH",
"840 532 OFFCURVE",
"839 534 OFFCURVE",
"839 538 CURVE SMOOTH",
"839 551 OFFCURVE",
"896 620 OFFCURVE",
"911 620 CURVE SMOOTH",
"939 620 OFFCURVE",
"994 585 OFFCURVE",
"1011 585 CURVE SMOOTH",
"1020 585 OFFCURVE",
"1033 599 OFFCURVE",
"1033 610 CURVE SMOOTH",
"1033 615 OFFCURVE",
"1031 618 OFFCURVE",
"1023 622 CURVE",
"937 659 OFFCURVE",
"924 663 OFFCURVE",
"913 663 CURVE SMOOTH",
"884 663 OFFCURVE",
"794 560 OFFCURVE",
"794 530 CURVE SMOOTH",
"794 521 OFFCURVE",
"798 513 OFFCURVE",
"821 498 CURVE SMOOTH",
"889 452 OFFCURVE",
"899 445 OFFCURVE",
"899 410 CURVE SMOOTH",
"899 180 LINE SMOOTH",
"899 97 OFFCURVE",
"860 39 OFFCURVE",
"732 39 CURVE SMOOTH",
"600 39 OFFCURVE",
"566 99 OFFCURVE",
"566 180 CURVE SMOOTH",
"566 421 LINE SMOOTH",
"566 463 OFFCURVE",
"547 483 OFFCURVE",
"482 523 CURVE SMOOTH",
"468 532 OFFCURVE",
"467 534 OFFCURVE",
"467 538 CURVE SMOOTH",
"467 551 OFFCURVE",
"524 620 OFFCURVE",
"539 620 CURVE SMOOTH",
"568 620 OFFCURVE",
"621 585 OFFCURVE",
"639 585 CURVE SMOOTH",
"648 585 OFFCURVE",
"661 599 OFFCURVE",
"661 610 CURVE SMOOTH",
"661 615 OFFCURVE",
"659 618 OFFCURVE",
"651 622 CURVE",
"565 659 OFFCURVE",
"552 663 OFFCURVE",
"541 663 CURVE SMOOTH",
"512 663 OFFCURVE",
"422 560 OFFCURVE",
"422 530 CURVE SMOOTH",
"422 521 OFFCURVE",
"426 513 OFFCURVE",
"449 498 CURVE SMOOTH",
"517 452 OFFCURVE",
"527 445 OFFCURVE",
"527 410 CURVE SMOOTH",
"527 180 LINE SMOOTH",
"527 97 OFFCURVE",
"488 39 OFFCURVE",
"360 39 CURVE SMOOTH",
"228 39 OFFCURVE",
"194 99 OFFCURVE",
"194 180 CURVE SMOOTH",
"194 568 LINE SMOOTH",
"194 604 OFFCURVE",
"206 626 OFFCURVE",
"239 626 CURVE SMOOTH",
"274 626 OFFCURVE",
"292 599 OFFCURVE",
"292 553 CURVE SMOOTH",
"292 516 OFFCURVE",
"277 497 OFFCURVE",
"241 497 CURVE SMOOTH",
"226 497 OFFCURVE",
"221 493 OFFCURVE",
"221 480 CURVE SMOOTH",
"221 465 OFFCURVE",
"229 458 OFFCURVE",
"245 458 CURVE SMOOTH",
"301 458 OFFCURVE",
"333 492 OFFCURVE",
"333 550 CURVE SMOOTH",
"333 620 OFFCURVE",
"294 663 OFFCURVE",
"237 663 CURVE SMOOTH",
"189 663 OFFCURVE",
"155 636 OFFCURVE",
"155 571 CURVE SMOOTH",
"155 166 LINE SMOOTH",
"155 61 OFFCURVE",
"223 0 OFFCURVE",
"357 0 CURVE SMOOTH"
);
}
);
width = 1093;
}
);
note = uni1799;
unicode = 1799;
},
{
glyphname = "ro-khmer";
lastChange = "2018-12-17 08:25:10 +0000";
layers = (
{
anchors = (
{
name = bottom;
position = "{223, 0}";
},
{
name = bottomright;
position = "{305, 0}";
},
{
name = top;
position = "{587, 660}";
},
{
name = topcenter;
position = "{238, 660}";
}
);
layerId = "C00489B0-D6FE-4186-8C18-D0EE90D80B61";
paths = (
{
closed = 1;
nodes = (
"261 0 OFFCURVE",
"305 43 OFFCURVE",
"305 112 CURVE SMOOTH",
"305 424 LINE SMOOTH",
"305 468 OFFCURVE",
"289 485 OFFCURVE",
"212 528 CURVE SMOOTH",
"203 533 OFFCURVE",
"200 537 OFFCURVE",
"200 541 CURVE SMOOTH",
"200 551 OFFCURVE",
"231 590 OFFCURVE",
"245 590 CURVE SMOOTH",
"269 590 OFFCURVE",
"334 554 OFFCURVE",
"355 554 CURVE SMOOTH",
"377 554 OFFCURVE",
"400 586 OFFCURVE",
"400 598 CURVE SMOOTH",
"400 605 OFFCURVE",
"396 610 OFFCURVE",
"387 615 CURVE SMOOTH",
"337 642 OFFCURVE",
"271 663 OFFCURVE",
"253 663 CURVE SMOOTH",
"212 663 OFFCURVE",
"119 551 OFFCURVE",
"119 521 CURVE SMOOTH",
"119 509 OFFCURVE",
"127 502 OFFCURVE",
"141 494 CURVE",
"220 445 OFFCURVE",
"227 437 OFFCURVE",
"227 408 CURVE SMOOTH",
"227 117 LINE SMOOTH",
"227 78 OFFCURVE",
"214 65 OFFCURVE",
"189 65 CURVE SMOOTH",
"162 65 OFFCURVE",
"147 83 OFFCURVE",
"147 117 CURVE SMOOTH",
"147 147 OFFCURVE",
"167 163 OFFCURVE",
"188 163 CURVE SMOOTH",
"202 163 OFFCURVE",
"211 169 OFFCURVE",
"211 184 CURVE SMOOTH",
"211 216 OFFCURVE",
"197 228 OFFCURVE",
"175 228 CURVE SMOOTH",
"119 228 OFFCURVE",
"75 184 OFFCURVE",
"75 119 CURVE SMOOTH",
"75 45 OFFCURVE",
"117 0 OFFCURVE",
"191 0 CURVE SMOOTH"
);
}
);
width = 445;
},
{
anchors = (
{
name = bottom;
position = "{228, 0}";
},
{
name = bottomright;
position = "{326, 0}";
},
{
name = top;
position = "{590, 660}";
},
{
name = topcenter;
position = "{229, 660}";
}
);
layerId = "A071A550-EFB7-4955-8F98-3DB7A21E0E0F";
paths = (
{
closed = 1;
nodes = (
"282 0 OFFCURVE",
"326 35 OFFCURVE",
"326 108 CURVE SMOOTH",
"326 371 LINE SMOOTH",
"326 454 OFFCURVE",
"316 470 OFFCURVE",
"215 526 CURVE",
"211 528 OFFCURVE",
"209 531 OFFCURVE",
"209 533 CURVE SMOOTH",
"209 539 OFFCURVE",
"218 552 OFFCURVE",
"225 552 CURVE SMOOTH",
"238 552 OFFCURVE",
"315 512 OFFCURVE",
"334 512 CURVE SMOOTH",
"361 512 OFFCURVE",
"403 571 OFFCURVE",
"403 589 CURVE SMOOTH",
"403 599 OFFCURVE",
"399 607 OFFCURVE",
"389 613 CURVE",
"367 628 OFFCURVE",
"268 663 OFFCURVE",
"241 663 CURVE SMOOTH",
"198 663 OFFCURVE",
"104 534 OFFCURVE",
"104 494 CURVE SMOOTH",
"104 485 OFFCURVE",
"107 472 OFFCURVE",
"155 443 CURVE SMOOTH",
"196 417 OFFCURVE",
"196 404 OFFCURVE",
"196 354 CURVE SMOOTH",
"196 87 LINE SMOOTH",
"196 78 OFFCURVE",
"194 75 OFFCURVE",
"185 75 CURVE SMOOTH",
"171 75 OFFCURVE",
"165 85 OFFCURVE",
"165 127 CURVE SMOOTH",
"165 167 OFFCURVE",
"171 171 OFFCURVE",
"179 173 CURVE SMOOTH",
"186 175 OFFCURVE",
"189 177 OFFCURVE",
"189 190 CURVE SMOOTH",
"189 226 OFFCURVE",
"174 251 OFFCURVE",
"148 251 CURVE SMOOTH",
"115 251 OFFCURVE",
"78 218 OFFCURVE",
"78 139 CURVE SMOOTH",
"78 43 OFFCURVE",
"133 0 OFFCURVE",
"211 0 CURVE SMOOTH"
);
}
);
width = 448;
},
{
anchors = (
{
name = bottom;
position = "{204, 0}";
},
{
name = bottomright;
position = "{248, 0}";
},
{
name = top;
position = "{558, 660}";
},
{
name = topcenter;
position = "{229, 660}";
}
);
layerId = "EF9CD0BC-E2A6-4ABC-B2EB-28760EBC66CA";
paths = (
{
closed = 1;
nodes = (
"214 0 OFFCURVE",
"249 29 OFFCURVE",
"249 92 CURVE SMOOTH",
"249 421 LINE SMOOTH",
"249 463 OFFCURVE",
"230 483 OFFCURVE",
"165 523 CURVE SMOOTH",
"151 532 OFFCURVE",
"150 534 OFFCURVE",
"150 538 CURVE SMOOTH",
"150 551 OFFCURVE",
"207 620 OFFCURVE",
"222 620 CURVE SMOOTH",
"251 620 OFFCURVE",
"304 585 OFFCURVE",
"322 585 CURVE SMOOTH",
"331 585 OFFCURVE",
"344 599 OFFCURVE",
"344 610 CURVE SMOOTH",
"344 615 OFFCURVE",
"342 618 OFFCURVE",
"334 622 CURVE",
"248 659 OFFCURVE",
"235 663 OFFCURVE",
"224 663 CURVE SMOOTH",
"195 663 OFFCURVE",
"105 560 OFFCURVE",
"105 530 CURVE SMOOTH",
"105 521 OFFCURVE",
"109 513 OFFCURVE",
"132 498 CURVE SMOOTH",
"200 452 OFFCURVE",
"210 445 OFFCURVE",
"210 410 CURVE SMOOTH",
"210 95 LINE SMOOTH",
"210 54 OFFCURVE",
"196 37 OFFCURVE",
"166 37 CURVE SMOOTH",
"134 37 OFFCURVE",
"114 60 OFFCURVE",
"114 110 CURVE SMOOTH",
"114 147 OFFCURVE",
"127 166 OFFCURVE",
"163 166 CURVE SMOOTH",
"178 166 OFFCURVE",
"183 170 OFFCURVE",
"183 183 CURVE SMOOTH",
"183 198 OFFCURVE",
"175 205 OFFCURVE",
"159 205 CURVE SMOOTH",
"104 205 OFFCURVE",
"73 167 OFFCURVE",
"73 109 CURVE SMOOTH",
"73 36 OFFCURVE",
"111 0 OFFCURVE",
"166 0 CURVE SMOOTH"
);
}
);
width = 404;
}
);
note = uni179A;
unicode = 179A;
},
